<svg width="500" height="500" viewBox="0 0 500 500" fill="none" xmlns="http://www.w3.org/2000/svg">
<g clip-path="url(#clip0_4311_2)">
<path d="M500 0H0V500H500V0Z" fill="white"/>
<path d="M154.04 103.619L122.833 178.555H135.54V153.328H174.97V178.555H189.919V209.389H174.97V234.804H135.54V209.389H79.665V181.358L113.303 103.619H154.04Z" fill="#169344"/>
<path d="M301.111 169.212C301.111 212.193 282.237 235.926 248.226 235.926C213.841 235.926 195.153 212.194 195.153 169.212C195.153 126.231 213.841 102.498 248.226 102.498C282.237 102.498 301.111 126.231 301.111 169.212ZM236.078 169.212C236.078 196.682 238.882 206.773 248.226 206.773C257.384 206.773 260.186 196.682 260.186 169.212C260.186 141.555 257.384 131.65 248.226 131.65C238.882 131.65 236.078 141.555 236.078 169.212Z" fill="#169344"/>
<path d="M384.646 103.619L353.439 178.555H366.145V153.328H405.575V178.555H420.525V209.389H405.575V234.804H366.145V209.389H310.271V181.358L343.907 103.619H384.646Z" fill="#169344"/>
<path d="M221.512 384.843C236.371 384.843 248.416 380.314 248.416 374.727C248.416 369.14 236.371 364.611 221.512 364.611C206.653 364.611 194.608 369.14 194.608 374.727C194.608 380.314 206.653 384.843 221.512 384.843Z" fill="#9CA3A3"/>
<path d="M280.012 384.843C294.871 384.843 306.916 380.314 306.916 374.727C306.916 369.14 294.871 364.611 280.012 364.611C265.153 364.611 253.108 369.14 253.108 374.727C253.108 380.314 265.153 384.843 280.012 384.843Z" fill="#9CA3A3"/>
<path d="M500 314.311C500 314.311 388.205 331.657 371.552 284.475C355.486 238.954 355.041 203.323 344.748 194.327" stroke="#485F66" stroke-miterlimit="10"/>
<path d="M0 314.311C0 314.311 111.985 331.657 128.638 284.475C144.704 238.954 145.149 203.323 155.442 194.327" stroke="#485F66" stroke-miterlimit="10"/>
<path d="M277.747 330.816L273.124 361.735H262.892L258.261 330.816H277.747Z" fill="#395156"/>
<path d="M273.14 330.816L268.517 361.735H262.892L258.261 330.816H273.14Z" fill="#485F66"/>
<path d="M271.785 380.131L289.183 375.756L273.774 361.043H262.937V366.113L271.785 380.131Z" fill="#395156"/>
<path d="M276.128 317.572L263.229 319.647L262.435 319.775L256.699 320.696L256.522 319.999L246.699 281.573L254.239 280.571L255.032 280.467L265.392 279.097L269.839 278.504L276.128 317.572Z" fill="#395156"/>
<path d="M271.585 317.572L258.686 319.647L257.892 319.775L256.522 319.999L246.699 281.573L254.239 280.571L255.032 280.467L265.392 279.097L271.585 317.572Z" fill="#485F66"/>
<path d="M256.487 324.467L277.431 321.095L276.619 316.053L255.675 319.426L256.487 324.467Z" fill="#395156"/>
<path d="M278.436 325.976L275.247 326.321L257.348 328.26L256.795 323.18L274.694 321.241L277.883 320.897L278.436 325.976Z" fill="#395156"/>
<path d="M274.702 321.243L256.802 323.182L257.353 328.263L275.252 326.324L274.702 321.243Z" fill="#485F66"/>
<path d="M257.379 332.857L278.521 331.124L278.104 326.035L256.961 327.768L257.379 332.857Z" fill="#395156"/>
<path d="M289.183 375.756V379.534L271.785 380.131L289.183 375.756Z" fill="#485F66"/>
<path d="M268.18 366.141L267.379 366.214L263.91 326.818L262.435 319.775L254.239 280.571L255.032 280.467L263.229 319.647L264.703 326.697L268.18 366.141Z" fill="#395156"/>
<path d="M239.408 330.816L234.785 361.735H224.546L219.923 330.816H239.408Z" fill="#395156"/>
<path d="M235.667 330.816L231.044 361.735H224.546L219.923 330.816H235.667Z" fill="#485F66"/>
<path d="M225.887 380.131L208.489 375.756L224.433 360.908L234.736 361.043V366.113L225.887 380.131Z" fill="#395156"/>
<path d="M251.274 281.573L241.275 320.696L237.485 320.087L236.244 319.887L235.458 319.759L221.838 317.572L228.047 279.017L228.127 278.504L243.647 280.563L244.448 280.667L251.274 281.573Z" fill="#395156"/>
<path d="M247.332 281.573L237.485 320.087L236.244 319.887L235.458 319.759L221.838 317.572L228.047 279.017L239.705 280.563L240.506 280.667L247.332 281.573Z" fill="#485F66"/>
<path d="M241.98 319.422L241.171 324.462L220.227 321.089L221.036 316.049L235.739 318.421L236.524 318.541L241.98 319.422Z" fill="#395156"/>
<path d="M240.875 323.18L240.33 328.26L236.764 327.875L219.242 325.976L219.786 320.897L237.309 322.795L240.875 323.18Z" fill="#395156"/>
<path d="M237.309 322.795L236.764 327.875L219.242 325.976L219.786 320.897L237.309 322.795Z" fill="#485F66"/>
<path d="M240.688 327.793L219.545 326.06L219.128 331.149L240.271 332.882L240.688 327.793Z" fill="#395156"/>
<path d="M208.489 375.756V379.501L225.887 380.131L208.489 375.756Z" fill="#485F66"/>
<path d="M233.64 330.816H234.441L231.717 361.735H230.915L233.64 330.816Z" fill="#395156"/>
<path d="M244.448 280.667L236.524 318.541L235.739 318.421L243.647 280.563L244.448 280.667Z" fill="#395156"/>
<path d="M248.951 97.6169H247.699V117.047H248.951V97.6169Z" fill="#6D8189"/>
<path d="M254.359 122.589H243.092V121.563C243.092 118.452 245.614 115.929 248.726 115.929C251.837 115.929 254.36 118.451 254.36 121.563V122.589H254.359Z" fill="#485F66"/>
<path d="M302.552 213.139L308.182 221.26L336.699 201.491L331.069 193.37L302.552 213.139Z" fill="#485F66"/>
<path d="M269.378 216.023L301.469 223.826L304.336 213.357L267.527 197.786L269.378 216.023Z" fill="#485F66"/>
<path d="M297.473 218.284C297.473 221.492 300.074 224.093 303.282 224.093C306.49 224.093 309.091 221.492 309.091 218.284C309.091 215.076 306.49 212.475 303.282 212.475C300.074 212.475 297.473 215.076 297.473 218.284Z" fill="#6D8189"/>
<path d="M299.843 218.284C299.843 220.183 301.382 221.723 303.281 221.723C305.18 221.723 306.72 220.183 306.72 218.284C306.72 216.385 305.181 214.845 303.281 214.845C301.383 214.846 299.843 216.385 299.843 218.284Z" fill="#485F66"/>
<path d="M336.243 180.921L332.732 184.635C328.748 188.849 328.936 195.498 333.15 199.481C337.364 203.465 344.012 203.278 347.996 199.063L351.507 195.348L347.503 191.563L344.122 195.14C342.226 197.146 339.071 197.234 337.065 195.338C335.059 193.442 334.963 190.28 336.859 188.274L340.24 184.697L336.243 180.921Z" fill="#6D8189"/>
<path d="M165.777 193.347L160.147 201.468L188.665 221.238L194.295 213.117L165.777 193.347Z" fill="#485F66"/>
<path d="M227.471 216.023L195.379 223.826L192.512 213.357L229.321 198.229L227.471 216.023Z" fill="#485F66"/>
<path d="M268.38 127.715V175.572C268.38 180.796 264.142 185.034 258.918 185.034H238.783C233.559 185.034 229.321 180.796 229.321 175.572V129.99C229.321 125.175 232.934 121.128 237.718 120.592L254.552 118.693L257.861 118.316C263.469 117.683 268.38 122.074 268.38 127.715Z" fill="#63797F"/>
<path d="M261.169 127.715V175.572C261.169 180.796 256.931 185.034 251.707 185.034H238.783C233.559 185.034 229.321 180.796 229.321 175.572V129.99C229.321 125.175 232.934 121.128 237.718 120.592L254.552 118.693C258.357 119.887 261.169 123.436 261.169 127.715Z" fill="#6D8189"/>
<path d="M255.828 189.908H240.872C240.356 189.908 239.937 189.489 239.937 188.973V185.902C239.937 185.386 240.356 184.967 240.872 184.967H255.828C256.344 184.967 256.763 185.386 256.763 185.902V188.973C256.763 189.489 256.344 189.908 255.828 189.908Z" fill="#485F66"/>
<path d="M254.758 194.515H241.941C241.461 194.515 241.072 194.126 241.072 193.646V190.444C241.072 189.964 241.461 189.575 241.941 189.575H254.758C255.238 189.575 255.628 189.964 255.628 190.444V193.646C255.628 194.126 255.238 194.515 254.758 194.515Z" fill="#395156"/>
<path d="M255.544 199.022H241.155C240.648 199.022 240.237 198.611 240.237 198.104V194.999C240.237 194.492 240.648 194.081 241.155 194.081H255.544C256.051 194.081 256.462 194.492 256.462 194.999V198.104C256.462 198.611 256.051 199.022 255.544 199.022Z" fill="#485F66"/>
<path d="M276.008 209.735L274.093 250.269L274.053 251.07L272.931 274.77L272.618 281.476L272.121 291.932H225.98L225.483 281.476L225.17 274.77L223.856 246.992L223.816 246.191L222.093 209.736C221.773 203.062 226.54 197.453 232.533 197.453H265.567C271.561 197.453 276.329 203.061 276.008 209.735Z" fill="#63797F"/>
<path d="M265.993 209.735L264.078 250.269L264.038 251.07L262.916 274.77L262.603 281.476L262.106 291.932H225.98L225.483 281.476L225.17 274.77L223.856 246.992L223.816 246.191L222.093 209.736C221.773 203.062 226.54 197.453 232.533 197.453H255.552C261.546 197.453 266.313 203.061 265.993 209.735Z" fill="#6D8189"/>
<path d="M199.375 218.284C199.375 221.492 196.774 224.093 193.566 224.093C190.358 224.093 187.757 221.492 187.757 218.284C187.757 215.076 190.358 212.475 193.566 212.475C196.775 212.475 199.375 215.076 199.375 218.284Z" fill="#6D8189"/>
<path d="M193.567 221.238C195.198 221.238 196.521 219.915 196.521 218.284C196.521 216.653 195.198 215.33 193.567 215.33C191.935 215.33 190.613 216.653 190.613 218.284C190.613 219.915 191.935 221.238 193.567 221.238Z" fill="#485F66"/>
<path d="M160.605 180.921L164.116 184.635C168.1 188.849 167.912 195.498 163.698 199.481C159.484 203.465 152.836 203.278 148.852 199.063L145.341 195.348L149.345 191.563L152.726 195.14C154.622 197.146 157.777 197.234 159.783 195.338C161.789 193.442 161.885 190.28 159.989 188.274L156.608 184.697L160.605 180.921Z" fill="#6D8189"/>
<path d="M250.136 96.8499C250.136 97.8729 249.306 98.7029 248.283 98.7029C247.26 98.7029 246.43 97.8729 246.43 96.8499C246.43 95.8269 247.26 94.9969 248.283 94.9969C249.306 94.9969 250.136 95.8259 250.136 96.8499Z" fill="#FF534D"/>
<path d="M261.47 168.008C252.79 162.6 244.11 173.416 235.43 168.008C235.43 167.107 235.43 166.205 235.43 165.304C244.11 170.712 252.79 159.896 261.47 165.304C261.47 166.205 261.47 167.107 261.47 168.008Z" fill="#485F66"/>
<path d="M246.182 154.293C249.781 150.695 249.781 144.861 246.182 141.262C242.584 137.664 236.75 137.664 233.152 141.262C229.554 144.861 229.554 150.695 233.152 154.293C236.75 157.891 242.584 157.891 246.182 154.293Z" fill="#63797F"/>
<path d="M266.467 149.917C267.641 144.966 264.579 140 259.627 138.826C254.676 137.652 249.71 140.714 248.536 145.666C247.362 150.617 250.425 155.583 255.376 156.757C260.327 157.931 265.293 154.868 266.467 149.917Z" fill="#63797F"/>
<path d="M257.89 138.563H239.587V156.979H257.89V138.563Z" fill="#63797F"/>
<path d="M241.94 142.97H237.734V152.685H241.94V142.97Z" fill="#116D33"/>
<path d="M241.489 143.721H238.184V151.933H241.489V143.721Z" fill="#FFC84D"/>
<path d="M260.269 142.97H256.062V152.685H260.269V142.97Z" fill="#116D33"/>
<path d="M233.687 141.457L232.426 139.765L242.782 131.363L244.882 135.008L233.687 141.457Z" fill="#485F66"/>
<path d="M264.319 141.457L265.58 139.765L255.224 131.363L253.124 135.008L264.319 141.457Z" fill="#485F66"/>
<path d="M266.311 212.876H231.191V234.91H266.311V212.876Z" fill="#63797F"/>
<path d="M262.905 215.013H234.596V232.773H262.905V215.013Z" fill="#485F66"/>
<path d="M260.333 218.583H237.168V219.702H260.333V218.583Z" fill="#169344"/>
<path d="M256.708 221.667H240.793V222.786H256.708V221.667Z" fill="#169344"/>
<path d="M258.458 224.417H239.043V225.536H258.458V224.417Z" fill="#169344"/>
<path d="M274.093 250.269L274.053 251.07H254.824V241.319H237.798V246.992H223.857L223.817 246.191H236.997V240.518H255.625V250.269H274.093Z" fill="#485F66"/>
<path d="M237.4 247.863C238.211 247.863 238.869 247.205 238.869 246.394C238.869 245.583 238.211 244.925 237.4 244.925C236.588 244.925 235.931 245.583 235.931 246.394C235.931 247.205 236.588 247.863 237.4 247.863Z" fill="#485F66"/>
<path d="M238.401 240.785C238.401 241.338 237.953 241.787 237.4 241.787C236.847 241.787 236.398 241.339 236.398 240.785C236.398 240.232 236.846 239.783 237.4 239.783C237.954 239.783 238.401 240.232 238.401 240.785Z" fill="#485F66"/>
<path d="M256.229 240.785C256.229 241.338 255.781 241.787 255.227 241.787C254.674 241.787 254.225 241.339 254.225 240.785C254.225 240.232 254.673 239.783 255.227 239.783C255.78 239.784 256.229 240.232 256.229 240.785Z" fill="#485F66"/>
<path d="M256.229 250.4C256.229 250.953 255.781 251.401 255.227 251.401C254.674 251.401 254.225 250.953 254.225 250.4C254.225 249.847 254.673 249.399 255.227 249.399C255.78 249.398 256.229 249.847 256.229 250.4Z" fill="#485F66"/>
<path d="M259.784 143.721H256.479V151.933H259.784V143.721Z" fill="#FFC84D"/>
<path d="M273.388 281.38H224.514V296.102H273.388V281.38Z" fill="#395156"/>
<path d="M256.786 281.38H224.514V296.102H256.786V281.38Z" fill="#485F66"/>
<path d="M272.931 274.77L272.619 281.477H225.483L225.171 274.77H272.931Z" fill="#63797F"/>
<path d="M155.442 194.327C155.818 193.999 156.206 193.706 156.609 193.449C168.058 186.163 167.797 214.004 167.797 214.004" stroke="#485F66" stroke-miterlimit="10"/>
<path d="M166.586 218.201H165.415V222.527H166.586V218.201Z" fill="#485F66"/>
<path d="M170.587 218.201H169.416V222.527H170.587V218.201Z" fill="#485F66"/>
<path d="M172.299 216.477V219.599H163.712V216.477C163.712 214.104 165.627 212.178 168 212.178C169.187 212.178 170.259 212.657 171.039 213.437C171.143 213.541 171.247 213.656 171.341 213.77C171.945 214.51 172.299 215.457 172.299 216.477Z" fill="#485F66"/>
<path d="M172.299 216.477V219.599H164.941V217.517C164.941 215.144 166.866 213.219 169.239 213.219C169.999 213.219 170.717 213.417 171.341 213.771C171.945 214.51 172.299 215.457 172.299 216.477Z" fill="#6D8189"/>
<path d="M344.749 194.327C344.373 193.999 343.985 193.706 343.582 193.449C332.133 186.163 332.393 214.004 332.393 214.004" stroke="#485F66" stroke-miterlimit="10"/>
<path d="M327.891 216.477V219.599H336.477V216.477C336.477 214.104 334.562 212.178 332.189 212.178C331.002 212.178 329.931 212.657 329.15 213.437C329.046 213.541 328.942 213.656 328.848 213.77C328.245 214.51 327.891 215.457 327.891 216.477Z" fill="#485F66"/>
<path d="M327.891 216.477V219.599H335.249V217.517C335.249 215.144 333.323 213.219 330.951 213.219C330.191 213.219 329.473 213.417 328.849 213.771C328.245 214.51 327.891 215.457 327.891 216.477Z" fill="#6D8189"/>
<path d="M164.003 237.43L162.96 237.502L162.762 235.208L161.711 238.605L162.755 238.533L162.952 240.827L164.003 237.43Z" fill="#FFC84D"/>
<path d="M182.516 226.963L181.488 228.169L178.796 225.953L181.36 230.688L182.388 229.483L185.081 231.699L182.516 226.963Z" fill="#FFC84D"/>
<path d="M178.099 238.334L176.372 239.292L174.197 235.53L175.123 242.178L176.849 241.219L179.025 244.981L178.099 238.334Z" fill="#FFC84D"/>
<path d="M322.637 225.151L321.75 224.598L322.933 222.623L320.092 224.761L320.98 225.314L319.797 227.288L322.637 225.151Z" fill="#FFC84D"/>
<path d="M343.774 227.508L342.235 227.883L341.35 224.51L340.655 229.85L342.194 229.475L343.079 232.848L343.774 227.508Z" fill="#FFC84D"/>
<path d="M333.534 234.138L331.574 233.904L332.013 229.58L328.871 235.511L330.831 235.745L330.392 240.069L333.534 234.138Z" fill="#FFC84D"/>
</g>
<defs>
<clipPath id="clip0_4311_2">
<rect width="500" height="500" fill="white"/>
</clipPath>
</defs>
</svg>
