<svg xmlns="http://www.w3.org/2000/svg" viewBox="0 0 500 500"><g id="freepik--background-complete--inject-117"><rect y="382.4" width="500" height="0.25" style="fill:#fafafa"></rect><rect x="398.39" y="393.28" width="24.83" height="0.25" style="fill:#e0e0e0"></rect><rect x="430.56" y="393.15" width="8.39" height="0.25" style="fill:#e0e0e0"></rect><rect x="280.04" y="394.83" width="51.99" height="0.25" style="fill:#e0e0e0"></rect><rect x="260.02" y="397.54" width="7.75" height="0.25" style="fill:#e0e0e0"></rect><rect x="98.59" y="389.63" width="13.36" height="0.25" style="fill:#e0e0e0"></rect><rect x="117.5" y="389.63" width="67.76" height="0.25" style="fill:#e0e0e0"></rect><rect x="80.36" y="395.67" width="47.14" height="0.25" style="fill:#e0e0e0"></rect><path d="M237,337.8H43.91a5.71,5.71,0,0,1-5.7-5.71V60.66A5.71,5.71,0,0,1,43.91,55H237a5.71,5.71,0,0,1,5.71,5.71V332.09A5.71,5.71,0,0,1,237,337.8ZM43.91,55.2a5.46,5.46,0,0,0-5.45,5.46V332.09a5.46,5.46,0,0,0,5.45,5.46H237a5.47,5.47,0,0,0,5.46-5.46V60.66A5.47,5.47,0,0,0,237,55.2Z" style="fill:#e0e0e0"></path><path d="M453.31,337.8H260.21a5.72,5.72,0,0,1-5.71-5.71V60.66A5.72,5.72,0,0,1,260.21,55h193.1A5.71,5.71,0,0,1,459,60.66V332.09A5.71,5.71,0,0,1,453.31,337.8ZM260.21,55.2a5.47,5.47,0,0,0-5.46,5.46V332.09a5.47,5.47,0,0,0,5.46,5.46h193.1a5.47,5.47,0,0,0,5.46-5.46V60.66a5.47,5.47,0,0,0-5.46-5.46Z" style="fill:#e0e0e0"></path><rect x="341.75" y="318.28" width="35.33" height="64.12" transform="translate(718.83 700.68) rotate(180)" style="fill:#e0e0e0"></rect><rect x="377.08" y="318.28" width="42.15" height="64.12" style="fill:#ebebeb"></rect><rect x="341.75" y="323.7" width="77.85" height="2.9" transform="translate(761.35 650.31) rotate(180)" style="fill:#e0e0e0;opacity:0.7000000000000001;mix-blend-mode:multiply"></rect><rect x="339.8" y="311.57" width="37.28" height="13.36" transform="translate(716.88 636.49) rotate(180)" style="fill:#e0e0e0"></rect><rect x="377.08" y="311.57" width="44.1" height="13.36" style="fill:#ebebeb"></rect><rect x="75.13" y="73.99" width="118.93" height="141.9" style="fill:#e0e0e0"></rect><rect x="77.68" y="73.99" width="121.83" height="141.9" style="fill:#ebebeb"></rect><rect x="75.13" y="215.89" width="118.93" height="10.11" style="fill:#e0e0e0"></rect><rect x="86.74" y="215.89" width="121.83" height="10.11" style="fill:#ebebeb"></rect><rect x="75.26" y="91.64" width="126.66" height="106.59" transform="translate(283.53 6.35) rotate(90)" style="fill:#f5f5f5"></rect><polygon points="98.38 208.27 143.09 81.61 164.19 81.61 119.49 208.27 98.38 208.27" style="fill:#fafafa"></polygon><path d="M88.82,165.3a.55.55,0,0,1-.54-.55V86.56a.54.54,0,0,1,.54-.54.55.55,0,0,1,.55.54v78.19A.55.55,0,0,1,88.82,165.3Z" style="fill:#ebebeb"></path><polygon points="124.02 208.27 168.73 81.61 176.96 81.61 132.25 208.27 124.02 208.27" style="fill:#fafafa"></polygon><rect x="128.07" y="144.46" width="126.66" height="0.97" transform="translate(336.34 -46.46) rotate(90)" style="fill:#e0e0e0"></rect><polygon points="201.3 91.35 82.38 91.35 81.68 84.57 200.6 84.57 201.3 91.35" style="fill:#e0e0e0"></polygon><polygon points="201.3 96.32 82.38 96.32 81.68 89.53 200.6 89.53 201.3 96.32" style="fill:#e0e0e0"></polygon><polygon points="201.3 102.28 82.38 102.28 81.68 95.49 200.6 95.49 201.3 102.28" style="fill:#e0e0e0"></polygon><polygon points="201.3 108.91 82.38 108.91 81.68 102.13 200.6 102.13 201.3 108.91" style="fill:#e0e0e0"></polygon><polygon points="201.3 116.86 82.38 116.86 81.68 110.07 200.6 110.07 201.3 116.86" style="fill:#e0e0e0"></polygon><polygon points="201.3 125.79 82.38 125.79 81.68 119.01 200.6 119.01 201.3 125.79" style="fill:#e0e0e0"></polygon><rect x="291.43" y="73.99" width="118.93" height="141.9" style="fill:#e0e0e0"></rect><rect x="293.97" y="73.99" width="121.83" height="141.9" style="fill:#ebebeb"></rect><rect x="291.43" y="215.89" width="118.93" height="10.11" style="fill:#e0e0e0"></rect><rect x="303.04" y="215.89" width="121.83" height="10.11" style="fill:#ebebeb"></rect><rect x="291.56" y="91.64" width="126.66" height="106.59" transform="translate(499.83 -209.95) rotate(90)" style="fill:#f5f5f5"></rect><polygon points="314.68 208.27 359.39 81.61 380.49 81.61 335.78 208.27 314.68 208.27" style="fill:#fafafa"></polygon><path d="M305.12,165.3a.55.55,0,0,1-.54-.55V86.56a.54.54,0,0,1,1.08,0v78.19A.55.55,0,0,1,305.12,165.3Z" style="fill:#ebebeb"></path><polygon points="340.32 208.27 385.03 81.61 393.25 81.61 348.55 208.27 340.32 208.27" style="fill:#fafafa"></polygon><rect x="344.37" y="144.46" width="126.66" height="0.97" transform="translate(552.64 -262.76) rotate(90)" style="fill:#e0e0e0"></rect><polygon points="417.6 91.35 298.68 91.35 297.97 84.57 416.9 84.57 417.6 91.35" style="fill:#e0e0e0"></polygon><polygon points="417.6 96.32 298.68 96.32 297.97 89.53 416.9 89.53 417.6 96.32" style="fill:#e0e0e0"></polygon><polygon points="417.6 102.28 298.68 102.28 297.97 95.49 416.9 95.49 417.6 102.28" style="fill:#e0e0e0"></polygon><polygon points="417.6 108.91 298.68 108.91 297.97 102.13 416.9 102.13 417.6 108.91" style="fill:#e0e0e0"></polygon><polygon points="417.6 116.86 298.68 116.86 297.97 110.07 416.9 110.07 417.6 116.86" style="fill:#e0e0e0"></polygon><polygon points="417.6 125.79 298.68 125.79 297.97 119.01 416.9 119.01 417.6 125.79" style="fill:#e0e0e0"></polygon><rect x="294.29" y="292.46" width="23.75" height="89.94" style="fill:#e0e0e0"></rect><polygon points="313.52 382.4 318.03 382.4 318.03 371.38 308.79 371.38 313.52 382.4" style="fill:#f5f5f5"></polygon><rect x="63.81" y="292.46" width="23.75" height="89.94" style="fill:#e0e0e0"></rect><rect x="83.62" y="292.46" width="234.42" height="83.88" style="fill:#f5f5f5"></rect><rect x="228.48" y="270.51" width="59.9" height="112.2" transform="translate(-68.17 585.04) rotate(-90)" style="fill:#e0e0e0"></rect><rect x="113.26" y="270.51" width="59.9" height="112.2" transform="translate(-183.39 469.82) rotate(-90)" style="fill:#e0e0e0"></rect><rect x="255.1" y="309.79" width="6.67" height="112.2" transform="translate(624.32 107.45) rotate(90)" style="fill:#e0e0e0"></rect><rect x="139.88" y="309.79" width="6.67" height="112.2" transform="translate(509.1 222.68) rotate(90)" style="fill:#e0e0e0"></rect><path d="M182.73,300.24h-79a13,13,0,0,1-9.39-4h97.82A13,13,0,0,1,182.73,300.24Z" style="fill:#f5f5f5"></path><path d="M298.37,300.24h-79a13,13,0,0,1-9.39-4h97.82A12.94,12.94,0,0,1,298.37,300.24Z" style="fill:#f5f5f5"></path><polygon points="88.13 382.4 83.61 382.4 83.61 371.38 92.85 371.38 88.13 382.4" style="fill:#f5f5f5"></polygon><rect x="229.12" y="237.24" width="26.44" height="55.22" style="fill:#e0e0e0;opacity:0.4;mix-blend-mode:multiply"></rect><polygon points="277.77 292.46 233.02 292.46 228.81 232.83 273.55 232.83 277.77 292.46" style="fill:#e0e0e0"></polygon><polygon points="282.86 292.46 234.29 292.46 230.08 232.83 278.64 232.83 282.86 292.46" style="fill:#f5f5f5"></polygon><polygon points="236.54 290.18 232.65 235.11 276.4 235.11 280.3 290.18 236.54 290.18" style="fill:#fafafa"></polygon><polygon points="247.13 277.85 244.98 247.44 265.81 247.44 267.96 277.85 247.13 277.85" style="fill:#f5f5f5"></polygon><circle cx="159.35" cy="271.05" r="11.62" style="fill:#ebebeb"></circle><circle cx="179.25" cy="276.59" r="11.62" style="fill:#ebebeb"></circle><circle cx="196.07" cy="271.75" r="7.75" transform="translate(-88.73 95.16) rotate(-22.39)" style="fill:#ebebeb"></circle><circle cx="170.98" cy="264" r="7.75" transform="translate(-116.95 390.6) rotate(-80.8)" style="fill:#ebebeb"></circle><path d="M140.77,274.51s.91,17.95,35.78,17.95,35.78-17.95,35.78-17.95Z" style="fill:#e0e0e0"></path><path d="M108.57,286.31s-11.36-19.58,4.4-35.17c0,0,4.11,2.68,4,6.29s-4.41,4.51-3.48,7.52,5,6,2.35,8.45.43,4.69.25,7.74S108.57,286.31,108.57,286.31Z" style="fill:#e0e0e0"></path><path d="M109.43,288.1s4.6-22.16-15.27-32c0,0-3.06,3.85-1.86,7.25s5.6,2.89,5.67,6-2.9,7.24.44,8.75,1.07,4.6,2.2,7.43S109.43,288.1,109.43,288.1Z" style="fill:#e0e0e0"></path><path d="M92,277.85s.38,14.61,14.86,14.61,14.86-14.61,14.86-14.61Z" style="fill:#ebebeb"></path></g><g id="freepik--Shadow--inject-117"><ellipse cx="250" cy="416.24" rx="193.89" ry="11.32" style="fill:#f5f5f5"></ellipse></g><g id="freepik--Calendar--inject-117"><path d="M180.45,272.44a2.34,2.34,0,0,1,0-4.67c5.72,0,10.54-8.19,10.54-17.89a2.34,2.34,0,0,1,4.67,0C195.66,262.53,189,272.44,180.45,272.44Z" style="fill:#169544"></path><path d="M215.74,272.44a2.34,2.34,0,0,1,0-4.67c5.72,0,10.54-8.19,10.54-17.89a2.34,2.34,0,0,1,4.67,0C231,262.53,224.27,272.44,215.74,272.44Z" style="fill:#169544"></path><path d="M251,272.44a2.34,2.34,0,0,1,0-4.67c5.71,0,10.54-8.19,10.54-17.89a2.33,2.33,0,0,1,4.66,0C266.23,262.53,259.56,272.44,251,272.44Z" style="fill:#169544"></path><path d="M286.32,272.44a2.34,2.34,0,1,1,0-4.67c5.71,0,10.54-8.19,10.54-17.89a2.33,2.33,0,0,1,4.66,0C301.52,262.53,294.84,272.44,286.32,272.44Z" style="fill:#169544"></path><path d="M321.6,272.44a2.34,2.34,0,0,1,0-4.67c5.72,0,10.54-8.19,10.54-17.89a2.34,2.34,0,0,1,4.67,0C336.81,262.53,330.13,272.44,321.6,272.44Z" style="fill:#169544"></path><path d="M356.89,272.44a2.34,2.34,0,0,1,0-4.67c5.71,0,10.54-8.19,10.54-17.89a2.34,2.34,0,0,1,4.67,0C372.1,262.53,365.42,272.44,356.89,272.44Z" style="fill:#169544"></path><g style="opacity:0.30000000000000004"><path d="M180.45,272.44a2.34,2.34,0,0,1,0-4.67c5.72,0,10.54-8.19,10.54-17.89a2.34,2.34,0,0,1,4.67,0C195.66,262.53,189,272.44,180.45,272.44Z"></path><path d="M215.74,272.44a2.34,2.34,0,0,1,0-4.67c5.72,0,10.54-8.19,10.54-17.89a2.34,2.34,0,0,1,4.67,0C231,262.53,224.27,272.44,215.74,272.44Z"></path><path d="M251,272.44a2.34,2.34,0,0,1,0-4.67c5.71,0,10.54-8.19,10.54-17.89a2.33,2.33,0,0,1,4.66,0C266.23,262.53,259.56,272.44,251,272.44Z"></path><path d="M286.32,272.44a2.34,2.34,0,1,1,0-4.67c5.71,0,10.54-8.19,10.54-17.89a2.33,2.33,0,0,1,4.66,0C301.52,262.53,294.84,272.44,286.32,272.44Z"></path><path d="M321.6,272.44a2.34,2.34,0,0,1,0-4.67c5.72,0,10.54-8.19,10.54-17.89a2.34,2.34,0,0,1,4.67,0C336.81,262.53,330.13,272.44,321.6,272.44Z"></path><path d="M356.89,272.44a2.34,2.34,0,0,1,0-4.67c5.71,0,10.54-8.19,10.54-17.89a2.34,2.34,0,0,1,4.67,0C372.1,262.53,365.42,272.44,356.89,272.44Z"></path></g><path d="M158.34,252.27H385.52a12.51,12.51,0,0,1,12.19,11.19l12.58,141.83a10.11,10.11,0,0,1-10.2,11.19H172.9a12.53,12.53,0,0,1-12.19-11.19L148.14,263.46A10.1,10.1,0,0,1,158.34,252.27Z" style="fill:#169544"></path><path d="M158.34,252.27H385.52a12.51,12.51,0,0,1,12.19,11.19l12.58,141.83a10.11,10.11,0,0,1-10.2,11.19H172.9a12.53,12.53,0,0,1-12.19-11.19L148.14,263.46A10.1,10.1,0,0,1,158.34,252.27Z" style="fill:#fafafa;opacity:0.4"></path><path d="M383.63,252.27H156.44a11.86,11.86,0,0,0-11.7,11.19l-6.4,141.83A10.63,10.63,0,0,0,149,416.48H376.21a11.86,11.86,0,0,0,11.7-11.19l6.41-141.83A10.64,10.64,0,0,0,383.63,252.27Z" style="fill:#169544"></path><path d="M383.63,252.27H156.44a11.86,11.86,0,0,0-11.7,11.19l-6.4,141.83A10.63,10.63,0,0,0,149,416.48H376.21a11.86,11.86,0,0,0,11.7-11.19l6.41-141.83A10.64,10.64,0,0,0,383.63,252.27Z" style="fill:#fafafa;opacity:0.2"></path><path d="M160.61,379l5.29-117.13a4.53,4.53,0,0,1,4.48-4.28H369.21a4.07,4.07,0,0,1,4.09,4.28L368,379a4.53,4.53,0,0,1-4.48,4.28H164.7A4.07,4.07,0,0,1,160.61,379Z" style="fill:#169544"></path><path d="M160.61,379l5.29-117.13a4.53,4.53,0,0,1,4.48-4.28H369.21a4.07,4.07,0,0,1,4.09,4.28L368,379a4.53,4.53,0,0,1-4.48,4.28H164.7A4.07,4.07,0,0,1,160.61,379Z" style="fill:#fafafa;opacity:0.1"></path><path d="M155,388.56l5.55-123a4.74,4.74,0,0,1,4.7-4.49H374.05a4.26,4.26,0,0,1,4.29,4.49l-5.56,123a4.75,4.75,0,0,1-4.69,4.5H159.27A4.25,4.25,0,0,1,155,388.56Z" style="opacity:0.1"></path><path d="M149.84,398.48l5.79-128.3a5,5,0,0,1,4.9-4.69H378.34a4.45,4.45,0,0,1,4.48,4.69L377,398.48a5,5,0,0,1-4.9,4.69H154.32A4.44,4.44,0,0,1,149.84,398.48Z" style="fill:#fafafa"></path><path d="M356.86,273.18h0a3,3,0,0,1-3-3.18h0a3.15,3.15,0,0,1,3.11-3h0a3,3,0,0,1,3,3.18h0A3.15,3.15,0,0,1,356.86,273.18Z" style="fill:#169544"></path><path d="M321.57,273.18h0a3,3,0,0,1-3-3.18h0a3.15,3.15,0,0,1,3.11-3h0a3,3,0,0,1,3,3.18h0A3.14,3.14,0,0,1,321.57,273.18Z" style="fill:#169544"></path><path d="M286.28,273.18h0a3,3,0,0,1-3-3.18h0a3.16,3.16,0,0,1,3.11-3h0a3,3,0,0,1,3,3.18h0A3.14,3.14,0,0,1,286.28,273.18Z" style="fill:#169544"></path><path d="M251,273.18h0a3,3,0,0,1-3-3.18h0a3.17,3.17,0,0,1,3.12-3h0a3,3,0,0,1,3,3.18h0A3.14,3.14,0,0,1,251,273.18Z" style="fill:#169544"></path><path d="M215.71,273.18h0a3,3,0,0,1-3-3.18h0a3.15,3.15,0,0,1,3.11-3h0a3,3,0,0,1,3,3.18h0A3.15,3.15,0,0,1,215.71,273.18Z" style="fill:#169544"></path><path d="M180.42,273.18h0a3,3,0,0,1-3-3.18h0a3.15,3.15,0,0,1,3.11-3h0a3,3,0,0,1,3,3.18h0A3.14,3.14,0,0,1,180.42,273.18Z" style="fill:#169544"></path><g style="opacity:0.1"><path d="M356.86,273.18h0a3,3,0,0,1-3-3.18h0a3.15,3.15,0,0,1,3.11-3h0a3,3,0,0,1,3,3.18h0A3.15,3.15,0,0,1,356.86,273.18Z" style="fill:#fafafa"></path><path d="M321.57,273.18h0a3,3,0,0,1-3-3.18h0a3.15,3.15,0,0,1,3.11-3h0a3,3,0,0,1,3,3.18h0A3.14,3.14,0,0,1,321.57,273.18Z" style="fill:#fafafa"></path><path d="M286.28,273.18h0a3,3,0,0,1-3-3.18h0a3.16,3.16,0,0,1,3.11-3h0a3,3,0,0,1,3,3.18h0A3.14,3.14,0,0,1,286.28,273.18Z" style="fill:#fafafa"></path><path d="M251,273.18h0a3,3,0,0,1-3-3.18h0a3.17,3.17,0,0,1,3.12-3h0a3,3,0,0,1,3,3.18h0A3.14,3.14,0,0,1,251,273.18Z" style="fill:#fafafa"></path><path d="M215.71,273.18h0a3,3,0,0,1-3-3.18h0a3.15,3.15,0,0,1,3.11-3h0a3,3,0,0,1,3,3.18h0A3.15,3.15,0,0,1,215.71,273.18Z" style="fill:#fafafa"></path><path d="M180.42,273.18h0a3,3,0,0,1-3-3.18h0a3.15,3.15,0,0,1,3.11-3h0a3,3,0,0,1,3,3.18h0A3.14,3.14,0,0,1,180.42,273.18Z" style="fill:#fafafa"></path></g><path d="M189.24,284.36H171.49a1.86,1.86,0,0,1-1.87-2h0a2.08,2.08,0,0,1,2-2h17.75a1.86,1.86,0,0,1,1.87,2h0A2.08,2.08,0,0,1,189.24,284.36Z" style="fill:#169544"></path><path d="M224.53,284.36H206.78a1.86,1.86,0,0,1-1.87-2h0a2.08,2.08,0,0,1,2.05-2H224.7a1.87,1.87,0,0,1,1.88,2h0A2.08,2.08,0,0,1,224.53,284.36Z" style="fill:#169544"></path><path d="M259.82,284.36H242.07a1.87,1.87,0,0,1-1.88-2h0a2.08,2.08,0,0,1,2.05-2H260a1.86,1.86,0,0,1,1.87,2h0A2.07,2.07,0,0,1,259.82,284.36Z" style="fill:#169544"></path><path d="M295.1,284.36H277.35a1.86,1.86,0,0,1-1.87-2h0a2.08,2.08,0,0,1,2-2h17.75a1.86,1.86,0,0,1,1.87,2h0A2.08,2.08,0,0,1,295.1,284.36Z" style="fill:#169544"></path><path d="M330.39,284.36H312.64a1.86,1.86,0,0,1-1.87-2h0a2.08,2.08,0,0,1,2.05-2h17.75a1.86,1.86,0,0,1,1.87,2h0A2.08,2.08,0,0,1,330.39,284.36Z" style="fill:#169544"></path><path d="M365.68,284.36H347.93a1.86,1.86,0,0,1-1.87-2h0a2.08,2.08,0,0,1,2.05-2h17.74a1.87,1.87,0,0,1,1.88,2h0A2.08,2.08,0,0,1,365.68,284.36Z" style="fill:#169544"></path><g style="opacity:0.30000000000000004"><path d="M189.24,284.36H171.49a1.86,1.86,0,0,1-1.87-2h0a2.08,2.08,0,0,1,2-2h17.75a1.86,1.86,0,0,1,1.87,2h0A2.08,2.08,0,0,1,189.24,284.36Z"></path><path d="M224.53,284.36H206.78a1.86,1.86,0,0,1-1.87-2h0a2.08,2.08,0,0,1,2.05-2H224.7a1.87,1.87,0,0,1,1.88,2h0A2.08,2.08,0,0,1,224.53,284.36Z"></path><path d="M259.82,284.36H242.07a1.87,1.87,0,0,1-1.88-2h0a2.08,2.08,0,0,1,2.05-2H260a1.86,1.86,0,0,1,1.87,2h0A2.07,2.07,0,0,1,259.82,284.36Z"></path><path d="M295.1,284.36H277.35a1.86,1.86,0,0,1-1.87-2h0a2.08,2.08,0,0,1,2-2h17.75a1.86,1.86,0,0,1,1.87,2h0A2.08,2.08,0,0,1,295.1,284.36Z"></path><path d="M330.39,284.36H312.64a1.86,1.86,0,0,1-1.87-2h0a2.08,2.08,0,0,1,2.05-2h17.75a1.86,1.86,0,0,1,1.87,2h0A2.08,2.08,0,0,1,330.39,284.36Z"></path><path d="M365.68,284.36H347.93a1.86,1.86,0,0,1-1.87-2h0a2.08,2.08,0,0,1,2.05-2h17.74a1.87,1.87,0,0,1,1.88,2h0A2.08,2.08,0,0,1,365.68,284.36Z"></path></g><path d="M190.22,322.13H167.1a3.73,3.73,0,0,1-3.74-3.92l1-23.12a4.16,4.16,0,0,1,4.1-3.92h23.12a3.73,3.73,0,0,1,3.74,3.92l-1,23.12A4.17,4.17,0,0,1,190.22,322.13Z" style="fill:#169544"></path><path d="M225.51,322.13H202.39a3.72,3.72,0,0,1-3.74-3.92l1-23.12a4.16,4.16,0,0,1,4.1-3.92H226.9a3.74,3.74,0,0,1,3.75,3.92l-1.05,23.12A4.15,4.15,0,0,1,225.51,322.13Z" style="fill:#169544"></path><path d="M260.79,322.13H237.68a3.74,3.74,0,0,1-3.75-3.92l1-23.12a4.16,4.16,0,0,1,4.1-3.92h23.11a3.72,3.72,0,0,1,3.74,3.92l-1,23.12A4.16,4.16,0,0,1,260.79,322.13Z" style="fill:#169544"></path><path d="M296.08,322.13H273a3.73,3.73,0,0,1-3.75-3.92l1-23.12a4.15,4.15,0,0,1,4.09-3.92h23.12a3.73,3.73,0,0,1,3.74,3.92l-1,23.12A4.16,4.16,0,0,1,296.08,322.13Z" style="fill:#169544"></path><path d="M331.37,322.13H308.25a3.73,3.73,0,0,1-3.74-3.92l1-23.12a4.16,4.16,0,0,1,4.1-3.92h23.11a3.73,3.73,0,0,1,3.75,3.92l-1,23.12A4.17,4.17,0,0,1,331.37,322.13Z" style="fill:#169544"></path><path d="M366.65,322.13H343.54a3.72,3.72,0,0,1-3.74-3.92l1-23.12a4.16,4.16,0,0,1,4.1-3.92h23.11a3.74,3.74,0,0,1,3.75,3.92l-1.05,23.12A4.15,4.15,0,0,1,366.65,322.13Z" style="fill:#169544"></path><g style="opacity:0.8"><path d="M190.22,322.13H167.1a3.73,3.73,0,0,1-3.74-3.92l1-23.12a4.16,4.16,0,0,1,4.1-3.92h23.12a3.73,3.73,0,0,1,3.74,3.92l-1,23.12A4.17,4.17,0,0,1,190.22,322.13Z" style="fill:#fafafa"></path><path d="M225.51,322.13H202.39a3.72,3.72,0,0,1-3.74-3.92l1-23.12a4.16,4.16,0,0,1,4.1-3.92H226.9a3.74,3.74,0,0,1,3.75,3.92l-1.05,23.12A4.15,4.15,0,0,1,225.51,322.13Z" style="fill:#fafafa"></path><path d="M260.79,322.13H237.68a3.74,3.74,0,0,1-3.75-3.92l1-23.12a4.16,4.16,0,0,1,4.1-3.92h23.11a3.72,3.72,0,0,1,3.74,3.92l-1,23.12A4.16,4.16,0,0,1,260.79,322.13Z" style="fill:#fafafa"></path><path d="M296.08,322.13H273a3.73,3.73,0,0,1-3.75-3.92l1-23.12a4.15,4.15,0,0,1,4.09-3.92h23.12a3.73,3.73,0,0,1,3.74,3.92l-1,23.12A4.16,4.16,0,0,1,296.08,322.13Z" style="fill:#fafafa"></path><path d="M331.37,322.13H308.25a3.73,3.73,0,0,1-3.74-3.92l1-23.12a4.16,4.16,0,0,1,4.1-3.92h23.11a3.73,3.73,0,0,1,3.75,3.92l-1,23.12A4.17,4.17,0,0,1,331.37,322.13Z" style="fill:#fafafa"></path><path d="M366.65,322.13H343.54a3.72,3.72,0,0,1-3.74-3.92l1-23.12a4.16,4.16,0,0,1,4.1-3.92h23.11a3.74,3.74,0,0,1,3.75,3.92l-1.05,23.12A4.15,4.15,0,0,1,366.65,322.13Z" style="fill:#fafafa"></path></g><path d="M188.6,358H165.48a3.73,3.73,0,0,1-3.74-3.92l1-23.12a4.17,4.17,0,0,1,4.1-3.92H190a3.73,3.73,0,0,1,3.74,3.92l-1,23.12A4.17,4.17,0,0,1,188.6,358Z" style="fill:#169544"></path><path d="M223.89,358H200.77a3.73,3.73,0,0,1-3.74-3.92l1-23.12a4.16,4.16,0,0,1,4.1-3.92h23.11A3.74,3.74,0,0,1,229,331L228,354.08A4.15,4.15,0,0,1,223.89,358Z" style="fill:#169544"></path><path d="M259.17,358H236.06a3.72,3.72,0,0,1-3.74-3.92l1-23.12a4.16,4.16,0,0,1,4.1-3.92h23.11a3.72,3.72,0,0,1,3.74,3.92l-1,23.12A4.16,4.16,0,0,1,259.17,358Z" style="fill:#169544"></path><path d="M294.46,358H271.35a3.74,3.74,0,0,1-3.75-3.92l1-23.12a4.15,4.15,0,0,1,4.09-3.92h23.12A3.73,3.73,0,0,1,299.6,331l-1,23.12A4.16,4.16,0,0,1,294.46,358Z" style="fill:#169544"></path><path d="M329.75,358H306.63a3.73,3.73,0,0,1-3.74-3.92l1-23.12A4.17,4.17,0,0,1,308,327h23.12a3.73,3.73,0,0,1,3.74,3.92l-1,23.12A4.17,4.17,0,0,1,329.75,358Z" style="fill:#169544"></path><path d="M365,358H341.92a3.72,3.72,0,0,1-3.74-3.92l1-23.12a4.16,4.16,0,0,1,4.1-3.92h23.11a3.74,3.74,0,0,1,3.75,3.92l-1.05,23.12A4.15,4.15,0,0,1,365,358Z" style="fill:#169544"></path><g style="opacity:0.8"><path d="M188.6,358H165.48a3.73,3.73,0,0,1-3.74-3.92l1-23.12a4.17,4.17,0,0,1,4.1-3.92H190a3.73,3.73,0,0,1,3.74,3.92l-1,23.12A4.17,4.17,0,0,1,188.6,358Z" style="fill:#fafafa"></path><path d="M223.89,358H200.77a3.73,3.73,0,0,1-3.74-3.92l1-23.12a4.16,4.16,0,0,1,4.1-3.92h23.11A3.74,3.74,0,0,1,229,331L228,354.08A4.15,4.15,0,0,1,223.89,358Z" style="fill:#fafafa"></path><path d="M259.17,358H236.06a3.72,3.72,0,0,1-3.74-3.92l1-23.12a4.16,4.16,0,0,1,4.1-3.92h23.11a3.72,3.72,0,0,1,3.74,3.92l-1,23.12A4.16,4.16,0,0,1,259.17,358Z" style="fill:#fafafa"></path><path d="M294.46,358H271.35a3.74,3.74,0,0,1-3.75-3.92l1-23.12a4.15,4.15,0,0,1,4.09-3.92h23.12A3.73,3.73,0,0,1,299.6,331l-1,23.12A4.16,4.16,0,0,1,294.46,358Z" style="fill:#fafafa"></path><path d="M329.75,358H306.63a3.73,3.73,0,0,1-3.74-3.92l1-23.12A4.17,4.17,0,0,1,308,327h23.12a3.73,3.73,0,0,1,3.74,3.92l-1,23.12A4.17,4.17,0,0,1,329.75,358Z" style="fill:#fafafa"></path><path d="M365,358H341.92a3.72,3.72,0,0,1-3.74-3.92l1-23.12a4.16,4.16,0,0,1,4.1-3.92h23.11a3.74,3.74,0,0,1,3.75,3.92l-1.05,23.12A4.15,4.15,0,0,1,365,358Z" style="fill:#fafafa"></path></g><path d="M187,393.86H163.86a3.72,3.72,0,0,1-3.74-3.92l1-23.11a4.16,4.16,0,0,1,4.1-3.92h23.12a3.72,3.72,0,0,1,3.74,3.92l-1,23.11A4.15,4.15,0,0,1,187,393.86Z" style="fill:#169544"></path><path d="M222.27,393.86H199.15a3.72,3.72,0,0,1-3.74-3.92l1-23.11a4.15,4.15,0,0,1,4.1-3.92h23.11a3.72,3.72,0,0,1,3.75,3.92l-1,23.11A4.14,4.14,0,0,1,222.27,393.86Z" style="fill:#169544"></path><path d="M257.55,393.86H234.44a3.72,3.72,0,0,1-3.74-3.92l1-23.11a4.15,4.15,0,0,1,4.1-3.92H259a3.73,3.73,0,0,1,3.75,3.92l-1.05,23.11A4.15,4.15,0,0,1,257.55,393.86Z" style="fill:#169544"></path><path d="M292.84,393.86H269.73a3.73,3.73,0,0,1-3.75-3.92l1-23.11a4.14,4.14,0,0,1,4.09-3.92h23.12a3.72,3.72,0,0,1,3.74,3.92l-1,23.11A4.15,4.15,0,0,1,292.84,393.86Z" style="fill:#169544"></path><path d="M328.13,393.86H305a3.72,3.72,0,0,1-3.74-3.92l1-23.11a4.16,4.16,0,0,1,4.1-3.92h23.12a3.72,3.72,0,0,1,3.74,3.92l-1,23.11A4.16,4.16,0,0,1,328.13,393.86Z" style="fill:#169544"></path><path d="M363.42,393.86H340.3a3.72,3.72,0,0,1-3.74-3.92l1-23.11a4.15,4.15,0,0,1,4.1-3.92h23.11a3.73,3.73,0,0,1,3.75,3.92l-1.05,23.11A4.14,4.14,0,0,1,363.42,393.86Z" style="fill:#169544"></path><g style="opacity:0.8"><path d="M187,393.86H163.86a3.72,3.72,0,0,1-3.74-3.92l1-23.11a4.16,4.16,0,0,1,4.1-3.92h23.12a3.72,3.72,0,0,1,3.74,3.92l-1,23.11A4.15,4.15,0,0,1,187,393.86Z" style="fill:#fafafa"></path><path d="M222.27,393.86H199.15a3.72,3.72,0,0,1-3.74-3.92l1-23.11a4.15,4.15,0,0,1,4.1-3.92h23.11a3.72,3.72,0,0,1,3.75,3.92l-1,23.11A4.14,4.14,0,0,1,222.27,393.86Z" style="fill:#fafafa"></path><path d="M257.55,393.86H234.44a3.72,3.72,0,0,1-3.74-3.92l1-23.11a4.15,4.15,0,0,1,4.1-3.92H259a3.73,3.73,0,0,1,3.75,3.92l-1.05,23.11A4.15,4.15,0,0,1,257.55,393.86Z" style="fill:#fafafa"></path><path d="M292.84,393.86H269.73a3.73,3.73,0,0,1-3.75-3.92l1-23.11a4.14,4.14,0,0,1,4.09-3.92h23.12a3.72,3.72,0,0,1,3.74,3.92l-1,23.11A4.15,4.15,0,0,1,292.84,393.86Z" style="fill:#fafafa"></path><path d="M328.13,393.86H305a3.72,3.72,0,0,1-3.74-3.92l1-23.11a4.16,4.16,0,0,1,4.1-3.92h23.12a3.72,3.72,0,0,1,3.74,3.92l-1,23.11A4.16,4.16,0,0,1,328.13,393.86Z" style="fill:#fafafa"></path><path d="M363.42,393.86H340.3a3.72,3.72,0,0,1-3.74-3.92l1-23.11a4.15,4.15,0,0,1,4.1-3.92h23.11a3.73,3.73,0,0,1,3.75,3.92l-1.05,23.11A4.14,4.14,0,0,1,363.42,393.86Z" style="fill:#fafafa"></path></g><path d="M180.45,272.44c-8.52,0-15.2-9.91-15.2-22.56s6.68-22.55,15.2-22.55,15.21,9.91,15.21,22.55a2.34,2.34,0,0,1-4.67,0c0-9.69-4.82-17.89-10.54-17.89s-10.54,8.2-10.54,17.89,4.83,17.89,10.54,17.89a2.34,2.34,0,1,1,0,4.67Z" style="fill:#169544"></path><path d="M215.74,272.44c-8.52,0-15.2-9.91-15.2-22.56s6.68-22.55,15.2-22.55S231,237.24,231,249.88a2.34,2.34,0,0,1-4.67,0c0-9.69-4.82-17.89-10.54-17.89s-10.54,8.2-10.54,17.89,4.83,17.89,10.54,17.89a2.34,2.34,0,0,1,0,4.67Z" style="fill:#169544"></path><path d="M251,272.44c-8.53,0-15.21-9.91-15.21-22.56s6.68-22.55,15.21-22.55,15.2,9.91,15.2,22.55a2.33,2.33,0,0,1-4.66,0c0-9.69-4.83-17.89-10.54-17.89s-10.54,8.2-10.54,17.89,4.83,17.89,10.54,17.89a2.34,2.34,0,0,1,0,4.67Z" style="fill:#169544"></path><path d="M286.32,272.44c-8.53,0-15.21-9.91-15.21-22.56s6.68-22.55,15.21-22.55,15.2,9.91,15.2,22.55a2.33,2.33,0,0,1-4.66,0c0-9.69-4.83-17.89-10.54-17.89s-10.54,8.2-10.54,17.89,4.82,17.89,10.54,17.89a2.34,2.34,0,0,1,0,4.67Z" style="fill:#169544"></path><path d="M321.6,272.44c-8.52,0-15.2-9.91-15.2-22.56s6.68-22.55,15.2-22.55,15.21,9.91,15.21,22.55a2.34,2.34,0,0,1-4.67,0c0-9.69-4.82-17.89-10.54-17.89s-10.54,8.2-10.54,17.89,4.83,17.89,10.54,17.89a2.34,2.34,0,1,1,0,4.67Z" style="fill:#169544"></path><path d="M356.89,272.44c-8.52,0-15.2-9.91-15.2-22.56s6.68-22.55,15.2-22.55,15.21,9.91,15.21,22.55a2.34,2.34,0,0,1-4.67,0c0-9.69-4.83-17.89-10.54-17.89s-10.54,8.2-10.54,17.89,4.83,17.89,10.54,17.89a2.34,2.34,0,0,1,0,4.67Z" style="fill:#169544"></path><g style="opacity:0.30000000000000004"><path d="M180.45,272.44c-8.52,0-15.2-9.91-15.2-22.56s6.68-22.55,15.2-22.55,15.21,9.91,15.21,22.55a2.34,2.34,0,0,1-4.67,0c0-9.69-4.82-17.89-10.54-17.89s-10.54,8.2-10.54,17.89,4.83,17.89,10.54,17.89a2.34,2.34,0,1,1,0,4.67Z"></path><path d="M215.74,272.44c-8.52,0-15.2-9.91-15.2-22.56s6.68-22.55,15.2-22.55S231,237.24,231,249.88a2.34,2.34,0,0,1-4.67,0c0-9.69-4.82-17.89-10.54-17.89s-10.54,8.2-10.54,17.89,4.83,17.89,10.54,17.89a2.34,2.34,0,0,1,0,4.67Z"></path><path d="M251,272.44c-8.53,0-15.21-9.91-15.21-22.56s6.68-22.55,15.21-22.55,15.2,9.91,15.2,22.55a2.33,2.33,0,0,1-4.66,0c0-9.69-4.83-17.89-10.54-17.89s-10.54,8.2-10.54,17.89,4.83,17.89,10.54,17.89a2.34,2.34,0,0,1,0,4.67Z"></path><path d="M286.32,272.44c-8.53,0-15.21-9.91-15.21-22.56s6.68-22.55,15.21-22.55,15.2,9.91,15.2,22.55a2.33,2.33,0,0,1-4.66,0c0-9.69-4.83-17.89-10.54-17.89s-10.54,8.2-10.54,17.89,4.82,17.89,10.54,17.89a2.34,2.34,0,0,1,0,4.67Z"></path><path d="M321.6,272.44c-8.52,0-15.2-9.91-15.2-22.56s6.68-22.55,15.2-22.55,15.21,9.91,15.21,22.55a2.34,2.34,0,0,1-4.67,0c0-9.69-4.82-17.89-10.54-17.89s-10.54,8.2-10.54,17.89,4.83,17.89,10.54,17.89a2.34,2.34,0,1,1,0,4.67Z"></path><path d="M356.89,272.44c-8.52,0-15.2-9.91-15.2-22.56s6.68-22.55,15.2-22.55,15.21,9.91,15.21,22.55a2.34,2.34,0,0,1-4.67,0c0-9.69-4.83-17.89-10.54-17.89s-10.54,8.2-10.54,17.89,4.83,17.89,10.54,17.89a2.34,2.34,0,0,1,0,4.67Z"></path></g><path d="M288.68,323.42c-8.16-1.62-17.32.27-20.59,8.87-2.63,6.92.74,14.42,8,16.25,6.4,1.61,17.44-.36,19.72-7.74,2.61-8.44-8-11.18-13.95-11.68-1.79-.15-1.78,2.65,0,2.8,2.71.23,5.81.38,8.21,1.87,5,3.13,2.94,8.15-1.32,10.55s-10.79,3-15,.34c-4.6-2.93-4.75-9.37-2-13.57,3.61-5.55,10.2-6.17,16.14-5,1.76.35,2.51-2.35.74-2.7Z" style="fill:#169544"></path><path d="M288.68,323.42c-8.16-1.62-17.32.27-20.59,8.87-2.63,6.92.74,14.42,8,16.25,6.4,1.61,17.44-.36,19.72-7.74,2.61-8.44-8-11.18-13.95-11.68-1.79-.15-1.78,2.65,0,2.8,2.71.23,5.81.38,8.21,1.87,5,3.13,2.94,8.15-1.32,10.55s-10.79,3-15,.34c-4.6-2.93-4.75-9.37-2-13.57,3.61-5.55,10.2-6.17,16.14-5,1.76.35,2.51-2.35.74-2.7Z" style="fill:#fafafa;opacity:0.1"></path><path d="M198.65,291.21a220.55,220.55,0,0,0,26,28.8c1.32,1.23,3.31-.75,2-2a217.28,217.28,0,0,1-25.57-28.23c-1.07-1.42-3.5,0-2.41,1.41Z" style="fill:#169544"></path><path d="M201.54,318.84c5.9-10.49,16.23-19.44,26-26.29,1.46-1,.07-3.46-1.41-2.42-10.16,7.14-20.84,16.36-27,27.29a1.4,1.4,0,0,0,2.41,1.42Z" style="fill:#169544"></path><g style="opacity:0.2"><path d="M198.65,291.21a220.55,220.55,0,0,0,26,28.8c1.32,1.23,3.31-.75,2-2a217.28,217.28,0,0,1-25.57-28.23c-1.07-1.42-3.5,0-2.41,1.41Z"></path><path d="M201.54,318.84c5.9-10.49,16.23-19.44,26-26.29,1.46-1,.07-3.46-1.41-2.42-10.16,7.14-20.84,16.36-27,27.29a1.4,1.4,0,0,0,2.41,1.42Z"></path></g><path d="M309.87,300.16h18.25a1.4,1.4,0,0,0,0-2.79H309.87a1.4,1.4,0,0,0,0,2.79Z" style="fill:#169544"></path><path d="M309.66,305.35h10.58a1.4,1.4,0,0,0,0-2.8H309.66a1.4,1.4,0,0,0,0,2.8Z" style="fill:#169544"></path><g style="opacity:0.1"><path d="M309.87,300.16h18.25a1.4,1.4,0,0,0,0-2.79H309.87a1.4,1.4,0,0,0,0,2.79Z" style="fill:#fafafa"></path><path d="M309.66,305.35h10.58a1.4,1.4,0,0,0,0-2.8H309.66a1.4,1.4,0,0,0,0,2.8Z" style="fill:#fafafa"></path></g><path d="M200.56,371.8h15.65a1.4,1.4,0,0,0,0-2.8H200.56a1.4,1.4,0,0,0,0,2.8Z" style="fill:#169544"></path><path d="M200,377.81H220.3a1.4,1.4,0,0,0,0-2.8H200a1.4,1.4,0,0,0,0,2.8Z" style="fill:#169544"></path><path d="M200,384h10.15a1.4,1.4,0,0,0,0-2.8H200a1.4,1.4,0,0,0,0,2.8Z" style="fill:#169544"></path><g style="opacity:0.1"><path d="M200.56,371.8h15.65a1.4,1.4,0,0,0,0-2.8H200.56a1.4,1.4,0,0,0,0,2.8Z" style="fill:#fafafa"></path><path d="M200,377.81H220.3a1.4,1.4,0,0,0,0-2.8H200a1.4,1.4,0,0,0,0,2.8Z" style="fill:#fafafa"></path><path d="M200,384h10.15a1.4,1.4,0,0,0,0-2.8H200a1.4,1.4,0,0,0,0,2.8Z" style="fill:#fafafa"></path></g></g></svg>