<svg width="106" height="45" viewBox="0 0 106 45" fill="none" xmlns="http://www.w3.org/2000/svg">
<g clip-path="url(#clip0_4300_4956)">
<path d="M0.560547 30.7856C0.925201 30.7378 1.29379 30.7381 1.65326 30.681C1.93998 30.6354 2.06924 30.3884 2.15871 30.1307C2.58729 28.8959 3.01115 27.6596 3.44669 26.4273C4.44957 23.5898 5.45724 20.7541 6.46493 17.9183C7.12268 16.0674 7.77932 14.216 8.44497 12.3679C8.97939 10.8841 9.5301 9.40617 10.0663 7.92302C10.2601 7.38693 10.4307 6.84245 10.6172 6.30365C10.648 6.21458 10.7064 6.13507 10.7521 6.05114C10.783 6.05102 10.8139 6.0509 10.8448 6.05078C11.0027 6.4091 11.1669 6.76481 11.3175 7.12616C12.1666 9.16338 13.0136 11.2015 13.8592 13.2402C14.7162 15.3061 15.5675 17.3743 16.4273 19.4389C17.2352 21.3788 18.0469 23.3171 18.8646 25.2529C19.4711 26.6887 20.0898 28.1193 20.7031 29.5522C20.7108 29.57 20.7185 29.5878 20.7262 29.6056C21.065 30.3864 21.5925 30.8817 22.5112 30.7991C22.6843 30.7835 22.86 30.7996 23.0345 30.7968C23.2215 30.7938 23.329 30.8701 23.3313 31.0687C23.3337 31.273 23.1983 31.3043 23.0398 31.3053C22.2349 31.3103 21.43 31.3197 20.6251 31.3173C18.8117 31.3119 16.9983 31.3008 15.1849 31.2906C15.0689 31.29 14.9521 31.2849 14.8373 31.2697C14.676 31.2483 14.5742 31.1424 14.6298 30.9898C14.6623 30.9007 14.7888 30.7923 14.8791 30.7865C15.3816 30.7539 15.8862 30.7373 16.3898 30.7414C16.6735 30.7437 16.7645 30.621 16.6954 30.3709C16.6339 30.1483 16.5495 29.931 16.4627 29.7165C15.6788 27.7785 14.8884 25.8432 14.1106 23.9028C14.0033 23.6352 13.8626 23.5168 13.5587 23.5188C11.9589 23.529 10.3589 23.5175 8.75891 23.5135C7.68249 23.5107 6.60597 23.5151 5.52972 23.5003C5.24933 23.4964 5.10696 23.5671 5.00815 23.8607C4.52976 25.2823 4.00634 26.6886 3.52468 28.1091C3.29804 28.7775 3.12283 29.4638 2.93707 30.1454C2.82976 30.5392 2.95694 30.715 3.37062 30.734C3.95147 30.7606 4.53394 30.7536 5.11443 30.7849C5.21606 30.7904 5.37167 30.8954 5.3981 30.9852C5.47206 31.2363 5.38299 31.3131 5.08851 31.3128C3.73089 31.3114 2.37328 31.3093 1.01567 31.3082C0.880044 31.3081 0.744417 31.3132 0.584669 31.3301C0.560547 31.2823 0.560547 31.2202 0.586732 31.1348C1.3276 31.1127 2.04235 31.1088 2.75695 31.1172C3.10506 31.1213 3.45274 31.1562 3.80089 31.1631C4.24669 31.1719 4.69281 31.169 5.13869 31.1631C5.18141 31.1626 5.24924 31.1113 5.25808 31.0728C5.2661 31.0378 5.21433 30.955 5.18066 30.9501C4.99131 30.9226 4.79975 30.9063 4.60842 30.8971C4.12061 30.8737 3.62514 30.8993 3.1476 30.818C2.90164 30.7761 2.68738 30.5481 2.49417 30.4264C2.5984 30.3389 2.77549 30.2644 2.8128 30.1459C2.96991 29.6469 2.98879 29.1139 3.17751 28.6182C3.38613 28.0701 3.57486 27.5145 3.76892 26.961C3.94371 26.4625 4.11363 25.9623 4.28638 25.4631C4.42575 25.0604 4.56803 24.6586 4.70546 24.2552C4.81389 23.9369 4.91691 23.6167 5.0211 23.3012C5.05433 23.2996 5.13561 23.3014 5.21527 23.2909C5.3345 23.2752 5.45291 23.2332 5.57106 23.2354C5.67286 23.2372 5.77514 23.3129 5.87494 23.3081C6.49365 23.2787 7.116 23.387 7.73237 23.2588C7.79445 23.2459 7.86538 23.2692 7.93114 23.2815C8.07914 23.3091 8.2262 23.3417 8.37413 23.3697C8.90112 23.4696 9.41068 23.2548 9.95982 23.3424C10.669 23.4555 11.4099 23.3756 12.137 23.3638C12.2531 23.3619 12.3679 23.2814 12.4833 23.2373C12.4735 23.2013 12.4636 23.1653 12.4538 23.1293C12.1089 23.1132 11.7639 23.0827 11.4191 23.0849C11.0238 23.0874 10.6287 23.137 10.2337 23.1339C9.47349 23.1279 8.7135 23.0949 7.95326 23.0814C7.4783 23.0729 7.00296 23.085 6.52806 23.075C6.43927 23.0731 6.35178 23.0101 6.28931 22.965C8.62308 22.9553 10.9312 22.9568 13.2394 22.9554C13.5658 22.9552 13.6017 22.9004 13.4843 22.5965C13.3134 22.1535 13.1362 21.713 12.9613 21.2716C11.8164 18.3831 10.6722 15.4944 9.52494 12.6069C9.45066 12.4199 9.35302 12.2422 9.23261 11.9897C9.14275 12.2043 9.08469 12.3259 9.04005 12.4522C8.65305 13.5474 8.27397 14.6455 7.882 15.739C7.07189 17.9989 6.25277 20.2556 5.4478 22.5174C5.40082 22.6494 5.44665 22.8144 5.44647 22.9848C5.15822 23.1641 5.20172 22.9102 5.2261 22.7992C5.29162 22.5008 5.38398 22.2063 5.48998 21.9193C5.63749 21.5198 5.81633 21.1319 5.96472 20.7327C6.11798 20.3205 6.2426 19.8975 6.3946 19.4848C6.61244 18.8931 6.85508 18.3105 7.06632 17.7167C7.30557 17.0441 7.51777 16.3619 7.74937 15.6866C7.93064 15.158 8.12452 14.6338 8.31089 14.107C8.39816 13.8603 8.60662 13.6435 8.50171 13.3484C8.79999 13.2489 8.51378 12.9509 8.68271 12.8035C8.69088 12.7963 8.64669 12.7292 8.62688 12.6901C8.57886 12.7239 8.50694 12.7477 8.48769 12.7935C8.44451 12.8965 8.44767 13.0213 8.39547 13.1175C8.29874 13.2956 8.11898 13.4577 8.4918 13.6693C8.12397 13.6415 8.06012 13.8227 8.00233 14.0313C7.95203 14.2129 7.83213 14.3792 7.80289 14.5618C7.74941 14.8958 7.3762 15.1755 7.60212 15.4841C7.48032 15.6719 7.37434 15.8079 7.29836 15.9589C7.18623 16.1819 7.18711 16.4325 7.05718 16.671C6.82363 17.0998 6.72152 17.5994 6.55737 18.067C6.30139 18.796 6.0431 19.5244 5.77914 20.2506C5.44881 21.1595 5.09545 22.0604 4.78775 22.9768C4.69772 23.2449 4.52915 23.5411 4.73145 23.8608C4.64376 23.8608 4.5653 23.8608 4.46897 23.8608C4.59748 24.2226 4.01009 24.449 4.3427 24.8051C4.25007 24.8808 4.15155 24.9234 4.11805 24.996C4.02353 25.2009 3.95295 25.4171 3.8779 25.6306C3.68951 26.1665 3.50306 26.703 3.31729 27.2398C3.05783 27.9896 2.80073 28.7401 2.54047 29.4896C2.4411 29.7758 2.36383 30.0745 2.22471 30.3405C2.10461 30.57 1.91109 30.7612 1.76388 30.9514C1.34176 30.801 0.95284 30.957 0.560547 30.9951C0.560547 30.9331 0.560547 30.871 0.560547 30.7856ZM9.02737 12.0259C9.09588 11.9341 9.1644 11.8422 9.2651 11.7072C9.22311 11.6053 9.15516 11.4404 9.08722 11.2754C9.02446 11.4016 9.04621 11.5116 9.00922 11.5957C8.91889 11.8013 8.82382 12.012 8.68926 12.1892C8.51167 12.423 8.63918 12.5021 8.84756 12.5949C8.90462 12.4112 8.95781 12.2399 9.02737 12.0259ZM12.7595 23.2583C12.9655 23.4325 13.3292 23.4188 13.5455 23.1953C13.2588 23.1347 13.005 23.0631 12.7595 23.2583Z" fill="#FAFAFA"/>
<path d="M0.560547 31.0159C0.95284 30.9583 1.34176 30.8023 1.76388 30.9528C1.91109 30.7625 2.10461 30.5714 2.22471 30.3418C2.36383 30.0759 2.4411 29.7771 2.54047 29.491C2.80073 28.7415 3.05783 27.9909 3.31729 27.2412C3.50306 26.7044 3.68951 26.1678 3.8779 25.6319C3.95295 25.4185 4.02353 25.2022 4.11805 24.9974C4.15155 24.9248 4.25007 24.8822 4.3427 24.8064C4.01009 24.4503 4.59748 24.2239 4.46897 23.8621C4.5653 23.8621 4.64376 23.8621 4.73145 23.8621C4.52915 23.5424 4.69772 23.2462 4.78775 22.9781C5.09545 22.0618 5.44881 21.1608 5.77914 20.252C6.0431 19.5257 6.30139 18.7974 6.55737 18.0683C6.72152 17.6008 6.82363 17.1012 7.05718 16.6724C7.18711 16.4339 7.18623 16.1832 7.29836 15.9603C7.37434 15.8092 7.48032 15.6732 7.60212 15.4854C7.3762 15.1768 7.74941 14.8972 7.80289 14.5632C7.83213 14.3805 7.95203 14.2143 8.00233 14.0327C8.06012 13.824 8.12397 13.6429 8.4918 13.6707C8.11898 13.4591 8.29874 13.2969 8.39547 13.1188C8.44767 13.0227 8.44451 12.8978 8.48769 12.7949C8.50694 12.749 8.57886 12.7252 8.62688 12.6914C8.64669 12.7306 8.69088 12.7977 8.68271 12.8048C8.51378 12.9523 8.79999 13.2503 8.50171 13.3497C8.60662 13.6449 8.39816 13.8616 8.31089 14.1083C8.12452 14.6351 7.93064 15.1594 7.74937 15.6879C7.51777 16.3633 7.30557 17.0454 7.06632 17.718C6.85508 18.3119 6.61244 18.8945 6.3946 19.4861C6.2426 19.8989 6.11798 20.3218 5.96472 20.7341C5.81633 21.1333 5.63749 21.5212 5.48998 21.9206C5.38398 22.2077 5.29162 22.5022 5.2261 22.8006C5.20172 22.9116 5.15822 23.1655 5.46845 22.9799C5.53767 22.9593 5.58207 22.9659 5.6349 22.9894C5.71456 22.9953 5.78579 22.9842 5.88125 22.9639C6.02488 22.9621 6.14428 22.9694 6.26369 22.9767C6.35178 23.0115 6.43927 23.0745 6.52806 23.0764C7.00296 23.0864 7.4783 23.0743 7.95326 23.0827C8.7135 23.0962 9.47349 23.1292 10.2337 23.1353C10.6287 23.1384 11.0238 23.0888 11.4191 23.0863C11.7639 23.0841 12.1089 23.1146 12.4538 23.1306C12.4636 23.1666 12.4735 23.2026 12.4833 23.2386C12.3679 23.2828 12.2531 23.3633 12.137 23.3651C11.4099 23.377 10.669 23.4568 9.95982 23.3437C9.41068 23.2562 8.90112 23.4709 8.37413 23.3711C8.2262 23.343 8.07914 23.3104 7.93114 23.2829C7.86538 23.2706 7.79445 23.2473 7.73237 23.2602C7.116 23.3884 6.49365 23.2801 5.87494 23.3095C5.77514 23.3142 5.67286 23.2386 5.57106 23.2367C5.45291 23.2346 5.3345 23.2765 5.21527 23.2923C5.13561 23.3028 5.05433 23.301 5.0211 23.3025C4.91691 23.6181 4.81389 23.9382 4.70546 24.2566C4.56803 24.66 4.42575 25.0617 4.28638 25.4645C4.11363 25.9637 3.94371 26.4639 3.76892 26.9624C3.57486 27.5159 3.38613 28.0715 3.17751 28.6195C2.98879 29.1152 2.96991 29.6483 2.8128 30.1472C2.77549 30.2657 2.5984 30.3402 2.49417 30.4278C2.68738 30.5494 2.90164 30.7775 3.1476 30.8194C3.62514 30.9006 4.12061 30.875 4.60842 30.8985C4.79975 30.9077 4.99131 30.9239 5.18066 30.9515C5.21433 30.9564 5.2661 31.0391 5.25808 31.0741C5.24924 31.1127 5.18141 31.1639 5.13869 31.1645C4.69281 31.1704 4.24669 31.1733 3.80089 31.1645C3.45274 31.1576 3.10506 31.1226 2.75695 31.1185C2.04235 31.1101 1.3276 31.1141 0.586732 31.1129C0.560547 31.087 0.560547 31.0612 0.560547 31.0159Z" fill="#FAFAFA"/>
<path d="M65.2223 31.3108C64.8537 31.3109 64.5143 31.3123 64.1748 31.3106C64.0082 31.3098 63.8597 31.2847 63.86 31.0635C63.8602 30.8318 64.0224 30.8401 64.182 30.8321C64.5494 30.8136 64.9216 30.8221 65.2826 30.763C65.8923 30.6631 66.2224 30.2917 66.2479 29.6749C66.2759 28.9971 66.2671 28.3176 66.2661 27.6389C66.2617 24.6616 66.2623 21.6843 66.2393 18.7071C66.236 18.2806 66.1716 17.8349 66.0313 17.4345C65.8742 16.986 65.4985 16.7335 64.9922 16.7331C64.7498 16.7329 64.5069 16.7291 64.2654 16.7112C64.0948 16.6986 63.8547 16.7574 63.8478 16.4772C63.84 16.1596 64.1069 16.2396 64.2764 16.239C65.9543 16.2334 67.6322 16.239 69.31 16.241C70.0179 16.2418 70.7258 16.2405 71.4336 16.2425C71.593 16.2429 71.7569 16.2435 71.7552 16.4749C71.7535 16.7116 71.5812 16.6936 71.4266 16.6973C70.9807 16.7081 70.5346 16.723 70.0887 16.7216C69.8707 16.721 69.779 16.7904 69.7796 17.0246C69.7912 21.302 69.7962 25.5793 69.8032 29.8567C69.8034 29.9633 69.8011 30.0715 69.8178 30.1761C69.8656 30.4768 69.9958 30.7209 70.3341 30.7537C70.7376 30.7928 71.1431 30.8128 71.548 30.8364C71.706 30.8456 71.8711 30.8283 71.8738 31.062C71.8767 31.3085 71.7085 31.3072 71.535 31.3073C69.4404 31.3081 67.3459 31.3095 65.2223 31.3108Z" fill="#FAFAFA"/>
<path d="M30.2551 19.0998C29.9478 19.8225 29.8194 20.5633 29.7428 21.3164C29.5449 23.2637 29.909 25.1141 30.7109 26.8864C31.0471 27.6293 31.4348 28.3399 31.9787 28.9609C32.8323 29.9356 34.2715 30.3479 35.5007 29.9361C36.3715 29.6443 36.7964 28.9541 37.039 28.1339C37.1674 27.6998 37.2298 27.2454 37.3076 26.7976C37.3438 26.5888 37.4116 26.4527 37.6563 26.4668C37.8926 26.4805 37.9079 26.6335 37.9047 26.8109C37.8645 28.9717 36.4654 31.1093 34.1682 31.5303C31.6254 31.9964 29.4305 31.2701 27.695 29.3146C26.6331 28.118 25.9874 26.7137 25.7515 25.1314C25.5155 23.548 25.5522 21.9826 26.1322 20.4624C26.9799 18.2401 28.489 16.7368 30.8375 16.1705C32.3319 15.8102 33.8305 15.7792 35.311 16.2635C36.5582 16.6715 37.4424 17.5303 38.1615 18.5884C38.3314 18.8384 38.4975 19.091 38.6654 19.3423C38.6923 19.3349 38.7193 19.3275 38.7463 19.3202C38.7565 19.2226 38.7752 19.1251 38.7758 19.0275C38.7961 15.8369 38.8149 12.6463 38.8333 9.45574C38.8374 8.73801 38.8473 8.02015 38.8374 7.30259C38.834 7.05298 38.793 6.8013 38.744 6.55558C38.6833 6.25099 38.4322 6.02574 38.1224 5.98594C37.7572 5.93905 37.3904 5.90441 37.0238 5.86954C36.8646 5.8544 36.7306 5.81658 36.7306 5.62227C36.7306 5.4249 36.8418 5.35479 37.0304 5.35547C38.7569 5.3617 40.4834 5.36677 42.2099 5.36595C42.5229 5.36581 42.5392 5.56108 42.5393 5.79342C42.5403 7.96618 42.5456 10.1389 42.5462 12.3117C42.5481 18.1025 42.5474 23.8933 42.55 29.6841C42.5504 30.6554 42.6624 30.7667 43.6267 30.7947C43.8593 30.8014 44.0926 30.8096 44.3247 30.7986C44.53 30.7889 44.6402 30.8619 44.6417 31.0742C44.6432 31.2934 44.4936 31.3196 44.3261 31.3214C44.1418 31.3235 43.9574 31.3205 43.7732 31.3252C42.2805 31.3629 40.7879 31.4022 39.2952 31.4401C38.8234 31.452 38.8237 31.4507 38.8236 30.9902C38.8235 29.3315 38.8348 27.6727 38.8195 26.0142C38.8052 24.4632 38.7689 22.9122 38.7261 21.3616C38.7195 21.125 38.6588 20.8769 38.5667 20.6578C38.0922 19.5295 37.4628 18.4979 36.5131 17.7047C35.5377 16.89 34.3912 16.5465 33.131 16.6688C31.8292 16.7952 30.9401 17.5168 30.4147 18.7019C30.3599 18.8256 30.3131 18.953 30.2551 19.0998ZM38.9255 6.53468C38.9411 6.85878 38.9699 7.18286 38.9701 7.50697C38.9723 11.0949 38.9718 14.6829 38.9667 18.2709C38.9662 18.6626 38.9365 19.0545 38.909 19.4456C38.9045 19.5094 38.8531 19.5919 38.799 19.6223C38.7637 19.6421 38.6736 19.5956 38.6272 19.5562C38.5624 19.5012 38.5169 19.4239 38.4605 19.3584C38.3841 19.2699 38.3051 19.1836 38.1735 19.0361C38.0448 18.4532 37.5603 18.0208 37.0519 17.5198C37.1143 17.7732 37.1091 17.9981 37.2152 18.1392C37.6026 18.6541 38.0459 19.1273 38.31 19.7279C38.4651 20.0808 38.7063 20.415 38.7747 20.7826C38.8939 21.4233 38.9558 22.083 38.9605 22.7353C38.98 25.4697 38.9691 28.2044 38.9704 30.9391C38.9705 31.0496 38.9807 31.16 38.987 31.2859C39.2923 31.2859 39.5603 31.295 39.8275 31.2841C40.6091 31.2523 41.3901 31.2018 42.1719 31.1792C42.7823 31.1615 43.3936 31.175 44.0045 31.174C44.1208 31.1738 44.2383 31.1794 44.3528 31.1641C44.3989 31.1579 44.4385 31.1025 44.481 31.0696C44.4378 31.0274 44.4011 30.9641 44.3497 30.9482C44.2785 30.9262 44.1962 30.9414 44.1187 30.9377C43.733 30.9189 43.3464 30.9094 42.9619 30.8761C42.7096 30.8542 42.5158 30.7103 42.4734 30.4549C42.4278 30.18 42.4124 29.8971 42.4139 29.6179C42.4255 27.4572 42.4478 25.2965 42.4582 23.1359C42.4605 22.6723 42.4148 22.2086 42.4138 21.7448C42.4087 19.5278 42.4186 17.3107 42.4097 15.0936C42.3973 11.9927 42.3701 8.89187 42.3588 5.79094C42.3579 5.55292 42.2797 5.4908 42.0573 5.5015C41.7283 5.51732 41.3981 5.50551 41.0139 5.50396C40.3266 5.51529 39.6392 5.51996 38.9522 5.53984C38.2841 5.55919 37.6113 5.41942 36.9412 5.60676C37.2593 5.71006 37.5813 5.77584 37.9056 5.79167C38.3989 5.81576 38.7553 6.00363 38.9255 6.53468ZM33.0075 16.0935C32.1259 16.0431 31.271 16.1983 30.4302 16.4417C29.7438 16.6404 29.0997 16.9456 28.5343 17.3786C27.415 18.2358 26.6593 19.3579 26.214 20.6954C25.8621 21.7522 25.7408 22.8262 25.7978 23.9425C25.8346 24.6624 25.919 25.3669 26.1067 26.0539C26.3846 27.0712 26.8673 27.9831 27.5124 28.8331C27.9443 29.4021 28.4256 29.904 28.9923 30.3044C30.2617 31.2013 31.7028 31.595 33.2529 31.5098C33.9474 31.4716 34.6251 31.3143 35.2606 30.9842C35.7204 30.7454 36.1138 30.4481 36.4378 30.0504C36.5132 29.9579 36.5884 29.8651 36.6636 29.7725C36.6456 29.754 36.6275 29.7355 36.6094 29.7169C36.6707 29.7113 36.732 29.7057 36.8085 29.6987C36.7799 29.6277 36.7599 29.5779 36.7672 29.5962C36.8654 29.4617 36.9436 29.3714 37.0026 29.2699C37.1027 29.0977 37.2357 28.9642 37.2246 28.7117C37.216 28.5145 37.4748 28.3198 37.5299 28.1025C37.6356 27.6852 37.6871 27.2535 37.7441 26.8255C37.7515 26.77 37.6585 26.7011 37.612 26.6384C37.57 26.6957 37.5052 26.7476 37.4904 26.8112C37.4484 26.9915 37.429 27.1769 37.3967 27.3595C37.2639 28.1105 37.0357 28.8325 36.5423 29.4235C35.9598 30.1214 34.3825 30.4785 33.5307 30.156C32.5678 29.7914 31.7944 29.1848 31.2908 28.288C30.9058 27.6025 30.5527 26.8929 30.2587 26.1644C30.0232 25.581 29.869 24.9594 29.7333 24.3427C29.6387 23.9129 29.6426 23.462 29.5916 23.0218C29.4772 22.0339 29.5542 21.0554 29.7882 20.0958C29.9165 19.5699 30.107 19.0546 30.3161 18.554C30.6482 17.7587 31.1855 17.1203 31.9997 16.7979C32.9714 16.4131 33.9732 16.3866 34.9749 16.7171C35.241 16.805 35.5102 16.9154 35.7436 16.5998C35.6168 16.6228 35.49 16.6459 35.3345 16.6741C35.3613 16.5903 35.3793 16.5339 35.4059 16.4506C34.6175 16.3059 33.8692 16.031 33.0075 16.0935Z" fill="#FAFAFA"/>
<path d="M90.342 34.877C91.1814 34.7664 91.8465 35.0213 92.2998 35.7175C92.4772 35.99 92.6655 36.0081 92.9363 35.8971C93.4865 35.6716 93.827 35.2373 94.0435 34.7222C94.5006 33.6349 94.9138 32.5293 95.3515 31.4337C95.4954 31.0733 95.3345 30.7682 95.193 30.4642C94.1517 28.2265 93.1165 25.9857 92.0551 23.7575C91.1106 21.7748 90.136 19.8065 89.1716 17.8333C89.0653 17.6159 88.9501 17.4012 88.8191 17.198C88.6442 16.9266 88.4192 16.7386 88.0598 16.7511C87.7607 16.7616 87.4602 16.7179 87.1601 16.7137C86.9471 16.7108 86.8599 16.6088 86.8677 16.4089C86.8761 16.191 87.0282 16.1794 87.1961 16.1797C88.8159 16.1826 90.4358 16.183 92.0556 16.1845C92.9479 16.1853 93.8402 16.1878 94.7325 16.1874C94.9549 16.1873 95.0863 16.2648 95.06 16.5148C95.0383 16.7208 94.9067 16.7579 94.7327 16.7576C94.1798 16.7568 93.6269 16.7585 93.0741 16.764C92.6822 16.7679 92.6297 16.8345 92.7955 17.187C93.2573 18.1689 93.7379 19.1419 94.2025 20.1225C95.0069 21.8203 95.8049 23.521 96.6054 25.2206C96.8029 25.64 96.9974 26.0609 97.198 26.4789C97.2421 26.5708 97.3059 26.6532 97.4073 26.8139C97.5228 26.5891 97.6201 26.431 97.6888 26.2613C98.5926 24.0268 99.4951 21.7917 100.391 19.5541C100.607 19.0146 100.81 18.4692 100.996 17.9186C101.082 17.6644 101.129 17.3935 101.162 17.1263C101.19 16.896 101.071 16.7684 100.822 16.7633C100.26 16.7517 99.6977 16.7318 99.1362 16.7066C98.9625 16.6988 98.7712 16.6917 98.7854 16.4285C98.7994 16.1697 98.9848 16.1804 99.1621 16.181C100.675 16.1857 102.188 16.1921 103.702 16.1973C103.867 16.1979 104.013 16.2101 104.027 16.432C104.043 16.6745 103.886 16.6981 103.71 16.7054C103.352 16.7202 102.993 16.7541 102.636 16.739C102.284 16.7241 102.093 16.8998 101.974 17.1939C101.73 17.7955 101.487 18.3975 101.252 19.0026C100.955 19.7698 100.679 20.5454 100.371 21.3081C99.7796 22.7712 99.1836 24.2326 98.5693 25.6861C97.6615 27.8339 96.7362 29.9744 95.818 32.1178C95.4024 33.0881 95.0155 34.0721 94.56 35.0232C94.2263 35.7201 93.6866 36.255 92.9488 36.5441C92.7445 36.6242 92.6707 36.7466 92.653 36.9541C92.58 37.8072 91.9556 38.5043 91.0829 38.7247C90.3777 38.9028 89.4634 38.5239 89.0411 37.8532C88.3646 36.7789 88.8585 35.1661 90.342 34.877ZM94.6134 28.7747C94.6949 28.9594 94.772 29.1462 94.8589 29.3283C95.005 29.6345 95.1575 29.9376 95.312 30.2396C95.312 30.2396 95.3077 30.2428 95.307 30.2886C95.3271 30.3614 95.3363 30.4398 95.3694 30.5062C95.5383 30.8454 95.615 31.1854 95.4634 31.5574C94.9999 32.6944 94.5535 33.8384 94.0814 34.9717C93.9089 35.386 93.6121 35.7137 93.1752 35.9553C92.9948 36.0119 92.8144 36.0685 92.5914 36.1216C92.5093 36.0814 92.4272 36.0411 92.3286 35.9656C92.1801 35.7998 92.0316 35.634 91.8632 35.434C91.4565 35.0209 90.9088 34.9712 90.4091 35.034C89.7289 35.1196 89.1985 35.5028 88.9857 36.2598C88.9594 36.4256 88.9332 36.5915 88.9058 36.8065C88.9423 37.7376 89.6784 38.6415 90.6781 38.5988C90.7481 38.5881 90.8181 38.5775 90.932 38.5682C90.976 38.5674 91.02 38.5665 91.1061 38.5649C91.1887 38.5281 91.2713 38.4913 91.396 38.4489C91.7231 38.31 91.9911 38.1091 92.1587 37.7489C92.2226 37.6168 92.2864 37.4847 92.3845 37.3305C92.4084 37.2712 92.4345 37.2128 92.4557 37.1526C92.5358 36.925 92.6144 36.6969 92.7362 36.4648C92.9553 36.3492 93.1743 36.2336 93.4013 36.0792C93.9719 35.7448 94.3075 35.2074 94.5862 34.6408C94.8508 34.1028 95.0592 33.5371 95.2928 32.9838C95.63 32.185 96.0619 31.2416 96.4018 30.4009C96.4029 30.3588 96.3637 30.4681 96.3977 30.4075C96.4444 30.335 96.4521 30.2452 96.529 30.145C96.6246 29.9346 96.7105 29.7371 96.7999 29.5241C97.278 28.3845 97.7517 27.2431 98.2297 26.1034C98.7629 24.8321 99.3093 23.5663 99.8307 22.2902C100.223 21.3291 100.589 20.3568 100.96 19.3871C101.216 18.7202 101.469 18.0522 101.705 17.3784C101.778 17.1692 101.818 16.9297 101.426 16.8542C101.535 16.6971 101.621 16.4714 101.704 16.4725C102.095 16.4775 101.792 16.7951 101.894 17.0242C102.114 16.4282 102.582 16.5831 102.987 16.5664C103.2 16.5577 103.415 16.5753 103.627 16.5583C103.704 16.5522 103.775 16.4798 103.849 16.4377C103.779 16.4022 103.709 16.3361 103.639 16.3358C102.093 16.3299 100.548 16.3313 99.0032 16.3313C98.9874 16.3636 98.9947 16.3758 98.9788 16.4082C99.0409 16.4532 99.0823 16.5582 99.1412 16.5544C99.2361 16.5482 99.3272 16.4835 99.4369 16.4362C99.4266 16.5039 99.4196 16.5494 99.4085 16.6223C99.9304 16.6223 100.431 16.6073 100.93 16.6327C101.057 16.6392 101.277 16.767 101.283 16.8516C101.307 17.1718 101.303 17.5075 101.228 17.8178C101.141 18.1765 100.975 18.5167 100.833 18.8608C100.57 19.4965 100.294 20.1266 100.035 20.764C99.8252 21.2814 99.6329 21.8059 99.4333 22.3275C99.2016 22.9332 98.9755 23.5411 98.7373 24.1442C98.5905 24.5156 98.4126 24.8751 98.2743 25.2494C98.1976 25.4569 98.2039 25.6966 98.1186 25.899C98.0078 26.1617 97.8462 26.4035 97.7004 26.6506C97.6211 26.785 97.5291 26.9119 97.4112 27.09C97.3068 26.9471 97.2288 26.8642 97.1786 26.7669C97.0694 26.5548 96.9746 26.3352 96.8733 26.119C96.5235 25.3727 96.1791 24.6238 95.8206 23.8817C95.6874 23.6061 95.5228 23.3641 95.3703 23.0804C95.3703 23.0804 95.3915 23.1016 95.3478 23.0578C95.299 22.9347 95.2825 22.7858 95.2259 22.6663C94.6299 21.4071 94.0279 20.1508 93.4356 18.8899C93.1423 18.2654 92.8574 17.6367 92.5856 17.0025C92.4848 16.7672 92.575 16.6339 92.806 16.6236C93.3178 16.6008 93.8298 16.5824 94.342 16.571C94.4656 16.5683 94.5915 16.6183 94.7136 16.6087C94.7794 16.6035 94.8392 16.5233 94.9017 16.4769C94.848 16.4279 94.8011 16.3653 94.7385 16.3344C94.6915 16.3112 94.6243 16.3283 94.5661 16.3283C92.1517 16.3274 89.7372 16.3266 87.3228 16.3257C87.2197 16.3257 87.1166 16.3257 87.0135 16.3257C87.0005 16.363 86.9874 16.4002 86.9744 16.4375C87.0539 16.4803 87.1309 16.5536 87.2133 16.5602C87.435 16.5779 87.6628 16.5413 87.881 16.574C88.1761 16.6183 88.5211 16.5429 88.735 16.8377C88.8931 17.0556 89.0556 17.2759 89.1742 17.5158C89.8849 18.9536 90.5818 20.3981 91.2866 21.8388C91.6966 22.6769 92.1156 23.5105 92.5246 24.3491C92.8239 24.9628 93.1116 25.5822 93.4083 26.1973C93.6293 26.6555 93.8566 27.1107 94.0853 27.6101C94.1804 27.8091 94.2756 28.008 94.3801 28.2483C94.4561 28.4097 94.5322 28.5712 94.6134 28.7747Z" fill="#FAFAFA"/>
<path d="M85.8313 16.3322C85.9105 16.9523 85.576 17.4208 85.2999 17.8871C84.0083 20.0685 82.6992 22.2397 81.3819 24.4057C80.2057 26.3399 79.0092 28.2618 77.8268 30.1922C77.7404 30.3334 77.6955 30.5001 77.6313 30.6549C77.7887 30.6798 77.9463 30.7272 78.1036 30.7261C79.4414 30.7164 80.7802 30.7257 82.1166 30.6742C83.4429 30.6229 84.1673 30.1597 84.7083 28.7715C84.9668 28.1081 85.0115 27.3599 85.1365 26.6472C85.1739 26.434 85.2355 26.2782 85.4787 26.33C85.7137 26.38 85.6739 26.5612 85.658 26.747C85.5793 27.663 85.5128 28.5802 85.447 29.4973C85.411 29.9993 85.37 30.5017 85.3604 31.0045C85.355 31.2847 85.2266 31.3439 84.9813 31.3427C83.5653 31.3356 82.1494 31.338 80.7334 31.337C78.5222 31.3356 76.311 31.334 74.0998 31.3323C74.0222 31.3323 73.9439 31.3364 73.8672 31.3278C73.5942 31.2972 73.5215 31.195 73.6515 30.9478C73.9668 30.3485 74.2951 29.7556 74.635 29.1698C75.422 27.8134 76.2114 26.4583 77.0137 25.1109C78.0487 23.3727 79.0985 21.6435 80.1392 19.9087C80.6819 19.004 81.2199 18.0963 81.7567 17.188C81.8183 17.0839 81.8584 16.967 81.9292 16.81C81.7788 16.796 81.6783 16.7786 81.5777 16.7787C80.4237 16.7799 79.2672 16.7359 78.1164 16.7979C76.309 16.8953 75.1539 17.8452 74.8001 19.7051C74.757 19.932 74.7145 20.1599 74.6912 20.3893C74.6744 20.5551 74.631 20.6793 74.4409 20.6759C74.2547 20.6725 74.152 20.5674 74.1514 20.3823C74.1503 19.9945 74.1525 19.6065 74.1621 19.2188C74.1773 18.6086 74.1986 17.9985 74.2195 17.3885C74.2301 17.0788 74.2511 16.7693 74.2568 16.4595C74.2609 16.2387 74.3809 16.1467 74.5818 16.1314C74.6783 16.1241 74.7756 16.1247 74.8726 16.1254C76.7724 16.1377 78.6722 16.1539 80.572 16.1623C82.0063 16.1686 83.4406 16.1664 84.8749 16.1647C85.0682 16.1644 85.2642 16.1207 85.4537 16.1426C85.5819 16.1574 85.7008 16.252 85.8313 16.3322ZM80.1771 20.0877C80.0469 20.3137 79.9208 20.5422 79.7861 20.7655C78.9471 22.1556 78.0931 23.5369 77.269 24.9358C76.1306 26.8683 75.0131 28.8131 73.8912 30.7553C73.8312 30.8591 73.8133 30.9872 73.7758 31.104C73.8914 31.1306 74.0069 31.1801 74.1226 31.1804C76.4596 31.1859 78.7966 31.186 81.1336 31.1868C82.3651 31.1872 83.5968 31.1784 84.8282 31.1934C85.1025 31.1968 85.223 31.1029 85.2363 30.8422C85.2397 30.7746 85.2465 30.7071 85.251 30.6395C85.3388 29.3466 85.4287 28.0538 85.5089 26.7604C85.514 26.6785 85.4432 26.5918 85.4076 26.5074C85.3667 26.5804 85.3012 26.6493 85.2885 26.7269C85.1607 27.5072 85.1216 28.3045 84.772 29.038C84.3998 29.8187 83.9074 30.4733 83.018 30.6814C82.5874 30.7822 82.1394 30.8471 81.6979 30.8558C80.4086 30.8812 79.1186 30.8735 77.8289 30.8682C77.6956 30.8676 77.5627 30.7963 77.4296 30.7578C77.4711 30.6255 77.4883 30.4785 77.558 30.3634C78.0335 29.5782 78.5208 28.8002 79.0028 28.019C79.7522 26.8043 80.5072 25.5931 81.2473 24.3728C82.0886 22.9857 82.9223 21.594 83.7476 20.1973C84.3618 19.1578 84.9604 18.109 85.5565 17.0589C85.6246 16.939 85.6372 16.7854 85.6648 16.6453C85.7135 16.3988 85.6244 16.3032 85.3573 16.3104C84.6693 16.3289 83.9805 16.3196 83.2919 16.3185C81.8858 16.3163 80.4797 16.3162 79.0736 16.3076C77.6299 16.2987 76.1863 16.2794 74.7427 16.2681C74.5486 16.2666 74.4021 16.3388 74.3893 16.5657C74.3838 16.6617 74.357 16.7569 74.355 16.8527C74.3319 17.9667 74.3088 19.0807 74.2952 20.1948C74.2938 20.3043 74.3549 20.4145 74.387 20.5244C74.4436 20.4287 74.5239 20.3393 74.5516 20.2358C74.6039 20.0405 74.6222 19.8364 74.661 19.6372C74.7964 18.9421 75.0387 18.2855 75.519 17.7576C76.2085 16.9997 77.1178 16.6773 78.1142 16.647C79.3447 16.6096 80.577 16.6314 81.8085 16.6337C82.1109 16.6343 82.1703 16.7491 82.0134 17.0129C81.4101 18.0267 80.8034 19.0383 80.1771 20.0877Z" fill="#FAFAFA"/>
<path d="M51.9822 19.6663C53.128 22.1075 54.267 24.528 55.4455 27.0323C55.5566 26.8118 55.6465 26.6599 55.7126 26.4982C56.3715 24.8865 57.0271 23.2735 57.6823 21.6603C58.101 20.6294 58.5276 19.6016 58.9303 18.5646C59.1079 18.1073 59.2611 17.6368 59.3756 17.1603C59.4523 16.8412 59.3595 16.7639 59.0257 16.7544C58.6962 16.745 58.3663 16.7508 58.0365 16.7496C57.9589 16.7493 57.8786 16.7604 57.8043 16.7442C57.6148 16.703 57.3481 16.7283 57.3593 16.4373C57.3708 16.1402 57.6239 16.1841 57.8231 16.1838C59.2488 16.1816 60.6744 16.1816 62.1 16.1811C62.1582 16.1811 62.2165 16.186 62.2745 16.1832C62.4841 16.1732 62.6159 16.257 62.6125 16.4803C62.609 16.714 62.4522 16.7599 62.2548 16.7583C61.7796 16.7545 61.3038 16.7705 60.8293 16.7512C60.5137 16.7385 60.3456 16.8878 60.2362 17.1579C59.8437 18.1268 59.4476 19.0943 59.0524 20.0622C58.5807 21.2173 58.1231 22.3785 57.6336 23.526C56.6172 25.9089 55.5845 28.2847 54.5567 30.6627C54.4261 30.9648 54.2926 31.2663 54.1438 31.5596C54.097 31.6519 53.9925 31.7808 53.9202 31.7772C53.8367 31.773 53.7294 31.6555 53.6844 31.5622C53.281 30.7259 52.8901 29.8835 52.4935 29.0439C51.7381 27.4448 50.9817 25.846 50.225 24.2475C49.5053 22.7276 48.7913 21.2049 48.0616 19.6897C47.6885 18.915 47.2881 18.1532 46.8967 17.3873C46.6654 16.9347 46.3107 16.6893 45.7825 16.7103C45.4243 16.7245 45.0649 16.706 44.7061 16.7036C44.5236 16.7024 44.3681 16.6646 44.3742 16.437C44.3802 16.2149 44.5299 16.1791 44.7156 16.1797C47.2178 16.1882 49.72 16.1937 52.2222 16.2024C52.3377 16.2028 52.453 16.2364 52.5685 16.2373C52.775 16.2389 52.838 16.3445 52.8216 16.535C52.8041 16.7382 52.6699 16.7507 52.5117 16.7506C51.9698 16.7502 51.4278 16.7538 50.8859 16.7594C50.8206 16.7601 50.7556 16.7823 50.6238 16.807C51.0828 17.771 51.5291 18.7082 51.9822 19.6663ZM56.2125 25.6454C56.0346 26.052 55.8566 26.4586 55.6602 26.8999C55.5958 26.9875 55.5314 27.0751 55.4418 27.1971C55.2932 26.9563 55.172 26.7601 55.0435 26.5328C55.0277 26.5059 55.0118 26.4791 54.9894 26.4062C54.9638 26.3146 54.9505 26.2171 54.9104 26.1324C54.696 25.6795 54.4701 25.2321 54.257 24.7787C53.6415 23.4692 53.0306 22.1575 52.4173 20.8469C52.07 20.1048 51.7273 19.3603 51.3711 18.6225C51.1755 18.2174 50.9563 17.8238 50.7416 17.3903C50.7392 17.3669 50.7368 17.3435 50.719 17.2798C50.6632 17.0792 50.5602 16.8902 50.5503 16.6719C50.6642 16.6586 50.8253 16.6232 50.9392 16.6222C51.4704 16.6177 52.0017 16.6228 52.5328 16.6144C52.5905 16.6135 52.6471 16.5475 52.7042 16.5117C52.654 16.4536 52.6135 16.3777 52.5504 16.3429C52.4977 16.3138 52.4184 16.3306 52.3508 16.3306C51.7134 16.3309 51.076 16.3319 50.3842 16.3303C49.1022 16.329 47.8203 16.3276 46.4898 16.3242C45.9176 16.3188 45.3453 16.307 44.7733 16.3147C44.6846 16.3159 44.5971 16.4061 44.5091 16.4552C44.6135 16.5085 44.7161 16.6036 44.8227 16.6082C45.3516 16.631 45.8817 16.63 46.4246 16.6731C46.5443 16.7906 46.6639 16.908 46.7932 17.0591C46.8418 17.1082 46.8904 17.1573 46.9491 17.2466C47.6201 18.6001 48.2983 19.95 48.9599 21.308C49.482 22.3797 49.9837 23.4612 50.4994 24.5716C50.5168 24.5991 50.5342 24.6267 50.5565 24.6969C51.0367 25.6755 51.5286 26.6486 51.9938 27.6343C52.4985 28.7038 52.976 29.7863 53.4714 30.8604C53.5692 31.0725 53.6941 31.2722 53.8111 31.5183C53.8456 31.5563 53.8801 31.5944 53.9145 31.6324C53.9621 31.5585 54.0097 31.4845 54.0855 31.3829C54.1513 31.2546 54.2223 31.1287 54.2819 30.9975C54.5015 30.5144 54.7232 30.032 54.9331 29.5447C55.2835 28.7311 55.6255 27.9139 56.0018 27.0731C56.1474 26.7134 56.293 26.3537 56.456 25.958C56.8024 25.1563 57.1488 24.3546 57.5216 23.5226C57.6125 23.2888 57.6992 23.0532 57.795 22.8214C58.2744 21.6606 58.7568 20.501 59.2369 19.3405C59.5584 18.5636 59.8793 17.7864 60.1972 17.0081C60.3155 16.7183 60.5259 16.6083 60.8349 16.6172C61.3194 16.6313 61.8047 16.618 62.2895 16.6222C62.4683 16.6238 62.5312 16.5313 62.4551 16.3901C62.4268 16.3376 62.2847 16.33 62.1945 16.3297C60.7203 16.326 59.2462 16.3247 57.7721 16.3312C57.6773 16.3316 57.5828 16.4007 57.4882 16.4378C57.5841 16.4979 57.6752 16.5691 57.7779 16.6135C57.8352 16.6383 57.9118 16.6185 57.9796 16.6186C58.3579 16.6193 58.7364 16.6118 59.1143 16.6233C59.4167 16.6324 59.5555 16.7671 59.5122 17.0623C59.4678 17.3646 59.3847 17.6675 59.2739 17.9528C58.7808 19.2232 58.2696 20.4866 57.7694 21.7543C57.55 22.3102 57.3413 22.8704 57.0996 23.4586C56.964 23.8029 56.8277 24.147 56.693 24.4916C56.5448 24.871 56.3981 25.251 56.2125 25.6454Z" fill="#FAFAFA"/>
<path d="M9.01959 12.0492C8.95822 12.2418 8.90503 12.4131 8.84797 12.5968C8.63959 12.504 8.51208 12.4249 8.68966 12.1911C8.82422 12.0139 8.9193 11.8032 9.00963 11.5976C9.04662 11.5135 9.02487 11.4035 9.08763 11.2773C9.15557 11.4423 9.22351 11.6072 9.26551 11.7091C9.16481 11.8441 9.09629 11.936 9.01959 12.0492Z" fill="#FAFAFA"/>
<path d="M12.7529 23.237C13.005 23.0644 13.2588 23.1359 13.5455 23.1966C13.3292 23.42 12.9655 23.4337 12.7529 23.237Z" fill="#FAFAFA"/>
<path d="M5.63477 22.9898C5.69358 22.9654 5.76083 22.9579 5.84249 22.962C5.78566 22.9846 5.71443 22.9957 5.63477 22.9898Z" fill="#FAFAFA"/>
<path d="M41.0684 5.50511C41.3981 5.50516 41.7284 5.51696 42.0573 5.50114C42.2798 5.49044 42.3579 5.55256 42.3588 5.79059C42.3702 8.89151 42.3973 11.9924 42.4098 15.0933C42.4187 17.3103 42.4088 19.5274 42.4138 21.7445C42.4149 22.2082 42.4605 22.6719 42.4583 23.1355C42.4478 25.2962 42.4255 27.4568 42.4139 29.6175C42.4124 29.8967 42.4278 30.1796 42.4735 30.4545C42.5159 30.71 42.7097 30.8538 42.9619 30.8757C43.3464 30.909 43.733 30.9185 44.1188 30.9373C44.1962 30.9411 44.2785 30.9258 44.3497 30.9479C44.4011 30.9638 44.4378 31.0271 44.481 31.0692C44.4385 31.1022 44.399 31.1576 44.3528 31.1637C44.2383 31.1791 44.1209 31.1734 44.0046 31.1736C43.3936 31.1747 42.7823 31.1612 42.1719 31.1788C41.3901 31.2014 40.6092 31.2519 39.8276 31.2838C39.5604 31.2947 39.2924 31.2855 38.987 31.2855C38.9808 31.1597 38.9705 31.0492 38.9705 30.9387C38.9692 28.2041 38.98 25.4694 38.9605 22.7349C38.9559 22.0826 38.894 21.423 38.7747 20.7822C38.7063 20.4147 38.4652 20.0804 38.31 19.7275C38.0459 19.127 37.6026 18.6538 37.2152 18.1388C37.1091 17.9977 35.588 16.9346 35.3256 16.6721C35.1505 16.6283 34.8443 15.6221 37.6004 17.9408C37.732 18.0883 38.3841 19.2695 38.4605 19.3581C38.517 19.4235 38.5624 19.5009 38.6273 19.5559C38.6736 19.5953 38.7638 19.6417 38.799 19.622C38.8531 19.5916 38.9045 19.509 38.909 19.4452C38.9366 19.0542 38.9662 18.6622 38.9667 18.2705C38.9719 14.6825 38.9724 11.0946 38.9701 7.50661C38.9699 7.18251 38.9411 6.85842 38.9382 6.51276C39.2524 6.36735 38.9742 6.24521 38.9439 6.14244C39.0095 6.05986 39.0525 5.97956 39.1182 5.92845C39.2595 5.81862 39.4028 5.66119 39.5627 5.63677C39.8405 5.59433 40.1343 5.66564 40.4159 5.63638C40.6333 5.6138 40.8908 5.73557 41.0684 5.50511ZM38.6504 19.8657C38.6773 19.8627 38.5797 19.8249 38.6066 19.8219C38.6005 19.7975 38.5191 19.7344 38.6066 19.7782C38.5836 19.7948 38.6941 19.8657 38.6504 19.8657ZM37.5129 18.2705C37.4921 18.2702 37.8579 18.6474 37.8372 18.6471C37.837 18.6557 37.8363 18.6718 37.8369 18.6719C37.8576 18.6735 37.4918 18.2962 37.5129 18.2705Z" fill="#FAFAFA"/>
<path d="M33.0373 16.0915C33.87 16.0291 34.6183 16.3039 35.4067 16.4486C35.3801 16.532 35.3621 16.5884 35.3353 16.6722C35.4908 16.6439 35.6176 16.6209 35.7444 16.5978C35.511 16.9135 35.2418 16.803 34.9757 16.7152C33.974 16.3846 32.9722 16.4112 32.0005 16.7959C31.1863 17.1183 30.649 17.7568 30.3169 18.552C30.1078 19.0527 29.9173 19.568 29.789 20.0939C29.555 21.0534 29.478 22.0319 29.5924 23.0199C29.6434 23.4601 29.6395 23.911 29.7341 24.3408C29.8698 24.9575 30.024 25.579 30.2595 26.1625C30.5535 26.8909 30.9066 27.6005 31.2916 28.286C31.7952 29.1829 32.5686 29.7895 33.5314 30.1541C34.3833 30.4766 35.9605 30.1194 36.5431 29.4215C37.0364 28.8306 37.2646 28.1086 37.3975 27.3576C37.4298 27.1749 37.4491 26.9895 37.4912 26.8093C37.506 26.7457 37.5708 26.6937 37.6128 26.6365C37.6593 26.6992 37.7523 26.768 37.7449 26.8235C37.6879 27.2515 37.6364 27.6833 37.5307 28.1006C37.4756 28.3179 37.2168 28.5126 37.2254 28.7097C37.2365 28.9623 37.1035 29.0957 37.0034 29.268C36.9444 29.3695 36.8662 29.4598 36.768 29.5942C36.7607 29.5759 36.7807 29.6257 36.8092 29.6968C36.7327 29.7038 36.6715 29.7094 36.6102 29.715C36.6283 29.7335 36.6463 29.752 36.6644 29.7705C36.5892 29.8632 36.514 29.956 36.4386 30.0485C36.1146 30.4461 35.7212 30.7435 35.2614 30.9823C34.6259 31.3123 33.9482 31.4696 33.2537 31.5078C31.7036 31.5931 30.2625 31.1993 28.9931 30.3024C28.4263 29.902 27.9451 29.4002 27.5131 28.8311C26.868 27.9812 26.3854 27.0693 26.1075 26.0519C25.9198 25.365 25.8354 24.6604 25.7986 23.9406C25.7416 22.8242 25.8629 21.7503 26.2148 20.6935C26.6601 19.3559 27.4158 18.2339 28.5351 17.3766C29.1005 16.9437 29.7446 16.6385 30.431 16.4397C31.2718 16.1963 32.1267 16.0411 33.0373 16.0915ZM31.0482 17.17C31.0479 17.1907 31.0477 17.2114 31.0474 17.2321C31.056 17.2322 31.072 17.2329 31.0721 17.2323C31.0737 17.2118 31.0739 17.1911 31.0482 17.17Z" fill="#FAFAFA"/>
<path d="M41.0414 5.50391C40.891 5.73512 40.6335 5.61334 40.4161 5.63593C40.1345 5.66518 39.8407 5.59388 39.5629 5.63631C39.403 5.66073 39.2597 5.81817 39.1184 5.928C39.0527 5.9791 39.0097 6.0594 38.9441 6.14198C38.9744 6.24476 39.2526 6.3669 38.9294 6.49352C38.7555 6.00282 38.3991 5.81495 37.9058 5.79087C37.5815 5.77503 37.2596 5.70925 36.9414 5.60596C37.6115 5.41861 38.2843 5.55838 38.9524 5.53904C39.6394 5.51915 40.3268 5.51448 41.0414 5.50391Z" fill="#FAFAFA"/>
<path d="M95.3699 23.0817C95.5212 23.3486 95.6877 23.6081 95.8208 23.8837C96.1793 24.6258 96.5237 25.3747 96.8735 26.121C96.9749 26.3372 97.0696 26.5568 97.1789 26.7689C97.229 26.8662 97.307 26.9491 97.4115 27.092C97.5294 26.9139 97.6213 26.787 97.7006 26.6526C97.8464 26.4054 98.0081 26.1637 98.1188 25.901C98.2041 25.6986 98.1978 25.4589 98.2745 25.2513C98.4128 24.877 98.5908 24.5176 98.7375 24.1462C98.9757 23.5431 99.2018 22.9352 99.4336 22.3295C99.6331 21.8079 99.8254 21.2834 100.035 20.766C100.294 20.1286 100.57 19.4985 100.833 18.8628C100.975 18.5187 101.142 18.1784 101.228 17.8198C101.303 17.5095 101.307 17.1738 101.283 16.8535C101.277 16.769 101.057 16.6412 100.931 16.6347C100.432 16.6093 99.9306 16.6243 99.4087 16.6243C99.2853 16.6287 98.9688 16.624 98.9791 16.5563C98.9354 16.06 99.2363 16.5502 99.1414 16.5563C99.0825 16.5602 99.0412 16.4551 98.9791 16.41C98.995 16.3777 98.9876 16.3656 99.0035 16.3333C100.549 16.3333 102.094 16.3319 103.639 16.3378C103.709 16.338 103.835 16.3225 103.879 16.4538C103.791 16.585 103.704 16.5542 103.627 16.5603C103.415 16.5773 103.201 16.5596 102.988 16.5684C102.582 16.5851 101.948 16.7148 101.728 17.3108C101.626 17.0817 101.864 17.29 101.473 17.285C101.39 17.2839 101.385 16.76 101.426 16.8562C101.819 16.9317 101.779 17.1712 101.705 17.3804C101.469 18.0542 101.216 18.7222 100.96 19.3891C100.589 20.3588 100.224 21.331 99.8309 22.2922C99.3096 23.5683 98.7632 24.8341 98.2299 26.1054C97.7519 27.245 97.2782 28.3865 96.8001 29.5261C96.7108 29.7391 96.5732 30.0984 96.4417 30.3218C96.3784 30.3346 96.2092 30.4317 96.1792 30.4093C96.1864 30.25 96.3456 29.8545 96.3889 29.7288C96.5735 29.1922 96.8451 28.6788 96.7847 28.0821C96.7819 28.054 96.8543 28.0183 96.9061 27.9737C96.9342 28.0828 96.9544 28.1615 96.9771 28.2494C97.305 27.9863 97.3955 27.7483 97.2693 27.4383C97.1998 27.5897 97.1417 27.7164 97.0836 27.8431C97.0491 27.8309 97.0146 27.8187 96.9801 27.8065C97.0178 27.6556 97.0566 27.5049 97.0929 27.3537C97.1087 27.2883 96.0355 29.5922 96.0485 29.5261C95.9823 29.5291 96.9998 27.163 96.9335 27.1642C96.8472 27.1657 96.0379 29.7968 95.9514 29.7968C96.0654 29.6524 96.025 29.9901 95.8479 29.8626C95.917 29.9327 95.733 29.7797 95.8479 29.8626C95.6058 29.7499 96.0907 29.9226 95.8205 29.7968C95.8632 29.8989 95.8519 29.7564 95.9001 29.8379C95.9525 29.9266 96.037 29.437 96.0485 29.5261C96.1073 29.9806 95.9742 29.3448 95.8205 29.7968C95.7661 29.9567 95.9312 29.8008 95.8205 29.9281C95.6898 30.0783 95.9962 29.9617 95.9001 29.8379C95.8525 29.7767 95.7279 29.8171 95.6941 29.7288C95.8616 29.8191 95.7138 29.1706 95.8205 29.2281C95.8421 29.1937 95.7989 29.8312 95.8205 29.7968C95.7624 29.7453 95.6293 29.4208 95.5623 29.4031C95.3236 29.3402 95.7561 30.1645 95.7344 29.9281C95.7212 29.7849 95.7719 29.6482 95.6615 29.5277C95.5675 29.4252 95.8015 29.6257 95.6697 29.5261C95.5654 29.5632 95.0638 28.9313 94.9672 28.9656C94.8933 29.1144 94.1373 27.4928 94.0794 27.6094C93.8549 27.1529 93.6296 26.6575 93.4085 26.1993C93.1118 25.5842 92.8242 24.9648 92.5248 24.3511C92.1158 23.5125 91.6968 22.6789 91.2868 21.8408C90.5821 20.4001 89.8851 18.9555 89.1744 17.5178C89.0558 17.2779 88.8933 17.0576 88.7352 16.8397C88.5213 16.5449 88.1763 16.6203 87.8812 16.576C87.663 16.5433 87.4352 16.5799 87.2135 16.5621C87.1312 16.5556 87.0541 16.4823 86.9746 16.4395C86.9877 16.4022 87.0007 16.365 87.0137 16.3277C87.1168 16.3277 87.2199 16.3277 87.323 16.3277C89.7375 16.3286 92.1519 16.3294 94.5664 16.3303C94.6245 16.3303 94.6917 16.3132 94.7387 16.3364C94.8013 16.3673 94.8483 16.4299 94.9019 16.4789C94.8394 16.5253 94.7796 16.6055 94.7138 16.6107C94.5917 16.6203 94.4659 16.5703 94.3422 16.573C93.8301 16.5844 93.318 16.6028 92.8063 16.6256C92.5752 16.6359 92.485 16.7692 92.5859 17.0045C92.8576 17.6387 93.1425 18.2674 93.4358 18.8919C94.0282 20.1528 94.6302 21.4091 95.2261 22.6683C95.2827 22.7878 95.3247 22.9141 95.3569 23.0633C95.322 23.1055 95.3038 23.1218 95.2856 23.138C95.2969 23.1476 95.3082 23.1573 95.3195 23.1669C95.3363 23.1385 95.3531 23.1101 95.3699 23.0817ZM101.523 17.2572C101.5 17.2058 101.477 17.1544 101.454 17.1031C101.429 17.1259 101.404 17.1488 101.38 17.1717C101.42 17.2102 101.46 17.2487 101.523 17.2572Z" fill="#FAFAFA"/>
<path d="M90.6531 38.5729C89.6781 38.6412 88.942 37.7373 88.9277 36.7797C89.2679 36.6086 89.284 36.4839 89.0176 36.2302C89.1982 35.5025 89.7287 35.1193 90.4088 35.0338C90.9085 34.9709 91.4562 35.0206 91.8713 35.4751C91.8956 35.9006 92.0507 36.062 92.3448 36.0006C92.4269 36.0408 92.509 36.0811 92.6156 36.1444C92.6578 36.2678 92.6756 36.3682 92.6933 36.4687C92.6142 36.6966 92.5356 36.9247 92.4554 37.1523C92.4342 37.2125 92.4081 37.2709 92.3631 37.3218C92.3253 37.2927 92.3087 37.272 92.292 37.2513C92.1917 37.4064 91.9966 37.5292 92.1182 37.7602C91.9909 38.1088 91.7229 38.3097 91.3748 38.4278C91.3444 38.2067 91.2817 38.0546 91.0415 38.0691C91.0319 38.0697 91.0241 38.0998 91.0062 38.1338C91.0555 38.1772 91.1076 38.2229 91.1503 38.2604C91.1194 38.3692 91.0916 38.4672 91.0637 38.5653C91.0197 38.5662 90.9757 38.5671 90.9097 38.5448C90.8648 38.2453 90.6716 38.2066 90.4325 38.1453C90.5256 38.3257 90.5894 38.4493 90.6531 38.5729Z" fill="#169344"/>
<path d="M94.0791 27.61C94.135 27.472 94.197 27.3364 94.271 27.1876C94.3676 27.1533 94.5091 27.1031 94.6134 27.066C94.7453 27.1656 94.8731 27.2371 94.967 27.3396C95.0775 27.4601 95.2244 27.6015 95.2375 27.7446C95.2593 27.981 95.3198 28.1266 95.5585 28.1895C95.6255 28.2072 95.6761 28.2874 95.7342 28.3389C95.7126 28.3733 95.6911 28.4077 95.6695 28.4421C95.5628 28.3846 95.4561 28.3271 95.2885 28.2367C95.3223 28.325 95.336 28.4126 95.3835 28.4738C95.4797 28.5976 95.617 28.6918 95.7477 28.5416C95.8584 28.4143 95.3292 27.6412 95.3835 27.4813C95.5372 27.0293 94.9342 26.1832 94.8754 25.7287C94.8639 25.6395 95.8727 26.5679 95.8203 26.4792C95.7721 26.3977 95.7441 26.3043 95.7014 26.2022C95.9716 26.328 96.1858 26.4276 96.4278 26.5403C96.4969 26.6104 96.5862 26.7288 96.7011 26.8117C96.8781 26.9393 97.2116 26.8968 97.0977 27.0412C97.1841 27.0412 97.2078 27.1575 97.2942 27.156C97.3605 27.1548 97.0659 27.159 97.1321 27.156C97.1192 27.2221 97.3322 27.1945 97.3164 27.26C97.2801 27.4112 97.398 27.1966 97.3602 27.3475C97.3947 27.3597 97.0489 27.8314 97.0834 27.8436C97.1415 27.7169 97.1996 27.5902 97.2691 27.4388C97.3953 27.7487 97.4694 28.2219 97.1414 28.4849C97.1188 28.397 97.082 28.6814 97.054 28.5724C97.0022 28.617 97.0074 28.6318 97.0102 28.6599C97.0706 29.2567 96.6699 29.3044 96.4852 29.8411C96.442 29.9667 96.3644 30.002 96.3401 30.1687C96.1878 30.2641 96.2752 30.2366 96.4415 30.3224C96.4404 30.3645 96.3348 30.5658 96.3102 30.6286C96.2086 30.5952 96.1043 30.4813 96.0656 30.4545C95.9331 30.5109 95.8251 30.5568 95.7172 30.6028C95.7033 30.5781 95.6895 30.5534 95.6757 30.5287C95.7296 30.4603 95.7835 30.3919 95.8991 30.2452C95.6521 30.2452 95.4763 30.2787 95.304 30.2787C95.304 30.2787 95.312 30.242 95.3189 30.2248C95.3828 30.1311 95.4332 30.0487 95.498 29.9797C95.6631 29.8038 95.6455 29.7092 95.4244 29.5834C95.3282 29.5286 95.2405 29.459 95.1383 29.3888C95.1979 29.3039 95.2476 29.233 95.2629 29.2111C95.1172 29.03 94.9994 28.8786 94.8754 28.7325C94.8353 28.6852 94.7816 28.6785 94.7353 28.6162C94.7798 28.4271 94.819 28.2336 94.8787 27.9955C94.6524 28.0908 94.5069 28.1774 94.3661 28.2367C94.2709 28.0378 94.1764 27.8304 94.0791 27.61ZM94.5429 27.8562C94.5308 27.8073 94.5186 27.7584 94.5065 27.7096C94.4713 27.732 94.4362 27.7545 94.4011 27.7769C94.4404 27.8131 94.4797 27.8493 94.5429 27.8562ZM96.4278 27.5662C96.4276 27.5891 96.7549 27.4584 96.7547 27.4813C96.7642 27.4814 96.7819 27.4821 96.782 27.4815C96.7837 27.4587 96.4563 27.5894 96.4278 27.5662Z" fill="#FAFAFA"/>
<path d="M95.2604 30.1884C95.433 30.1655 95.7572 30.2321 96.0041 30.2321C95.8886 30.3788 95.7297 30.4575 95.6758 30.526C95.6896 30.5507 95.7278 30.5574 95.7416 30.5821C95.8496 30.5361 95.9591 30.4635 96.0916 30.4071C96.1303 30.434 96.2537 30.4839 96.3541 30.5384C96.0389 31.3373 95.6301 32.1847 95.2929 32.9835C95.0593 33.5368 94.851 34.1025 94.5863 34.6405C94.3076 35.2071 93.9917 35.7443 93.3772 36.0961C93.3062 36.0542 93.2596 35.9951 93.2129 35.936C93.5542 35.7006 93.909 35.3857 94.0816 34.9715C94.5536 33.8381 95 32.6941 95.4635 31.5571C95.6151 31.1851 95.5385 30.8451 95.3695 30.5059C95.3364 30.4395 95.2803 30.2842 95.2604 30.1884Z" fill="#FAFAFA"/>
<path d="M94.7303 28.6094C94.7792 28.6492 94.8355 28.6827 94.8756 28.7299C94.9996 28.8761 95.1585 29.0013 95.3043 29.1824C95.2889 29.2043 95.2326 29.2724 95.173 29.3574C95.2752 29.4275 95.4268 29.4774 95.523 29.5322C95.7441 29.658 95.6633 29.8012 95.4982 29.9771C95.4334 30.0461 95.3705 30.1812 95.3043 30.2761C95.1452 29.9902 95.0053 29.6344 94.8591 29.3282C94.7722 29.1461 94.6367 28.8794 94.5605 28.6574C94.6012 28.5899 94.695 28.6396 94.7303 28.6094Z" fill="#FAFAFA"/>
<path d="M93.248 35.9219C93.3135 35.9714 93.3998 35.9918 93.4668 36.0531C93.2918 36.1844 92.9196 36.4167 92.6793 36.5343C92.6402 36.436 92.6127 36.2186 92.5918 36.0969C92.7691 36.019 93.0488 35.988 93.248 35.9219Z" fill="#FAFAFA"/>
<path d="M94.7678 28.5937C94.7299 28.6464 94.692 28.7007 94.6045 28.7444C94.5205 28.5992 94.4382 28.3927 94.3574 28.2106C94.4936 28.1306 94.7165 28.0328 94.9428 27.9375C94.8831 28.1756 94.8122 28.4045 94.7678 28.5937Z" fill="#FAFAFA"/>
<path d="M91.0855 38.5671C91.0922 38.4694 91.1201 38.3713 91.1509 38.2626C91.1083 38.2251 91.0562 38.1793 91.0068 38.1359C91.0248 38.102 91.0326 38.0718 91.0422 38.0713C91.2823 38.0568 91.345 38.2088 91.3545 38.4327C91.2717 38.4931 91.1891 38.5299 91.0855 38.5671Z" fill="#FAFAFA"/>
<path d="M89.0019 36.2461C89.2844 36.4852 89.2683 36.6098 88.9287 36.7563C88.9333 36.5924 88.9596 36.4266 89.0019 36.2461Z" fill="#FAFAFA"/>
<path d="M92.3371 35.9829C92.0513 36.062 91.8962 35.9006 91.8818 35.4922C92.032 35.6337 92.1804 35.7995 92.3371 35.9829Z" fill="#FAFAFA"/>
<path d="M90.6656 38.5888C90.5895 38.4524 90.5257 38.3288 90.4326 38.1484C90.6717 38.2097 90.8649 38.2485 90.8878 38.5473C90.8179 38.5804 90.7479 38.591 90.6656 38.5888Z" fill="#FAFAFA"/>
<path d="M92.1388 37.757C91.997 37.5318 92.1921 37.409 92.2925 37.2539C92.3091 37.2746 92.3258 37.2953 92.3465 37.3354C92.2866 37.487 92.2228 37.6191 92.1388 37.757Z" fill="#FAFAFA"/>
<path d="M96.3269 30.4118C96.1442 30.3353 96.1874 30.2632 96.3422 30.1899C96.3868 30.1828 96.4143 30.1831 96.4626 30.1842C96.4366 30.2575 96.39 30.33 96.3269 30.4118Z" fill="#FAFAFA"/>
<path d="M80.1881 20.0667C80.804 19.0358 81.4107 18.0242 82.0139 17.0104C82.1709 16.7467 82.1115 16.6318 81.8091 16.6312C80.5776 16.6289 79.3452 16.6072 78.1148 16.6445C77.1184 16.6748 76.2091 16.9973 75.5196 17.7551C75.0393 18.283 74.797 18.9396 74.6616 19.6347C74.6228 19.8339 74.6044 20.038 74.5522 20.2333C74.5245 20.3368 74.4442 20.4262 74.3876 20.522C74.3555 20.412 74.2944 20.3018 74.2958 20.1923C74.3094 19.0782 74.3325 17.9642 74.3556 16.8502C74.3575 16.7544 74.3844 16.6592 74.3898 16.5632C74.4027 16.3364 74.5492 16.2641 74.7433 16.2656C76.1869 16.2769 77.6305 16.2962 79.0742 16.3051C80.4803 16.3138 81.8864 16.3138 83.2925 16.316C83.981 16.3171 84.6699 16.3264 85.3579 16.3079C85.625 16.3007 85.7141 16.3963 85.6654 16.6428C85.6378 16.7829 85.6252 16.9365 85.5571 17.0565C84.961 18.1065 84.3623 19.1553 83.7481 20.1948C82.9229 21.5915 82.0892 22.9832 81.2479 24.3703C80.5078 25.5906 79.7528 26.8018 79.0034 28.0165C78.5214 28.7977 78.0341 29.5757 77.5586 30.3609C77.4888 30.476 77.4717 30.623 77.4302 30.7553C77.5633 30.7938 77.6962 30.8651 77.8295 30.8657C79.1191 30.871 80.4092 30.8787 81.6985 30.8533C82.14 30.8447 82.588 30.7797 83.0186 30.6789C83.908 30.4708 84.4004 29.8162 84.7726 29.0355C85.1222 28.302 85.1612 27.5047 85.2891 26.7244C85.3018 26.6468 85.3673 26.5779 85.4082 26.5049C85.4437 26.5894 85.5146 26.676 85.5095 26.7579C85.4293 28.0513 85.3394 29.3441 85.2516 30.637C85.247 30.7046 85.2403 30.7721 85.2369 30.8397C85.2236 31.1004 85.103 31.1943 84.8288 31.191C83.5974 31.1759 82.3657 31.1847 81.1341 31.1843C78.7971 31.1835 76.4601 31.1834 74.1231 31.1779C74.0075 31.1776 73.892 31.1281 73.7764 31.1015C73.8139 30.9847 73.8318 30.8566 73.8918 30.7528C75.0137 28.8106 76.1312 26.8658 77.2696 24.9333C78.0937 23.5344 78.9477 22.1531 79.7867 20.763C79.9214 20.5397 80.0475 20.3112 80.1881 20.0667Z" fill="#FAFAFA"/>
<path d="M55.1001 26.5596C55.2213 26.7558 55.2933 26.9571 55.4419 27.1978C55.5315 27.0759 55.5959 26.9883 55.6904 26.8833C55.804 26.9437 55.9353 27.0069 56.0188 27.0845C55.6733 27.9002 55.2836 28.7318 54.9332 29.5454C54.7233 30.0328 54.5016 30.5151 54.282 30.9983C54.2224 31.1294 54.1097 31.3628 54.0064 31.5031C53.901 31.5386 53.8557 31.4795 53.7877 31.5031C53.6753 31.2977 53.5693 31.0733 53.4714 30.8611C52.9761 29.787 52.4986 28.7046 51.9938 27.635C51.5286 26.6494 51.0194 25.6884 50.5504 24.6784C50.4452 24.5099 50.491 24.5791 50.4629 24.5472C49.9521 23.47 49.482 22.3804 48.96 21.3088C48.2984 19.9508 47.5789 18.5834 46.9193 17.1975C46.9972 16.9572 46.8725 17.0924 46.7881 17.0663C46.6684 16.9488 46.472 16.7421 46.3506 16.5851C46.3879 16.4563 46.4865 16.4118 46.5256 16.3226C47.8075 16.3239 49.1509 16.2992 50.4629 16.3226C50.5287 16.4458 50.5145 16.5713 50.5504 16.6726C50.6062 16.8731 50.6978 17.1068 50.7478 17.3363C50.7554 17.3943 50.7557 17.3871 50.7691 17.4163C50.9777 17.8151 51.1756 18.2181 51.3711 18.6232C51.7274 19.3611 52.07 20.1055 52.4174 20.8477C53.0307 22.1582 53.6416 23.4699 54.2571 24.7795C54.4702 25.2329 54.6961 25.6803 54.9105 26.1331C54.9506 26.2179 54.9824 26.3103 55.0126 26.4283C55.0289 26.4917 55.1001 26.5107 55.1001 26.5596Z" fill="#FAFAFA"/>
<path d="M57.0684 23.5417C57.2819 22.9835 57.5497 22.3117 57.769 21.7558C58.2692 20.4881 58.7805 19.2247 59.2736 17.9543C59.3844 17.669 59.4674 17.3661 59.5118 17.0638C59.5552 16.7686 59.4164 16.6339 59.1139 16.6248C58.736 16.6134 58.3575 16.6209 57.9793 16.6201C57.9114 16.62 57.8348 16.6398 57.7776 16.6151C57.6749 16.5707 57.5838 16.4994 57.4879 16.4393C57.5825 16.4022 57.677 16.3332 57.7718 16.3327C59.2459 16.3262 60.72 16.3275 62.1941 16.3312C62.2844 16.3315 62.4264 16.3391 62.4548 16.3916C62.5309 16.5329 62.468 16.6253 62.2892 16.6237C61.8043 16.6195 61.3191 16.6328 60.8346 16.6187C60.5256 16.6098 60.3152 16.7198 60.1968 17.0096C59.8789 17.7879 59.558 18.5651 59.2366 19.342C58.7565 20.5025 58.2741 21.6621 57.7946 22.8229C57.6989 23.0547 57.5864 23.3901 57.4621 23.6292C57.3197 23.5996 57.1774 23.5766 57.0684 23.5417Z" fill="#FAFAFA"/>
<path d="M57.2001 23.2344C57.3232 23.2542 57.4209 23.3992 57.5501 23.4439C57.2239 24.2555 56.6153 25.6989 56.2377 26.5155C56.1589 26.4113 56.1541 26.022 56.1064 25.903C56.2538 25.5233 56.545 24.8714 56.6932 24.492C56.8279 24.1474 57.0504 23.5937 57.2001 23.2344Z" fill="#FAFAFA"/>
<path d="M50.5502 16.6702C50.4914 16.5778 50.4576 16.4423 50.4189 16.3202C51.0536 16.2986 51.7133 16.3292 52.3507 16.3289C52.4183 16.3289 52.4975 16.3121 52.5503 16.3412C52.6134 16.376 52.6539 16.4519 52.7041 16.51C52.647 16.5458 52.5904 16.6118 52.5327 16.6127C52.0016 16.6212 51.4703 16.6161 50.9391 16.6206C50.8127 16.6264 50.6814 16.6702 50.5502 16.6702Z" fill="#FAFAFA"/>
<path d="M46.569 16.3228C46.5542 16.4131 46.5692 16.5617 46.5252 16.6726C45.9906 16.6869 45.3514 16.6318 44.8224 16.609C44.7159 16.6044 44.6132 16.5094 44.5088 16.456C44.5969 16.407 44.6844 16.3168 44.7731 16.3156C45.3451 16.3079 45.9725 16.3163 46.569 16.3228Z" fill="#FAFAFA"/>
<path d="M56.2373 25.5977C56.304 25.7093 56.3457 25.87 56.4159 25.9922C56.3248 26.3851 56.0483 27.0191 55.8873 27.3913C55.7884 27.3262 55.6855 27.119 55.5811 27.0413C55.7381 26.6347 56.0402 26.0116 56.2373 25.5977Z" fill="#FAFAFA"/>
<path d="M53.7871 31.5016C53.8528 31.4576 53.9583 31.4358 54.0496 31.4141C54.0253 31.4898 53.9616 31.5578 53.914 31.6317C53.8796 31.5937 53.8238 31.56 53.7871 31.5016Z" fill="#FAFAFA"/>
<path d="M46.7002 16.9766C46.7798 16.9858 47.1377 17.0203 46.9627 17.239C46.8976 17.2022 46.7536 17.0425 46.7002 16.9766Z" fill="#FAFAFA"/>
<path d="M55.0467 26.5478C55.0214 26.5323 54.9924 26.5013 54.9795 26.4609C55.0114 26.4785 55.0272 26.5054 55.0467 26.5478Z" fill="#FAFAFA"/>
<path d="M50.7444 17.4069C50.734 17.3952 50.7206 17.366 50.7207 17.3281C50.7366 17.3428 50.739 17.3662 50.7444 17.4069Z" fill="#FAFAFA"/>
<path d="M31.0607 17.1719C31.0734 17.1927 31.0732 17.2134 31.0716 17.234C31.0715 17.2346 31.0555 17.2339 31.0469 17.2338C31.0472 17.2131 31.0474 17.1924 31.0607 17.1719Z" fill="#FAFAFA"/>
<path d="M101.56 17.3289C101.457 17.2924 101.377 17.2326 101.298 17.1728C101.347 17.1374 101.396 17.1019 101.446 17.0664C101.492 17.1461 101.538 17.2258 101.56 17.3289Z" fill="#FAFAFA"/>
<path d="M95.3705 23.0801C95.3534 23.1082 95.3651 23.1607 95.3482 23.1891C95.337 23.1794 95.272 23.155 95.2607 23.1453C95.279 23.1291 95.3146 23.0773 95.3482 23.0579C95.3482 23.0142 95.3708 23.0805 95.3705 23.0801Z" fill="#FAFAFA"/>
<path d="M94.5606 27.8699C94.5169 27.9136 94.4407 27.8106 94.4014 27.7744C94.4365 27.7519 94.4716 27.7295 94.5067 27.707C94.5189 27.7559 94.6044 27.8699 94.5606 27.8699Z" fill="#FAFAFA"/>
<path d="M96.7478 27.3477C96.7619 27.3707 96.8353 27.4352 96.7821 27.4816C96.8353 27.4789 96.7136 27.5227 96.7041 27.5226C96.7043 27.4997 96.7332 27.3704 96.7478 27.3477Z" fill="#FAFAFA"/>
<circle cx="90.7106" cy="36.7507" r="2.0124" fill="#FAFAFA"/>
<g clip-path="url(#clip1_4300_4956)">
<path d="M64.3506 10.0024C64.3506 8.29678 65.9416 6.91406 67.9041 6.91406C69.8667 6.91406 71.4577 8.29677 71.4577 10.0024V14.0621C71.4577 14.0826 71.441 14.0993 71.4205 14.0993H70.5011C70.4959 14.0993 70.4908 14.0982 70.4861 14.0961L67.8512 12.9282C67.8415 12.9239 67.8305 12.924 67.8209 12.9283L65.2265 14.096C65.2217 14.0982 65.2165 14.0993 65.2112 14.0993H64.3878C64.3672 14.0993 64.3506 14.0826 64.3506 14.0621V10.0024Z" fill="#169544"/>
<path d="M67.8576 9.66406L70.4954 14.0998L67.8576 12.9325L65.2197 14.0998L67.8576 9.66406Z" fill="#FAFAFA"/>
</g>
<g clip-path="url(#clip2_4300_4956)">
<path d="M64.3506 10.0024C64.3506 8.29678 65.9416 6.91406 67.9041 6.91406C69.8667 6.91406 71.4577 8.29677 71.4577 10.0024V14.0621C71.4577 14.0826 71.441 14.0993 71.4205 14.0993H70.5011C70.4959 14.0993 70.4908 14.0982 70.4861 14.0961L67.8512 12.9282C67.8415 12.9239 67.8305 12.924 67.8209 12.9283L65.2265 14.096C65.2217 14.0982 65.2165 14.0993 65.2112 14.0993H64.3878C64.3672 14.0993 64.3506 14.0826 64.3506 14.0621V10.0024Z" fill="#169544"/>
<path d="M67.8576 9.66406L70.4954 14.0998L67.8576 12.9325L65.2197 14.0998L67.8576 9.66406Z" fill="#FAFAFA"/>
</g>
</g>
<defs>
<clipPath id="clip0_4300_4956">
<rect width="104.995" height="44" fill="white" transform="translate(0.50293 0.441406)"/>
</clipPath>
<clipPath id="clip1_4300_4956">
<rect width="7.10711" height="7.18521" fill="white" transform="translate(64.3506 6.91406)"/>
</clipPath>
<clipPath id="clip2_4300_4956">
<rect width="7.10711" height="7.18521" fill="white" transform="translate(64.3506 6.91406)"/>
</clipPath>
</defs>
</svg>
