<svg width="400" height="100" viewBox="0 0 400 100" fill="none" xmlns="http://www.w3.org/2000/svg">
<g clip-path="url(#clip0_4238_4529)">
<path d="M0.222656 68.9695C1.61188 68.8609 3.01612 68.8615 4.38559 68.7317C5.47791 68.6281 5.97035 68.0667 6.3112 67.4809C7.94397 64.6747 9.55877 61.8647 11.218 59.0641C15.0387 52.6154 18.8777 46.1705 22.7167 39.7256C25.2225 35.5189 27.7241 31.3112 30.2601 27.1109C32.2961 23.7387 34.3941 20.3798 36.4369 17.009C37.1753 15.7906 37.825 14.5532 38.5356 13.3286C38.653 13.1262 38.8756 12.9455 39.0495 12.7547C39.1673 12.7545 39.2851 12.7542 39.4029 12.7539C40.0045 13.5683 40.6298 14.3767 41.2036 15.1979C44.4386 19.828 47.6652 24.4602 50.8869 29.0935C54.1515 33.7886 57.3948 38.4891 60.6705 43.1815C63.7483 47.5903 66.8407 51.9956 69.9559 56.3951C72.2665 59.6582 74.6237 62.9096 76.9602 66.1662C76.9892 66.2067 77.0188 66.2471 77.0482 66.2875C78.3389 68.0621 80.3484 69.1877 83.8485 69.0001C84.5078 68.9647 85.1774 69.0013 85.842 68.9949C86.5545 68.9879 86.9639 69.1614 86.9727 69.6129C86.9818 70.0772 86.4661 70.1483 85.862 70.1505C82.7957 70.1619 79.7292 70.1833 76.6629 70.1778C69.7544 70.1655 62.8459 70.1402 55.9374 70.1172C55.4955 70.1157 55.0504 70.1041 54.613 70.0695C53.9985 70.0209 53.6107 69.7803 53.8224 69.4336C53.9462 69.2309 54.4282 68.9847 54.7722 68.9714C56.6868 68.8974 58.6089 68.8597 60.5277 68.869C61.6082 68.8743 61.9552 68.5954 61.6919 68.0269C61.4575 67.521 61.1362 67.0272 60.8055 66.5395C57.8189 62.1351 54.8077 57.7367 51.8444 53.3267C51.4356 52.7184 50.8999 52.4495 49.7421 52.4539C43.647 52.4772 37.5515 52.451 31.4561 52.4418C27.3552 52.4356 23.254 52.4456 19.1538 52.4118C18.0856 52.403 17.5432 52.5638 17.1668 53.2311C15.3442 56.4618 13.3501 59.6581 11.5152 62.8865C10.6517 64.4056 9.98423 65.9653 9.27654 67.5145C8.86772 68.4094 9.35222 68.809 10.9282 68.8521C13.1411 68.9126 15.3601 68.8968 17.5716 68.9679C17.9588 68.9803 18.5517 69.219 18.6524 69.423C18.9341 69.9938 18.5948 70.1683 17.4729 70.1677C12.3008 70.1645 7.12866 70.1597 1.95653 70.1572C1.43985 70.157 0.923147 70.1685 0.314555 70.2069C0.222656 70.0982 0.222656 69.9571 0.322414 69.7631C3.14492 69.7128 5.8679 69.7039 8.59033 69.723C9.91651 69.7323 11.2411 69.8118 12.5674 69.8274C14.2658 69.8474 15.9654 69.8408 17.6641 69.8274C17.8268 69.8261 18.0853 69.7097 18.1189 69.6221C18.1495 69.5425 17.9523 69.3545 17.824 69.3433C17.1026 69.2807 16.3728 69.2438 15.6439 69.2228C13.7855 69.1695 11.8979 69.2278 10.0786 69.0431C9.14156 68.9479 8.32528 68.4296 7.58922 68.1531C7.9863 67.9541 8.66096 67.7848 8.80312 67.5154C9.40165 66.3815 9.47357 65.17 10.1925 64.0434C10.9873 62.7979 11.7063 61.5351 12.4457 60.2772C13.1115 59.1442 13.7589 58.0074 14.417 56.8728C14.948 55.9575 15.49 55.0444 16.0136 54.1276C16.4267 53.4042 16.8192 52.6765 17.2161 51.9593C17.3427 51.9558 17.6524 51.96 17.9558 51.936C18.4101 51.9002 18.8612 51.8049 19.3113 51.8098C19.6991 51.814 20.0888 51.986 20.469 51.9752C22.8261 51.9083 25.1971 52.1545 27.5453 51.8631C27.7818 51.8337 28.052 51.8868 28.3025 51.9146C28.8664 51.9773 29.4266 52.0514 29.9902 52.1151C31.9979 52.3421 33.9391 51.854 36.0312 52.053C38.7329 52.3101 41.5558 52.1285 44.3255 52.1017C44.7678 52.0974 45.2052 51.9145 45.6449 51.8142C45.6075 51.7323 45.5701 51.6505 45.5326 51.5687C44.2186 51.5322 42.9042 51.4629 41.5905 51.4679C40.0849 51.4736 38.5793 51.5863 37.0747 51.5792C34.1784 51.5655 31.2831 51.4904 28.3868 51.4598C26.5773 51.4406 24.7664 51.4681 22.9572 51.4454C22.6189 51.4411 22.2856 51.2979 22.0476 51.1953C30.9386 51.1732 39.732 51.1766 48.5254 51.1734C49.7691 51.173 49.9056 51.0484 49.4587 50.3577C48.8073 49.3511 48.1324 48.3499 47.4659 47.3467C43.1044 40.782 38.7451 34.2167 34.3745 27.6542C34.0915 27.2292 33.7195 26.8254 33.2608 26.2514C32.9184 26.7391 32.6972 27.0154 32.5271 27.3026C31.0528 29.7918 29.6086 32.2874 28.1153 34.7726C25.029 39.9088 21.9084 45.0377 18.8417 50.178C18.6627 50.478 18.8373 50.853 18.8366 51.2403C17.7385 51.6479 17.9042 51.0709 17.9971 50.8185C18.2467 50.1404 18.5986 49.4711 19.0024 48.8187C19.5644 47.9108 20.2457 47.0292 20.811 46.122C21.3949 45.185 21.8697 44.2238 22.4487 43.2857C23.2787 41.9411 24.203 40.617 25.0078 39.2673C25.9193 37.7387 26.7277 36.1883 27.61 34.6534C28.3006 33.4521 29.0392 32.2607 29.7493 31.0634C30.0817 30.5028 30.8759 30.0102 30.4762 29.3393C31.6126 29.1133 30.5222 28.436 31.1658 28.1009C31.1969 28.0847 31.0286 27.9322 30.9531 27.8432C30.7702 27.92 30.4961 27.9741 30.4228 28.0784C30.2583 28.3123 30.2704 28.5961 30.0715 28.8145C29.703 29.2193 29.0182 29.5879 30.4385 30.0688C29.0372 30.0056 28.7939 30.4173 28.5737 30.8915C28.3821 31.3042 27.9253 31.6821 27.8139 32.0972C27.6102 32.8562 26.1884 33.4918 27.049 34.1932C26.585 34.6201 26.1813 34.9291 25.8918 35.2725C25.4646 35.7791 25.468 36.3487 24.973 36.8909C24.0832 37.8654 23.6942 39.0008 23.0689 40.0634C22.0936 41.7204 21.1096 43.3757 20.104 45.0262C18.8456 47.0919 17.4994 49.1395 16.3271 51.2221C15.9841 51.8314 15.3419 52.5045 16.1126 53.2312C15.7785 53.2312 15.4796 53.2312 15.1126 53.2312C15.6022 54.0534 13.3644 54.568 14.6316 55.3772C14.2787 55.5494 13.9033 55.6462 13.7757 55.8112C13.4156 56.2769 13.1467 56.7683 12.8608 57.2535C12.1431 58.4714 11.4328 59.6908 10.7251 60.9108C9.73661 62.6148 8.75711 64.3206 7.76561 66.024C7.38703 66.6743 7.09264 67.3533 6.56263 67.9577C6.1051 68.4795 5.36783 68.9139 4.80703 69.3462C3.19885 69.0043 1.71718 69.3589 0.222656 69.4457C0.222656 69.3046 0.222656 69.1635 0.222656 68.9695ZM32.4788 26.3338C32.7399 26.125 33.0009 25.9163 33.3845 25.6094C33.2245 25.3778 32.9657 25.003 32.7069 24.6281C32.4678 24.9148 32.5506 25.1648 32.4097 25.3561C32.0656 25.8233 31.7034 26.3021 31.1907 26.7048C30.5142 27.2362 31 27.4159 31.7938 27.6269C32.0112 27.2093 32.2138 26.8201 32.4788 26.3338ZM46.6971 51.8619C47.4821 52.2578 48.8675 52.2266 49.6918 51.7188C48.5995 51.5809 47.6326 51.4184 46.6971 51.8619Z" fill="#1D1D1D"/>
<path d="M0.222656 69.4864C1.71718 69.3556 3.19885 69.001 4.80703 69.3429C5.36783 68.9106 6.1051 68.4762 6.56263 67.9544C7.09264 67.35 7.38703 66.671 7.76561 66.0206C8.75711 64.3173 9.73661 62.6115 10.7251 60.9075C11.4328 59.6875 12.1431 58.4681 12.8608 57.2502C13.1467 56.765 13.4156 56.2735 13.7757 55.8079C13.9033 55.6429 14.2787 55.5461 14.6316 55.3739C13.3644 54.5647 15.6022 54.0501 15.1126 53.2279C15.4796 53.2279 15.7785 53.2279 16.1126 53.2279C15.3419 52.5012 15.9841 51.8281 16.3271 51.2188C17.4994 49.1362 18.8456 47.0885 20.104 45.0229C21.1096 43.3724 22.0936 41.7171 23.0689 40.0601C23.6942 38.9975 24.0832 37.8621 24.973 36.8876C25.468 36.3454 25.4646 35.7758 25.8918 35.2691C26.1813 34.9258 26.585 34.6167 27.049 34.1899C26.1884 33.4885 27.6102 32.8529 27.8139 32.0939C27.9253 31.6788 28.3821 31.3009 28.5737 30.8882C28.7939 30.414 29.0372 30.0023 30.4385 30.0655C29.0182 29.5846 29.703 29.216 30.0715 28.8112C30.2704 28.5928 30.2583 28.309 30.4228 28.0751C30.4961 27.9708 30.7702 27.9167 30.9531 27.8398C31.0286 27.9289 31.1969 28.0814 31.1658 28.0976C30.5222 28.4327 31.6126 29.11 30.4762 29.336C30.8759 30.0069 30.0817 30.4994 29.7493 31.0601C29.0392 32.2574 28.3006 33.4488 27.61 34.6501C26.7277 36.185 25.9193 37.7354 25.0078 39.264C24.203 40.6136 23.2787 41.9378 22.4487 43.2824C21.8697 44.2205 21.3949 45.1817 20.811 46.1187C20.2457 47.0259 19.5644 47.9075 19.0024 48.8154C18.5986 49.4678 18.2467 50.1371 17.9971 50.8152C17.9042 51.0676 17.7385 51.6446 18.9204 51.2227C19.1841 51.176 19.3532 51.1909 19.5545 51.2444C19.858 51.2577 20.1294 51.2325 20.493 51.1865C21.0402 51.1824 21.4951 51.1989 21.95 51.2155C22.2856 51.2946 22.6189 51.4378 22.9572 51.4421C24.7664 51.4648 26.5773 51.4373 28.3868 51.4565C31.2831 51.4871 34.1784 51.5622 37.0747 51.5759C38.5793 51.583 40.0849 51.4702 41.5905 51.4646C42.9042 51.4596 44.2186 51.5289 45.5326 51.5654C45.5701 51.6472 45.6075 51.729 45.6449 51.8108C45.2052 51.9112 44.7678 52.0941 44.3255 52.0983C41.5558 52.1252 38.7329 52.3067 36.0312 52.0497C33.9391 51.8507 31.9979 52.3387 29.9902 52.1118C29.4266 52.0481 28.8664 51.974 28.3025 51.9113C28.052 51.8835 27.7818 51.8304 27.5453 51.8598C25.1971 52.1512 22.8261 51.905 20.469 51.9719C20.0888 51.9827 19.6991 51.8106 19.3113 51.8064C18.8612 51.8016 18.4101 51.8969 17.9558 51.9327C17.6524 51.9566 17.3427 51.9525 17.2161 51.956C16.8192 52.6732 16.4267 53.4008 16.0136 54.1243C15.49 55.0411 14.948 55.9542 14.417 56.8695C13.7589 58.0041 13.1115 59.1409 12.4457 60.2738C11.7063 61.5318 10.9873 62.7946 10.1925 64.0401C9.47357 65.1667 9.40165 66.3781 8.80312 67.5121C8.66096 67.7815 7.9863 67.9508 7.58922 68.1498C8.32528 68.4263 9.14156 68.9446 10.0786 69.0398C11.8979 69.2245 13.7855 69.1662 15.6439 69.2195C16.3728 69.2405 17.1026 69.2774 17.824 69.34C17.9523 69.3511 18.1495 69.5392 18.1189 69.6187C18.0853 69.7064 17.8268 69.8228 17.6641 69.8241C15.9654 69.8374 14.2658 69.8441 12.5674 69.8241C11.2411 69.8084 9.91651 69.729 8.59033 69.7197C5.8679 69.7006 3.14492 69.7095 0.322414 69.7069C0.222656 69.6481 0.222656 69.5893 0.222656 69.4864Z" fill="#1D1D1D"/>
<path d="M246.564 70.1562C245.16 70.1564 243.867 70.1598 242.574 70.1559C241.939 70.1539 241.373 70.097 241.374 69.5942C241.375 69.0675 241.993 69.0865 242.601 69.0682C244 69.0262 245.419 69.0455 246.794 68.9112C249.117 68.6843 250.374 67.8402 250.471 66.4383C250.578 64.8979 250.545 63.3537 250.541 61.8111C250.524 55.0445 250.526 48.2778 250.439 41.5115C250.426 40.5423 250.181 39.5292 249.646 38.6193C249.048 37.5998 247.617 37.026 245.688 37.0252C244.764 37.0248 243.839 37.0162 242.919 36.9755C242.269 36.9467 241.354 37.0803 241.328 36.4436C241.298 35.7218 242.315 35.9036 242.961 35.9023C249.353 35.8894 255.745 35.9023 262.137 35.9068C264.834 35.9086 267.531 35.9056 270.228 35.9101C270.835 35.9111 271.459 35.9125 271.453 36.4383C271.446 36.9764 270.79 36.9353 270.201 36.9438C268.502 36.9683 266.803 37.0021 265.104 36.9991C264.273 36.9977 263.924 37.1554 263.926 37.6876C263.971 47.4089 263.989 57.1303 264.016 66.8516C264.017 67.0938 264.008 67.3397 264.072 67.5774C264.254 68.2609 264.75 68.8157 266.039 68.8902C267.576 68.9791 269.121 69.0244 270.663 69.078C271.265 69.0989 271.894 69.0597 271.905 69.5908C271.915 70.151 271.275 70.1481 270.614 70.1483C262.634 70.1501 254.655 70.1534 246.564 70.1562Z" fill="#1D1D1D"/>
<path d="M113.35 42.405C112.18 44.0476 111.69 45.7312 111.399 47.4428C110.645 51.8686 112.032 56.0739 115.087 60.1019C116.368 61.7904 117.845 63.4052 119.917 64.8167C123.169 67.032 128.652 67.969 133.335 67.033C136.652 66.3699 138.271 64.8013 139.195 62.9372C139.684 61.9507 139.922 60.9177 140.218 59.9001C140.356 59.4255 140.614 59.1162 141.547 59.1483C142.447 59.1794 142.506 59.5272 142.493 59.9303C142.34 64.8411 137.01 69.6994 128.258 70.6563C118.571 71.7155 110.209 70.0649 103.597 65.6205C99.5517 62.901 97.0918 59.7095 96.1931 56.1132C95.2938 52.5146 95.4338 48.957 97.6432 45.5019C100.873 40.4511 106.622 37.0346 115.569 35.7476C121.262 34.9287 126.972 34.8583 132.612 35.9589C137.364 36.8861 140.732 38.8381 143.471 41.2429C144.119 41.811 144.752 42.385 145.391 42.9563C145.494 42.9395 145.597 42.9227 145.699 42.9059C145.738 42.6842 145.809 42.4626 145.812 42.2408C145.889 34.9895 145.961 27.7381 146.031 20.4868C146.047 18.8556 146.084 17.2241 146.047 15.5932C146.034 15.026 145.877 14.454 145.691 13.8955C145.46 13.2032 144.503 12.6913 143.322 12.6009C141.931 12.4943 140.534 12.4156 139.137 12.3363C138.531 12.3019 138.02 12.216 138.02 11.7743C138.02 11.3258 138.444 11.1664 139.162 11.168C145.74 11.1821 152.317 11.1937 158.895 11.1918C160.087 11.1915 160.149 11.6353 160.15 12.1633C160.153 17.1014 160.174 22.0395 160.176 26.9776C160.183 40.1384 160.181 53.2993 160.19 66.4602C160.192 68.6679 160.619 68.9208 164.292 68.9844C165.178 68.9997 166.067 69.0184 166.952 68.9933C167.734 68.9711 168.153 69.137 168.159 69.6197C168.165 70.1178 167.595 70.1773 166.957 70.1815C166.255 70.1861 165.552 70.1795 164.851 70.1901C159.164 70.2757 153.477 70.3651 147.791 70.4512C145.993 70.4784 145.994 70.4753 145.994 69.4287C145.994 65.659 146.036 61.8891 145.978 58.1197C145.924 54.5945 145.785 51.0696 145.622 47.5456C145.598 47.0078 145.366 46.4439 145.015 45.9461C143.207 43.3818 140.81 41.0371 137.192 39.2343C133.476 37.3827 129.108 36.6021 124.307 36.8802C119.347 37.1674 115.96 38.8075 113.959 41.5007C113.75 41.782 113.571 42.0714 113.35 42.405ZM146.382 13.848C146.441 14.5846 146.551 15.3211 146.552 16.0577C146.561 24.2122 146.559 32.3667 146.539 40.5211C146.537 41.4114 146.424 42.3022 146.319 43.1909C146.302 43.3359 146.106 43.5236 145.9 43.5926C145.766 43.6375 145.422 43.5319 145.246 43.4425C144.999 43.3174 144.826 43.1416 144.61 42.9928C144.319 42.7916 144.019 42.5955 143.517 42.2602C143.027 40.9356 141.181 39.9528 139.244 38.8141C139.482 39.3901 139.462 39.9011 139.866 40.2218C141.342 41.3922 143.031 42.4676 144.037 43.8326C144.628 44.6346 145.547 45.3942 145.808 46.2296C146.262 47.6858 146.498 49.185 146.515 50.6675C146.59 56.8822 146.548 63.0975 146.553 69.3125C146.553 69.5636 146.593 69.8147 146.616 70.1007C147.78 70.1007 148.801 70.1215 149.819 70.0968C152.796 70.0244 155.771 69.9095 158.75 69.8582C161.075 69.8181 163.404 69.8488 165.732 69.8464C166.175 69.846 166.622 69.8588 167.059 69.8239C167.234 69.8099 167.385 69.6841 167.547 69.6091C167.382 69.5133 167.243 69.3695 167.047 69.3333C166.776 69.2832 166.462 69.3179 166.167 69.3093C164.697 69.2667 163.224 69.2451 161.76 69.1693C160.799 69.1196 160.06 68.7927 159.899 68.2121C159.725 67.5873 159.666 66.9444 159.672 66.3098C159.716 61.3991 159.801 56.4886 159.841 51.5779C159.849 50.5243 159.675 49.4704 159.671 48.4165C159.652 43.3778 159.69 38.3389 159.656 33.3002C159.609 26.2527 159.505 19.2052 159.462 12.1577C159.459 11.6167 159.161 11.4755 158.313 11.4998C157.06 11.5358 155.802 11.509 154.338 11.5054C151.72 11.5312 149.101 11.5418 146.484 11.587C143.938 11.631 141.375 11.3133 138.822 11.7391C140.034 11.9738 141.261 12.1234 142.497 12.1593C144.376 12.2141 145.734 12.6411 146.382 13.848ZM123.836 35.5725C120.478 35.458 117.221 35.8107 114.018 36.3639C111.403 36.8155 108.949 37.5092 106.795 38.4932C102.53 40.4415 99.6516 42.9916 97.9549 46.0314C96.6143 48.4333 96.1522 50.8741 96.3695 53.4112C96.5096 55.0473 96.8312 56.6486 97.5461 58.2098C98.6048 60.5219 100.444 62.5945 102.901 64.5261C104.547 65.8195 106.38 66.96 108.539 67.87C113.376 69.9084 118.866 70.8033 124.771 70.6096C127.417 70.5228 129.999 70.1652 132.42 69.4151C134.171 68.8724 135.67 68.1966 136.905 67.2929C137.192 67.0826 137.478 66.8718 137.765 66.6612C137.696 66.6191 137.627 66.577 137.558 66.5349C137.792 66.5222 138.025 66.5095 138.317 66.4936C138.208 66.3321 138.132 66.2189 138.16 66.2605C138.534 65.9549 138.832 65.7497 139.056 65.519C139.438 65.1275 139.945 64.8242 139.902 64.2503C139.869 63.8021 140.855 63.3597 141.065 62.8658C141.468 61.9174 141.664 60.9362 141.882 59.9634C141.91 59.8373 141.555 59.6808 141.378 59.5383C141.218 59.6684 140.971 59.7865 140.915 59.931C140.755 60.3407 140.681 60.7621 140.558 61.1772C140.052 62.884 139.182 64.5249 137.303 65.868C135.084 67.4541 129.075 68.2659 125.829 67.5329C122.161 66.7043 119.215 65.3256 117.296 63.2873C115.829 61.7293 114.484 60.1166 113.364 58.4611C112.467 57.135 111.88 55.7223 111.363 54.3208C111.002 53.3439 111.017 52.3192 110.823 51.3188C110.387 49.0734 110.68 46.8496 111.572 44.6688C112.06 43.4735 112.786 42.3024 113.583 41.1646C114.848 39.3572 116.895 37.9062 119.997 37.1735C123.699 36.299 127.515 36.2386 131.331 36.9899C132.345 37.1895 133.371 37.4406 134.26 36.7232C133.777 36.7756 133.294 36.828 132.701 36.8922C132.803 36.7018 132.872 36.5735 132.973 36.3841C129.97 36.0552 127.119 35.4305 123.836 35.5725Z" fill="#1D1D1D"/>
<path d="M342.263 78.2673C345.461 78.016 347.995 78.5952 349.722 80.1776C350.398 80.7969 351.115 80.8379 352.147 80.5857C354.243 80.0733 355.54 79.0863 356.365 77.9155C358.107 75.4444 359.681 72.9316 361.348 70.4416C361.896 69.6226 361.283 68.9291 360.744 68.2383C356.777 63.1525 352.834 58.0599 348.79 52.9957C345.192 48.4896 341.479 44.0161 337.804 39.5317C337.4 39.0376 336.961 38.5496 336.462 38.0879C335.795 37.4709 334.938 37.0436 333.569 37.0722C332.43 37.0959 331.285 36.9966 330.141 36.9872C329.33 36.9805 328.998 36.7487 329.027 36.2944C329.059 35.7991 329.639 35.7728 330.279 35.7735C336.45 35.7802 342.621 35.781 348.792 35.7844C352.191 35.7863 355.591 35.792 358.99 35.791C359.837 35.7907 360.338 35.9669 360.238 36.5352C360.155 37.0033 359.654 37.0876 358.991 37.087C356.884 37.085 354.778 37.089 352.672 37.1014C351.179 37.1102 350.979 37.2616 351.611 38.0629C353.37 40.2944 355.201 42.5058 356.971 44.7344C360.035 48.5929 363.076 52.4582 366.125 56.3209C366.878 57.2742 367.619 58.2307 368.383 59.1807C368.551 59.3895 368.794 59.5768 369.18 59.9421C369.62 59.4311 369.991 59.0718 370.252 58.6861C373.696 53.6077 377.134 48.5281 380.548 43.4426C381.371 42.2165 382.144 40.9768 382.852 39.7256C383.179 39.1478 383.359 38.5322 383.484 37.9247C383.592 37.4014 383.138 37.1115 382.187 37.0998C380.047 37.0734 377.906 37.0283 375.767 36.9709C375.105 36.9532 374.376 36.9372 374.43 36.3389C374.484 35.7508 375.19 35.7751 375.866 35.7764C381.63 35.7871 387.395 35.8017 393.16 35.8135C393.791 35.8148 394.346 35.8426 394.4 36.3469C394.46 36.8981 393.861 36.9517 393.193 36.9682C391.829 37.0019 390.461 37.0789 389.101 37.0446C387.758 37.0108 387.031 37.4102 386.577 38.0785C385.648 39.4457 384.723 40.8139 383.829 42.1892C382.696 43.9327 381.644 45.6954 380.47 47.4289C378.218 50.7542 375.947 54.0754 373.607 57.3788C370.149 62.2604 366.623 67.125 363.125 71.9965C361.542 74.2015 360.068 76.4379 358.333 78.5997C357.062 80.1836 355.006 81.3992 352.194 82.0563C351.416 82.2382 351.135 82.5164 351.068 82.9881C350.79 84.9268 348.411 86.5112 345.086 87.0122C342.4 87.417 338.916 86.5557 337.307 85.0314C334.73 82.5898 336.612 78.9243 342.263 78.2673ZM358.536 64.3984C358.847 64.8182 359.14 65.2428 359.472 65.6567C360.028 66.3525 360.609 67.0414 361.198 67.7278C361.198 67.7278 361.181 67.735 361.179 67.8391C361.255 68.0047 361.29 68.1828 361.416 68.3337C362.06 69.1045 362.352 69.8774 361.774 70.7227C360.009 73.3068 358.308 75.9069 356.51 78.4827C355.852 79.424 354.722 80.1689 353.057 80.7181C352.37 80.8467 351.683 80.9753 350.833 81.0961C350.52 81.0046 350.207 80.9131 349.832 80.7414C349.266 80.3646 348.7 79.9878 348.059 79.5333C346.509 78.5943 344.423 78.4814 342.519 78.6242C339.928 78.8187 337.907 79.6896 337.096 81.41C336.996 81.7869 336.896 82.1639 336.792 82.6526C336.931 84.7686 339.735 86.823 343.544 86.7259C343.811 86.7018 344.077 86.6776 344.511 86.6565C344.679 86.6545 344.846 86.6525 345.175 86.6489C345.489 86.5652 345.804 86.4816 346.279 86.3853C347.525 86.0697 348.546 85.6129 349.185 84.7943C349.428 84.4941 349.671 84.1938 350.045 83.8435C350.136 83.7088 350.235 83.5759 350.316 83.4391C350.621 82.9219 350.921 82.4034 351.385 81.876C352.219 81.6133 353.054 81.3505 353.919 80.9996C356.092 80.2396 357.371 79.0182 358.433 77.7306C359.441 76.5078 360.235 75.2221 361.125 73.9645C362.409 72.1492 364.055 70.0052 365.349 68.0945C365.354 67.9987 365.205 68.2471 365.334 68.1093C365.512 67.9445 365.541 67.7406 365.834 67.5127C366.198 67.0346 366.526 66.5858 366.866 66.1017C368.688 63.5117 370.492 60.9175 372.313 58.3273C374.345 55.4381 376.426 52.5611 378.413 49.6609C379.908 47.4766 381.301 45.2668 382.716 43.063C383.689 41.5473 384.653 40.0291 385.553 38.4978C385.833 38.0224 385.985 37.4781 384.49 37.3064C384.906 36.9494 385.233 36.4364 385.548 36.4389C387.038 36.4503 385.886 37.1721 386.274 37.6927C387.113 36.3383 388.894 36.6904 390.439 36.6524C391.25 36.6324 392.067 36.6726 392.875 36.634C393.167 36.62 393.44 36.4556 393.721 36.3598C393.454 36.2792 393.187 36.1288 392.919 36.1282C387.033 36.1148 381.147 36.118 375.26 36.118C375.2 36.1914 375.228 36.2192 375.167 36.2927C375.404 36.3951 375.562 36.6337 375.786 36.625C376.147 36.6109 376.494 36.464 376.912 36.3565C376.873 36.5102 376.847 36.6137 376.804 36.7794C378.792 36.7794 380.701 36.7452 382.602 36.803C383.085 36.8177 383.922 37.1082 383.946 37.3004C384.035 38.0282 384.022 38.7912 383.736 39.4964C383.406 40.3115 382.771 41.0849 382.229 41.8668C381.229 43.3117 380.176 44.7437 379.191 46.1923C378.392 47.3682 377.659 48.5603 376.899 49.7458C376.016 51.1223 375.155 52.5039 374.247 53.8746C373.688 54.7188 373.01 55.5356 372.483 56.3863C372.191 56.8579 372.215 57.4028 371.89 57.8627C371.468 58.4598 370.852 59.0093 370.297 59.571C369.995 59.8764 369.644 60.1648 369.195 60.5695C368.797 60.2448 368.5 60.0564 368.309 59.8354C367.893 59.3533 367.532 58.8542 367.146 58.3627C365.813 56.6666 364.501 54.9646 363.135 53.2781C362.628 52.6517 362.001 52.1016 361.42 51.4568C361.42 51.4568 361.501 51.505 361.334 51.4056C361.148 51.1257 361.085 50.7873 360.87 50.5157C358.599 47.654 356.306 44.7987 354.049 41.9331C352.932 40.5138 351.846 39.0847 350.811 37.6435C350.427 37.1086 350.77 36.8058 351.651 36.7824C353.6 36.7305 355.551 36.6887 357.502 36.6629C357.973 36.6567 358.453 36.7703 358.918 36.7484C359.168 36.7366 359.397 36.5544 359.635 36.449C359.43 36.3376 359.251 36.1952 359.013 36.125C358.834 36.0723 358.578 36.1113 358.356 36.1112C349.158 36.1091 339.959 36.1073 330.761 36.1054C330.368 36.1053 329.976 36.1053 329.583 36.1053C329.533 36.19 329.483 36.2747 329.434 36.3594C329.737 36.4567 330.03 36.6232 330.344 36.6381C331.188 36.6784 332.056 36.5953 332.888 36.6697C334.012 36.7703 335.326 36.599 336.141 37.269C336.743 37.7641 337.363 38.2648 337.814 38.81C340.522 42.0777 343.177 45.3607 345.862 48.635C347.424 50.5397 349.02 52.4344 350.579 54.3402C351.719 55.7351 352.815 57.1429 353.945 58.5406C354.787 59.5821 355.653 60.6168 356.524 61.7517C356.887 62.2039 357.249 62.656 357.647 63.2021C357.937 63.569 358.227 63.9359 358.536 64.3984Z" fill="#1D1D1D"/>
<path d="M325.08 36.1115C325.381 37.5208 324.107 38.5856 323.055 39.6454C318.135 44.6032 313.147 49.5376 308.129 54.4604C303.648 58.8563 299.09 63.2242 294.585 67.6115C294.255 67.9324 294.084 68.3113 293.84 68.6631C294.44 68.7197 295.04 68.8275 295.639 68.8249C300.736 68.8029 305.837 68.8241 310.928 68.7069C315.981 68.5905 318.74 67.5376 320.801 64.3826C321.786 62.8751 321.957 61.1745 322.433 59.5547C322.575 59.0702 322.81 58.7161 323.736 58.8338C324.632 58.9475 324.48 59.3593 324.419 59.7814C324.119 61.8634 323.866 63.9479 323.616 66.0323C323.479 67.1732 323.322 68.3151 323.286 69.4577C323.265 70.0944 322.776 70.2291 321.841 70.2263C316.447 70.2102 311.052 70.2156 305.658 70.2134C297.234 70.2101 288.81 70.2066 280.386 70.2027C280.09 70.2026 279.792 70.2121 279.5 70.1925C278.46 70.1229 278.183 69.8905 278.678 69.3288C279.879 67.9667 281.13 66.6192 282.425 65.2879C285.423 62.2052 288.431 59.1254 291.487 56.0631C295.43 52.1128 299.43 48.1826 303.394 44.24C305.462 42.1837 307.512 40.1209 309.557 38.0566C309.791 37.8199 309.944 37.5543 310.214 37.1974C309.641 37.1657 309.258 37.126 308.875 37.1263C304.478 37.129 300.072 37.029 295.688 37.1699C288.802 37.3913 284.402 39.5501 283.054 43.7772C282.89 44.2928 282.728 44.8109 282.639 45.3323C282.575 45.709 282.41 45.9913 281.685 45.9835C280.976 45.9759 280.585 45.737 280.583 45.3164C280.578 44.4349 280.587 43.5531 280.623 42.6719C280.681 41.2851 280.762 39.8987 280.842 38.5123C280.882 37.8083 280.962 37.1049 280.984 36.4008C281 35.899 281.457 35.6899 282.222 35.6552C282.59 35.6386 282.961 35.64 283.33 35.6414C290.568 35.6695 297.805 35.7062 305.043 35.7253C310.507 35.7397 315.972 35.7347 321.436 35.7308C322.172 35.7302 322.919 35.6309 323.641 35.6807C324.129 35.7143 324.583 35.9292 325.08 36.1115ZM303.539 44.6467C303.043 45.1605 302.562 45.6797 302.049 46.1871C298.853 49.3466 295.599 52.4859 292.46 55.6652C288.123 60.0572 283.865 64.4773 279.591 68.8913C279.363 69.1272 279.294 69.4183 279.152 69.6838C279.592 69.7442 280.032 69.8567 280.473 69.8574C289.376 69.87 298.279 69.8701 307.183 69.8719C311.875 69.8728 316.567 69.8528 321.258 69.8871C322.303 69.8947 322.762 69.6812 322.813 69.0888C322.826 68.9351 322.852 68.7817 322.869 68.6281C323.203 65.6897 323.546 62.7515 323.851 59.812C323.871 59.6258 323.601 59.4289 323.466 59.237C323.31 59.4028 323.06 59.5595 323.012 59.7358C322.525 61.5093 322.376 63.3213 321.044 64.9883C319.626 66.7627 317.75 68.2504 314.362 68.7234C312.721 68.9524 311.015 69.1001 309.333 69.1198C304.421 69.1774 299.506 69.1599 294.593 69.1478C294.085 69.1466 293.579 68.9845 293.072 68.897C293.23 68.5964 293.295 68.2623 293.561 68.0006C295.372 66.2161 297.229 64.4479 299.065 62.6724C301.92 59.9118 304.796 57.159 307.616 54.3856C310.821 51.2332 313.997 48.0702 317.141 44.8959C319.481 42.5333 321.762 40.1498 324.033 37.7632C324.292 37.4907 324.34 37.1415 324.445 36.823C324.631 36.263 324.291 36.0456 323.274 36.0619C320.653 36.1039 318.028 36.0829 315.405 36.0804C310.048 36.0753 304.691 36.0753 299.335 36.0556C293.835 36.0355 288.335 35.9916 282.835 35.9659C282.096 35.9625 281.538 36.1266 281.489 36.6422C281.468 36.8605 281.366 37.0767 281.358 37.2946C281.27 39.8263 281.182 42.3581 281.13 44.8901C281.125 45.139 281.358 45.3896 281.48 45.6394C281.696 45.4217 282.002 45.2185 282.107 44.9832C282.306 44.5394 282.376 44.0756 282.524 43.6229C283.04 42.043 283.963 40.5509 285.793 39.3511C288.42 37.6287 291.884 36.8959 295.68 36.8271C300.367 36.7421 305.062 36.7915 309.754 36.7967C310.906 36.798 311.132 37.0591 310.534 37.6586C308.236 39.9626 305.925 42.2618 303.539 44.6467Z" fill="#1D1D1D"/>
<path d="M196.123 43.6935C200.488 49.2419 204.827 54.7429 209.317 60.4345C209.74 59.9335 210.083 59.5881 210.334 59.2207C212.845 55.5578 215.342 51.8917 217.838 48.2254C219.434 45.8826 221.059 43.5467 222.593 41.1897C223.27 40.1506 223.853 39.0811 224.289 37.9982C224.582 37.2729 224.228 37.0973 222.956 37.0757C221.701 37.0544 220.444 37.0675 219.188 37.0647C218.892 37.0641 218.586 37.0893 218.303 37.0526C217.581 36.9589 216.565 37.0163 216.608 36.355C216.652 35.6797 217.616 35.7795 218.375 35.7788C223.806 35.7738 229.237 35.7739 234.669 35.7728C234.89 35.7727 235.113 35.7838 235.334 35.7775C236.132 35.7547 236.634 35.9452 236.621 36.4528C236.608 36.9838 236.01 37.0883 235.258 37.0847C233.448 37.076 231.635 37.1122 229.828 37.0685C228.625 37.0395 227.985 37.3789 227.568 37.9926C226.073 40.1948 224.564 42.3937 223.058 44.5934C221.261 47.2187 219.518 49.8577 217.653 52.4658C213.781 57.8813 209.846 63.2809 205.931 68.6854C205.433 69.372 204.925 70.0572 204.358 70.7239C204.179 70.9337 203.781 71.2265 203.506 71.2184C203.188 71.209 202.779 70.9419 202.608 70.7297C201.071 68.829 199.582 66.9146 198.071 65.0065C195.193 61.372 192.311 57.7385 189.428 54.1055C186.687 50.651 183.966 47.1904 181.186 43.7469C179.765 41.9861 178.24 40.2549 176.749 38.5141C175.867 37.4855 174.516 36.9277 172.504 36.9754C171.139 37.0077 169.77 36.9656 168.403 36.9603C167.707 36.9575 167.115 36.8717 167.138 36.3543C167.161 35.8496 167.731 35.7681 168.439 35.7695C177.972 35.7889 187.504 35.8013 197.037 35.8211C197.477 35.822 197.916 35.8985 198.356 35.9005C199.143 35.9041 199.383 36.144 199.321 36.5771C199.254 37.0388 198.743 37.0674 198.14 37.0671C196.075 37.0662 194.011 37.0744 191.946 37.0871C191.698 37.0886 191.45 37.1391 190.948 37.1953C192.696 39.386 194.397 41.5161 196.123 43.6935ZM212.239 57.2824C211.561 58.2065 210.883 59.1306 210.135 60.1336C209.89 60.3327 209.644 60.5319 209.303 60.809C208.737 60.2619 208.275 59.8159 207.785 59.2993C207.725 59.2382 207.665 59.1772 207.579 59.0115C207.482 58.8034 207.431 58.5819 207.278 58.3893C206.461 57.3601 205.601 56.3433 204.789 55.3127C202.444 52.3365 200.117 49.3554 197.78 46.3769C196.457 44.6902 195.151 42.9983 193.794 41.3213C193.049 40.4007 192.214 39.5061 191.397 38.5209C191.387 38.4677 191.378 38.4145 191.31 38.2698C191.098 37.814 190.705 37.3843 190.668 36.8881C191.102 36.8579 191.715 36.7775 192.149 36.7753C194.173 36.7651 196.197 36.7767 198.22 36.7575C198.44 36.7555 198.656 36.6054 198.873 36.524C198.682 36.392 198.528 36.2196 198.288 36.1404C198.086 36.0742 197.784 36.1124 197.527 36.1125C195.099 36.1131 192.67 36.1154 190.035 36.1119C185.151 36.1088 180.267 36.1058 175.198 36.098C173.018 36.0857 170.838 36.059 168.659 36.0764C168.321 36.0792 167.988 36.2842 167.652 36.3957C168.05 36.5169 168.441 36.7329 168.847 36.7433C170.862 36.7952 172.881 36.7929 174.95 36.8909C175.406 37.1579 175.862 37.4248 176.354 37.7681C176.539 37.8797 176.724 37.9913 176.948 38.1944C179.505 41.2704 182.088 44.3384 184.608 47.4248C186.597 49.8604 188.509 52.3184 190.474 54.842C190.54 54.9046 190.606 54.9672 190.691 55.1268C192.521 57.351 194.394 59.5625 196.167 61.8027C198.09 64.2335 199.909 66.6936 201.796 69.1347C202.169 69.6169 202.645 70.0706 203.09 70.63C203.222 70.7165 203.353 70.8029 203.484 70.8893C203.665 70.7213 203.847 70.5532 204.136 70.3223C204.386 70.0307 204.657 69.7445 204.884 69.4465C205.72 68.3484 206.565 67.2522 207.365 66.1445C208.7 64.2954 210.003 62.4381 211.436 60.5274C211.991 59.7099 212.546 58.8923 213.167 57.9929C214.486 56.1709 215.806 54.3488 217.226 52.4581C217.572 51.9266 217.903 51.3912 218.268 50.8643C220.094 48.2261 221.932 45.5907 223.761 42.9532C224.986 41.1875 226.208 39.4212 227.419 37.6522C227.87 36.9936 228.672 36.7436 229.849 36.7639C231.695 36.7959 233.543 36.7657 235.391 36.7753C236.072 36.7789 236.312 36.5688 236.021 36.2477C235.914 36.1284 235.372 36.111 235.029 36.1105C229.413 36.102 223.796 36.099 218.181 36.1139C217.819 36.1149 217.46 36.2718 217.099 36.3561C217.464 36.4926 217.811 36.6546 218.203 36.7556C218.421 36.8119 218.713 36.7668 218.971 36.7671C220.412 36.7687 221.854 36.7517 223.294 36.7777C224.446 36.7984 224.975 37.1046 224.81 37.7754C224.641 38.4626 224.324 39.1509 223.902 39.7993C222.023 42.6866 220.076 45.5579 218.17 48.439C217.334 49.7025 216.539 50.9756 215.619 52.3126C215.102 53.0951 214.583 53.877 214.07 54.6603C213.505 55.5225 212.946 56.3861 212.239 57.2824Z" fill="#1D1D1D"/>
<path d="M32.4478 26.3792C32.214 26.8169 32.0114 27.2062 31.794 27.6238C31.0001 27.4127 30.5143 27.2331 31.1909 26.7016C31.7035 26.2989 32.0657 25.8201 32.4099 25.3529C32.5508 25.1616 32.4679 24.9116 32.707 24.625C32.9659 24.9998 33.2247 25.3746 33.3847 25.6063C33.001 25.9131 32.74 26.1219 32.4478 26.3792Z" fill="#1D1D1D"/>
<path d="M46.6719 51.8081C47.6323 51.4158 48.5992 51.5784 49.6914 51.7163C48.8672 52.2241 47.4818 52.2553 46.6719 51.8081Z" fill="#1D1D1D"/>
<path d="M19.5547 51.2453C19.7788 51.1898 20.035 51.1729 20.346 51.182C20.1296 51.2334 19.8582 51.2586 19.5547 51.2453Z" fill="#1D1D1D"/>
<path d="M154.546 11.5077C155.802 11.5078 157.06 11.5346 158.314 11.4987C159.161 11.4744 159.459 11.6156 159.462 12.1565C159.505 19.2041 159.609 26.2515 159.656 33.299C159.69 38.3377 159.653 43.3766 159.672 48.4154C159.676 49.4693 159.85 50.5232 159.841 51.5768C159.801 56.4874 159.716 61.3979 159.672 66.3086C159.666 66.9432 159.725 67.5862 159.899 68.2109C160.061 68.7915 160.799 69.1184 161.76 69.1681C163.225 69.2439 164.697 69.2655 166.167 69.3082C166.462 69.3167 166.776 69.282 167.047 69.3322C167.243 69.3683 167.383 69.5121 167.547 69.6079C167.385 69.6829 167.235 69.8087 167.059 69.8228C166.623 69.8576 166.175 69.8448 165.732 69.8453C163.405 69.8476 161.076 69.817 158.75 69.857C155.772 69.9084 152.796 70.0232 149.819 70.0956C148.801 70.1204 147.78 70.0995 146.617 70.0995C146.593 69.8136 146.554 69.5624 146.553 69.3113C146.549 63.0963 146.59 56.8811 146.516 50.6664C146.498 49.1839 146.262 47.6846 145.808 46.2285C145.547 45.3931 144.628 44.6334 144.037 43.8314C143.031 42.4665 141.342 41.391 139.867 40.2206C139.462 39.9 133.667 37.4838 132.667 36.8872C132.001 36.7878 130.834 34.501 141.334 39.7706C141.835 40.1058 144.32 42.7905 144.611 42.9917C144.826 43.1404 144.999 43.3163 145.246 43.4413C145.423 43.5308 145.766 43.6364 145.9 43.5915C146.107 43.5224 146.302 43.3348 146.319 43.1897C146.424 42.301 146.537 41.4102 146.539 40.52C146.559 32.3655 146.561 24.211 146.552 16.0566C146.551 15.32 146.442 14.5834 146.43 13.7978C147.628 13.4673 146.568 13.1898 146.452 12.9562C146.702 12.7685 146.866 12.586 147.117 12.4698C147.655 12.2202 148.201 11.8624 148.81 11.8069C149.868 11.7105 150.987 11.8725 152.06 11.8061C152.888 11.7547 153.869 12.0315 154.546 11.5077ZM145.334 44.1454C145.437 44.1386 145.065 44.0527 145.167 44.0459C145.144 43.9903 144.834 43.8471 145.167 43.9465C145.08 43.9842 145.501 44.1454 145.334 44.1454ZM141.001 40.52C140.921 40.5193 142.315 41.3765 142.236 41.3759C142.236 41.3955 142.233 41.432 142.235 41.4321C142.314 41.4359 140.92 40.5784 141.001 40.52Z" fill="#1D1D1D"/>
<path d="M123.947 35.5723C127.119 35.4304 129.97 36.0551 132.974 36.384C132.872 36.5734 132.804 36.7017 132.702 36.8921C133.294 36.8278 133.777 36.7755 134.26 36.7231C133.371 37.4405 132.346 37.1894 131.332 36.9898C127.516 36.2385 123.699 36.2988 119.997 37.1733C116.895 37.906 114.848 39.3571 113.583 41.1645C112.786 42.3022 112.061 43.4734 111.572 44.6687C110.68 46.8494 110.387 49.0733 110.823 51.3186C111.017 52.3191 111.002 53.3438 111.363 54.3207C111.88 55.7222 112.467 57.1349 113.364 58.4609C114.485 60.1165 115.83 61.7292 117.296 63.2872C119.215 65.3255 122.161 66.7042 125.83 67.5327C129.075 68.2657 135.084 67.454 137.303 65.8678C139.183 64.5248 140.052 62.8838 140.558 61.1771C140.681 60.7619 140.755 60.3405 140.915 59.9309C140.971 59.7863 141.218 59.6683 141.378 59.5382C141.556 59.6806 141.91 59.8371 141.882 59.9633C141.664 60.936 141.468 61.9173 141.065 62.8656C140.856 63.3595 139.87 63.802 139.903 64.2501C139.945 64.8241 139.438 65.1274 139.057 65.5189C138.832 65.7495 138.534 65.9547 138.16 66.2604C138.132 66.2187 138.208 66.332 138.317 66.4935C138.026 66.5093 137.792 66.5221 137.559 66.5348C137.627 66.5769 137.696 66.619 137.765 66.661C137.479 66.8716 137.192 67.0824 136.905 67.2927C135.671 68.1964 134.172 68.8722 132.42 69.4149C129.999 70.1651 127.417 70.5226 124.771 70.6094C118.866 70.8032 113.376 69.9083 108.54 67.8699C106.381 66.9599 104.547 65.8193 102.902 64.526C100.444 62.5944 98.605 60.5218 97.5463 58.2096C96.8314 56.6484 96.5098 55.0472 96.3697 53.4111C96.1524 50.874 96.6145 48.4332 97.9551 46.0313C99.6518 42.9915 102.531 40.4414 106.795 38.4931C108.949 37.5091 111.403 36.8154 114.018 36.3638C117.221 35.8106 120.478 35.4578 123.947 35.5723ZM116.369 38.0235C116.368 38.0705 116.367 38.1175 116.366 38.1646C116.399 38.1648 116.46 38.1664 116.46 38.1651C116.466 38.1183 116.467 38.0713 116.369 38.0235Z" fill="#1D1D1D"/>
<path d="M154.442 11.5078C153.869 12.0333 152.888 11.7565 152.06 11.8079C150.987 11.8744 149.868 11.7123 148.809 11.8087C148.2 11.8642 147.654 12.222 147.116 12.4717C146.866 12.5878 146.702 12.7703 146.452 12.958C146.567 13.1916 147.627 13.4692 146.396 13.7569C145.733 12.6417 144.376 12.2147 142.497 12.16C141.261 12.124 140.034 11.9745 138.822 11.7397C141.375 11.314 143.938 11.6316 146.484 11.5877C149.101 11.5425 151.72 11.5318 154.442 11.5078Z" fill="#1D1D1D"/>
<path d="M361.417 51.4517C361.994 52.0582 362.628 52.6481 363.135 53.2745C364.501 54.961 365.813 56.663 367.146 58.3591C367.532 58.8505 367.893 59.3496 368.309 59.8317C368.5 60.0528 368.797 60.2412 369.195 60.5659C369.644 60.1612 369.995 59.8728 370.297 59.5674C370.852 59.0056 371.468 58.4561 371.89 57.8591C372.215 57.3992 372.191 56.8543 372.483 56.3827C373.01 55.532 373.688 54.7151 374.247 53.871C375.154 52.5002 376.016 51.1187 376.899 49.7421C377.659 48.5567 378.392 47.3646 379.191 46.1886C380.176 44.74 381.229 43.308 382.229 41.8631C382.771 41.0812 383.406 40.3079 383.736 39.4928C384.021 38.7876 384.035 38.0245 383.946 37.2968C383.922 37.1046 383.085 36.8141 382.602 36.7994C380.701 36.7416 378.792 36.7757 376.804 36.7757C376.334 36.7859 375.128 36.775 375.167 36.6213C375.001 35.4933 376.147 36.6073 375.786 36.6213C375.561 36.63 375.404 36.3911 375.167 36.2887C375.228 36.2152 375.2 36.1878 375.26 36.1143C381.147 36.1143 387.033 36.1111 392.919 36.1246C393.187 36.1252 393.667 36.0899 393.834 36.3881C393.501 36.6864 393.167 36.6164 392.874 36.6304C392.067 36.669 391.25 36.6288 390.438 36.6488C388.894 36.6867 386.477 36.9815 385.638 38.3359C385.251 37.8154 386.157 38.2887 384.667 38.2773C384.352 38.2748 384.334 37.0841 384.49 37.3027C385.985 37.4744 385.833 38.0187 385.553 38.4942C384.653 40.0254 383.688 41.5437 382.715 43.0593C381.301 45.2631 379.908 47.4729 378.412 49.6572C376.426 52.5575 374.345 55.4344 372.313 58.3237C370.492 60.9138 368.687 63.508 366.866 66.0981C366.526 66.5822 366.002 67.3987 365.501 67.9064C365.259 67.9354 364.615 68.1561 364.501 68.1053C364.528 67.7434 365.135 66.8443 365.299 66.5588C366.003 65.339 367.037 64.1724 366.807 62.8162C366.796 62.7523 367.072 62.6712 367.27 62.5699C367.377 62.8177 367.454 62.9966 367.54 63.1963C368.79 62.5984 369.134 62.0575 368.653 61.353C368.389 61.6972 368.167 61.9851 367.946 62.2731C367.815 62.2453 367.683 62.2176 367.552 62.1899C367.695 61.8469 367.843 61.5045 367.982 61.1607C368.041 61.012 363.953 66.2483 364.003 66.0981C363.75 66.1049 367.627 60.7274 367.374 60.73C367.045 60.7335 363.962 66.7133 363.633 66.7133C364.067 66.3851 363.913 67.1527 363.238 66.8627C363.501 67.0222 362.801 66.6744 363.238 66.8627C362.316 66.6067 364.163 66.9991 363.134 66.7133C363.297 66.9453 363.254 66.6214 363.437 66.8067C363.637 67.0083 363.959 65.8955 364.003 66.0981C364.227 67.131 363.719 65.686 363.134 66.7133C362.927 67.0768 363.556 66.7223 363.134 67.0116C362.636 67.3531 363.803 67.0879 363.437 66.8067C363.256 66.6675 362.781 66.7593 362.652 66.5588C363.291 66.764 362.727 65.29 363.134 65.4208C363.216 65.3426 363.052 66.7915 363.134 66.7133C362.913 66.5962 362.405 65.8586 362.15 65.8185C361.241 65.6755 362.889 67.5489 362.806 67.0116C362.756 66.6863 362.949 66.3754 362.528 66.1016C362.17 65.8686 363.062 66.3245 362.559 66.0981C362.162 66.1823 360.251 64.7462 359.883 64.8242C359.601 65.1624 356.722 61.4768 356.501 61.742C355.645 60.7043 354.787 59.5784 353.945 58.537C352.815 57.1392 351.719 55.7314 350.578 54.3366C349.02 52.4308 347.424 50.5361 345.862 48.6314C343.177 45.357 340.522 42.074 337.814 38.8064C337.362 38.2611 336.743 37.7605 336.141 37.2654C335.326 36.5953 334.012 36.7667 332.887 36.6661C332.056 36.5917 331.188 36.6748 330.344 36.6345C330.03 36.6195 329.736 36.4531 329.434 36.3557C329.483 36.2711 329.533 36.1864 329.583 36.1017C329.975 36.1017 330.368 36.1016 330.761 36.1017C339.959 36.1036 349.158 36.1055 358.356 36.1076C358.578 36.1076 358.833 36.0686 359.012 36.1213C359.251 36.1916 359.43 36.334 359.634 36.4454C359.396 36.5507 359.168 36.733 358.918 36.7448C358.453 36.7667 357.973 36.653 357.502 36.6593C355.551 36.685 353.6 36.7269 351.651 36.7788C350.77 36.8022 350.427 37.105 350.811 37.6399C351.846 39.0811 352.931 40.5102 354.049 41.9294C356.306 44.7951 358.599 47.6503 360.87 50.5121C361.085 50.7837 361.245 51.0709 361.368 51.4098C361.235 51.5058 361.165 51.5427 361.096 51.5796C361.139 51.6015 361.182 51.6234 361.225 51.6453C361.289 51.5807 361.353 51.5162 361.417 51.4517ZM384.859 38.2142C384.771 38.0974 384.683 37.9806 384.595 37.8638C384.501 37.9158 384.407 37.9678 384.313 38.0198C384.465 38.1074 384.617 38.195 384.859 38.2142Z" fill="#1D1D1D"/>
<path d="M343.449 86.6677C339.735 86.823 336.93 84.7687 336.876 82.5922C338.172 82.2035 338.233 81.9202 337.218 81.3435C337.907 79.6897 339.927 78.8188 342.518 78.6243C344.422 78.4814 346.509 78.5944 348.09 79.6273C348.183 80.5943 348.774 80.9611 349.894 80.8216C350.207 80.9131 350.52 81.0046 350.926 81.1484C351.086 81.429 351.154 81.6572 351.222 81.8854C350.92 82.4035 350.621 82.9219 350.315 83.4392C350.235 83.5759 350.135 83.7088 349.964 83.8244C349.82 83.7582 349.756 83.7112 349.693 83.6642C349.311 84.0168 348.567 84.2958 349.031 84.8207C348.546 85.613 347.525 86.0697 346.199 86.338C346.083 85.8355 345.844 85.4899 344.929 85.5229C344.892 85.5242 344.863 85.5926 344.794 85.6698C344.982 85.7684 345.181 85.8725 345.343 85.9577C345.226 86.2048 345.12 86.4277 345.013 86.6505C344.846 86.6525 344.678 86.6546 344.427 86.604C344.256 85.9234 343.52 85.8352 342.609 85.6959C342.963 86.1059 343.206 86.3868 343.449 86.6677Z" fill="#169344"/>
<path d="M356.501 61.7426C356.714 61.4288 356.95 61.1208 357.232 60.7827C357.6 60.7047 358.139 60.5904 358.537 60.5062C359.039 60.7326 359.526 60.8951 359.884 61.1281C360.304 61.4019 360.864 61.7231 360.914 62.0485C360.997 62.5857 361.228 62.9167 362.137 63.0596C362.392 63.0998 362.585 63.282 362.806 63.3991C362.724 63.4773 362.642 63.5555 362.56 63.6337C362.153 63.5029 361.747 63.3722 361.109 63.1669C361.237 63.3675 361.289 63.5666 361.47 63.7058C361.837 63.987 362.36 64.2012 362.858 63.8597C363.28 63.5704 361.263 61.8135 361.47 61.4501C362.056 60.4228 359.759 58.4997 359.535 57.4669C359.491 57.2642 363.334 59.3742 363.134 59.1726C362.951 58.9873 362.844 58.775 362.681 58.5431C363.711 58.8289 364.527 59.0553 365.449 59.3113C365.712 59.4708 366.052 59.7399 366.49 59.9282C367.165 60.2181 368.435 60.1217 368.001 60.4499C368.33 60.4499 368.42 60.7141 368.75 60.7107C369.002 60.708 367.88 60.7175 368.132 60.7107C368.083 60.8609 368.894 60.7983 368.834 60.947C368.696 61.2908 369.145 60.8029 369.001 61.1459C369.132 61.1736 367.815 62.2457 367.947 62.2734C368.168 61.9855 368.389 61.6975 368.654 61.3533C369.135 62.0578 369.417 63.1331 368.168 63.731C368.081 63.5312 367.941 64.1777 367.834 63.9298C367.637 64.0311 367.657 64.0649 367.668 64.1287C367.898 65.485 366.371 65.5935 365.668 66.8132C365.503 67.0988 365.207 67.1789 365.115 67.5578C364.534 67.7745 364.868 67.7122 365.501 67.9071C365.497 68.0028 365.095 68.4602 365.001 68.6031C364.614 68.5271 364.217 68.2683 364.069 68.2072C363.564 68.3354 363.153 68.4399 362.742 68.5444C362.689 68.4882 362.636 68.4321 362.583 68.3759C362.789 68.2204 362.994 68.0649 363.434 67.7316C362.494 67.7316 361.824 67.8077 361.168 67.8077C361.168 67.8077 361.198 67.7245 361.224 67.6852C361.468 67.4724 361.66 67.2849 361.907 67.1281C362.536 66.7284 362.468 66.5134 361.626 66.2275C361.26 66.1031 360.925 65.9447 360.536 65.7852C360.763 65.5922 360.952 65.4313 361.011 65.3814C360.456 64.9699 360.007 64.6258 359.535 64.2936C359.382 64.1862 359.177 64.1709 359.001 64.0294C359.17 63.5995 359.32 63.1598 359.547 62.6186C358.685 62.8353 358.131 63.0321 357.594 63.1669C357.232 62.7148 356.872 62.2434 356.501 61.7426ZM358.268 62.3021C358.222 62.191 358.175 62.0799 358.129 61.9688C357.995 62.0198 357.861 62.0708 357.728 62.1218C357.877 62.2042 358.027 62.2865 358.268 62.3021ZM365.449 61.643C365.448 61.6951 366.695 61.3979 366.694 61.4501C366.73 61.4503 366.798 61.4519 366.798 61.4504C366.805 61.3986 365.557 61.6957 365.449 61.643Z" fill="#1D1D1D"/>
<path d="M361.001 67.6085C361.658 67.5565 362.893 67.708 363.834 67.708C363.394 68.0413 362.788 68.2202 362.583 68.3757C362.636 68.4319 362.781 68.4472 362.834 68.5034C363.245 68.3989 363.662 68.2339 364.167 68.1057C364.315 68.1667 364.785 68.2802 365.167 68.404C363.967 70.2198 362.409 72.1457 361.125 73.961C360.235 75.2186 359.441 76.5043 358.433 77.727C357.371 79.0147 356.167 80.2357 353.826 81.0352C353.556 80.9399 353.378 80.8057 353.2 80.6714C354.501 80.1363 355.852 79.4205 356.51 78.4791C358.308 75.9033 360.009 73.3033 361.774 70.7192C362.352 69.8739 362.06 69.101 361.416 68.3302C361.29 68.1793 361.076 67.8262 361.001 67.6085Z" fill="#1D1D1D"/>
<path d="M358.981 64.0195C359.167 64.11 359.382 64.1861 359.534 64.2935C360.007 64.6257 360.612 64.9103 361.167 65.3218C361.109 65.3717 360.894 65.5265 360.667 65.7195C361.057 65.879 361.634 65.9924 362.001 66.1168C362.843 66.4027 362.535 66.7282 361.906 67.128C361.659 67.2848 361.42 67.592 361.167 67.8075C360.561 67.1577 360.028 66.349 359.472 65.6533C359.14 65.2394 358.624 64.6331 358.334 64.1287C358.489 63.9753 358.846 64.0882 358.981 64.0195Z" fill="#1D1D1D"/>
<path d="M353.334 80.6367C353.583 80.7494 353.912 80.7957 354.167 80.935C353.501 81.2333 352.083 81.7613 351.167 82.0287C351.018 81.8051 350.914 81.311 350.834 81.0344C351.509 80.8574 352.575 80.7869 353.334 80.6367Z" fill="#1D1D1D"/>
<path d="M359.123 63.9875C358.978 64.1073 358.834 64.2306 358.501 64.3301C358.181 64 357.867 63.5306 357.56 63.1167C358.078 62.935 358.928 62.7127 359.79 62.4961C359.562 63.0372 359.292 63.5576 359.123 63.9875Z" fill="#1D1D1D"/>
<path d="M345.094 86.6486C345.12 86.4265 345.226 86.2036 345.344 85.9565C345.181 85.8713 344.983 85.7672 344.795 85.6686C344.863 85.5915 344.893 85.523 344.93 85.5217C345.845 85.4888 346.083 85.8343 346.119 86.3431C345.804 86.4805 345.489 86.5642 345.094 86.6486Z" fill="#1D1D1D"/>
<path d="M337.158 81.375C338.234 81.9184 338.173 82.2017 336.879 82.5346C336.896 82.1622 336.997 81.7852 337.158 81.375Z" fill="#1D1D1D"/>
<path d="M349.863 80.7794C348.775 80.959 348.184 80.5922 348.129 79.6641C348.701 79.9857 349.266 80.3625 349.863 80.7794Z" fill="#1D1D1D"/>
<path d="M343.497 86.6962C343.207 86.3862 342.964 86.1053 342.609 85.6953C343.52 85.8346 344.256 85.9227 344.344 86.6019C344.077 86.677 343.811 86.7012 343.497 86.6962Z" fill="#1D1D1D"/>
<path d="M349.108 84.8035C348.568 84.2918 349.311 84.0127 349.694 83.6602C349.757 83.7072 349.821 83.7542 349.899 83.8454C349.671 84.1899 349.428 84.4901 349.108 84.8035Z" fill="#1D1D1D"/>
<path d="M365.065 68.1124C364.369 67.9385 364.534 67.7748 365.123 67.6082C365.293 67.5919 365.398 67.5926 365.582 67.5952C365.483 67.7618 365.305 67.9266 365.065 68.1124Z" fill="#1D1D1D"/>
<path d="M303.578 44.6037C305.925 42.2607 308.236 39.9615 310.534 37.6576C311.132 37.0581 310.906 36.797 309.754 36.7957C305.062 36.7904 300.367 36.7411 295.679 36.826C291.883 36.8948 288.419 37.6277 285.793 39.35C283.963 40.5499 283.04 42.042 282.524 43.6219C282.376 44.0746 282.306 44.5384 282.107 44.9822C282.002 45.2174 281.695 45.4207 281.48 45.6383C281.358 45.3885 281.125 45.1379 281.13 44.889C281.182 42.357 281.27 39.8252 281.358 37.2935C281.365 37.0757 281.468 36.8594 281.489 36.6412C281.538 36.1256 282.096 35.9615 282.835 35.9649C288.335 35.9905 293.835 36.0344 299.335 36.0546C304.691 36.0742 310.048 36.0743 315.405 36.0794C318.028 36.0819 320.653 36.1029 323.274 36.0609C324.291 36.0446 324.631 36.2619 324.445 36.822C324.34 37.1405 324.292 37.4897 324.033 37.7622C321.762 40.1487 319.481 42.5323 317.141 44.8949C313.997 48.0691 310.821 51.2322 307.616 54.3846C304.796 57.1579 301.92 59.9108 299.065 62.6714C297.229 64.4469 295.372 66.215 293.561 67.9995C293.295 68.2613 293.229 68.5954 293.071 68.896C293.578 68.9834 294.085 69.1455 294.592 69.1468C299.506 69.1588 304.421 69.1764 309.332 69.1188C311.014 69.099 312.721 68.9514 314.362 68.7224C317.75 68.2494 319.626 66.7617 321.044 64.9873C322.376 63.3203 322.525 61.5082 323.012 59.7347C323.06 59.5584 323.309 59.4018 323.465 59.236C323.601 59.4279 323.871 59.6248 323.851 59.811C323.546 62.7505 323.203 65.6886 322.869 68.6271C322.851 68.7807 322.826 68.934 322.813 69.0878C322.762 69.6802 322.303 69.8937 321.258 69.8861C316.567 69.8518 311.874 69.8718 307.182 69.8709C298.279 69.8691 289.376 69.8689 280.472 69.8563C280.032 69.8557 279.592 69.7432 279.151 69.6827C279.294 69.4173 279.363 69.1262 279.591 68.8902C283.865 64.4762 288.122 60.0562 292.46 55.6642C295.599 52.4849 298.853 49.3455 302.049 46.1861C302.562 45.6787 303.043 45.1594 303.578 44.6037Z" fill="#1D1D1D"/>
<path d="M208 59.3591C208.462 59.805 208.736 60.2625 209.302 60.8096C209.644 60.5326 209.889 60.3334 210.249 60.0949C210.682 60.2321 211.182 60.3758 211.5 60.5522C210.184 62.4061 208.699 64.2961 207.364 66.1452C206.564 67.2528 205.72 68.349 204.883 69.4471C204.656 69.7452 204.227 70.2754 203.834 70.5943C203.432 70.6751 203.259 70.5408 203 70.5943C202.572 70.1275 202.168 69.6175 201.795 69.1354C199.908 66.6943 198.089 64.2342 196.166 61.8033C194.394 59.5632 192.454 57.3791 190.667 55.0837C190.266 54.7007 190.441 54.8581 190.334 54.7855C188.388 52.3374 186.597 49.861 184.608 47.4255C182.087 44.3391 179.346 41.2314 176.834 38.0818C177.13 37.5356 176.655 37.8427 176.334 37.7835C175.878 37.5165 175.13 37.0466 174.667 36.6898C174.809 36.3971 175.185 36.2961 175.334 36.0932C180.218 36.0963 185.336 36.0402 190.334 36.0932C190.584 36.3734 190.53 36.6585 190.667 36.8886C190.88 37.3445 191.229 37.8756 191.419 38.397C191.448 38.5289 191.449 38.5127 191.5 38.5789C192.295 39.4852 193.049 40.4013 193.794 41.3219C195.151 42.9989 196.456 44.6908 197.78 46.3775C200.116 49.3561 202.444 52.3371 204.788 55.3134C205.6 56.3439 206.461 57.3608 207.278 58.3899C207.431 58.5825 207.552 58.7927 207.667 59.0608C207.729 59.2048 208 59.2481 208 59.3591Z" fill="#1D1D1D"/>
<path d="M215.501 52.4961C216.314 51.2274 217.335 49.7007 218.17 48.4372C220.076 45.5561 222.024 42.6848 223.902 39.7974C224.324 39.149 224.641 38.4607 224.81 37.7736C224.975 37.1027 224.446 36.7966 223.294 36.7758C221.854 36.7498 220.412 36.7669 218.971 36.7652C218.713 36.765 218.421 36.81 218.203 36.7537C217.812 36.6528 217.465 36.4908 217.099 36.3543C217.46 36.2699 217.82 36.113 218.181 36.112C223.797 36.0971 229.413 36.1001 235.029 36.1086C235.373 36.1092 235.914 36.1265 236.022 36.2459C236.312 36.5669 236.072 36.777 235.391 36.7734C233.544 36.7638 231.695 36.794 229.849 36.7621C228.672 36.7417 227.87 36.9918 227.42 37.6503C226.209 39.4193 224.986 41.1856 223.761 42.9513C221.932 45.5889 220.094 48.2242 218.268 50.8624C217.903 51.3893 217.474 52.1515 217.001 52.695C216.459 52.6277 215.916 52.5754 215.501 52.4961Z" fill="#1D1D1D"/>
<path d="M216.001 51.8008C216.47 51.8459 216.842 52.1755 217.334 52.2771C216.091 54.1215 213.773 57.402 212.334 59.2578C212.034 59.0211 212.015 58.1363 211.834 57.8658C212.395 57.0029 213.505 55.5213 214.069 54.6591C214.582 53.8758 215.43 52.6174 216.001 51.8008Z" fill="#1D1D1D"/>
<path d="M190.667 36.8871C190.443 36.6772 190.314 36.3692 190.167 36.0918C192.585 36.0427 195.098 36.1121 197.527 36.1115C197.784 36.1115 198.086 36.0733 198.287 36.1395C198.527 36.2186 198.681 36.391 198.873 36.523C198.655 36.6044 198.439 36.7545 198.22 36.7565C196.196 36.7757 194.172 36.7641 192.149 36.7744C191.667 36.7877 191.167 36.8871 190.667 36.8871Z" fill="#1D1D1D"/>
<path d="M175.501 36.0936C175.445 36.2988 175.502 36.6366 175.334 36.8887C173.298 36.9211 170.862 36.796 168.847 36.7442C168.441 36.7337 168.05 36.5177 167.652 36.3965C167.988 36.285 168.321 36.08 168.659 36.0773C170.838 36.0598 173.229 36.079 175.501 36.0936Z" fill="#1D1D1D"/>
<path d="M212.334 57.1719C212.588 57.4257 212.747 57.7909 213.014 58.0685C212.667 58.9616 211.614 60.4024 211.001 61.2484C210.624 61.1004 210.232 60.6295 209.834 60.453C210.432 59.5287 211.583 58.1126 212.334 57.1719Z" fill="#1D1D1D"/>
<path d="M203.001 70.5934C203.251 70.4936 203.653 70.4439 204.001 70.3945C203.909 70.5668 203.666 70.7212 203.485 70.8893C203.353 70.8028 203.141 70.7261 203.001 70.5934Z" fill="#1D1D1D"/>
<path d="M176.001 37.582C176.304 37.6031 177.668 37.6815 177.001 38.1786C176.753 38.0949 176.204 37.7318 176.001 37.582Z" fill="#1D1D1D"/>
<path d="M207.799 59.3341C207.703 59.2989 207.592 59.2284 207.543 59.1367C207.664 59.1767 207.725 59.2377 207.799 59.3341Z" fill="#1D1D1D"/>
<path d="M191.408 38.558C191.368 38.5313 191.317 38.465 191.317 38.3789C191.378 38.4122 191.387 38.4654 191.408 38.558Z" fill="#1D1D1D"/>
<path d="M116.419 38.0234C116.467 38.0708 116.467 38.1179 116.46 38.1646C116.46 38.1659 116.399 38.1643 116.366 38.1641C116.367 38.1171 116.368 38.0701 116.419 38.0234Z" fill="#1D1D1D"/>
<path d="M385.001 38.3778C384.608 38.295 384.304 38.1591 384.001 38.0232C384.189 37.9425 384.376 37.8619 384.564 37.7812C384.739 37.9624 384.915 38.1436 385.001 38.3778Z" fill="#1D1D1D"/>
<path d="M361.419 51.4556C361.354 51.5194 361.398 51.6386 361.334 51.7032C361.291 51.6813 361.044 51.6256 361.001 51.6037C361.07 51.5668 361.206 51.449 361.334 51.4049C361.334 51.3057 361.42 51.4563 361.419 51.4556Z" fill="#1D1D1D"/>
<path d="M358.334 62.3389C358.168 62.4383 357.877 62.2041 357.728 62.1218C357.861 62.0708 357.995 62.0198 358.129 61.9688C358.175 62.0798 358.501 62.3389 358.334 62.3389Z" fill="#1D1D1D"/>
<path d="M366.667 61.1484C366.721 61.2008 367.001 61.3473 366.798 61.4528C367.001 61.4467 366.537 61.5463 366.501 61.5461C366.502 61.494 366.612 61.2002 366.667 61.1484Z" fill="#1D1D1D"/>
<ellipse cx="344" cy="82.5" rx="8" ry="7.5" fill="#1D1D1D"/>
<g clip-path="url(#clip1_4238_4529)">
<path d="M246.106 17.8215C246.106 12.7338 250.852 8.60938 256.706 8.60938C262.56 8.60938 267.306 12.7338 267.306 17.8215V29.9308C267.306 29.9921 267.256 30.0417 267.195 30.0417H264.453C264.437 30.0417 264.422 30.0385 264.408 30.0322L256.548 26.5487C256.519 26.5359 256.487 26.536 256.458 26.549L248.719 30.032C248.705 30.0384 248.689 30.0417 248.674 30.0417H246.217C246.156 30.0417 246.106 29.9921 246.106 29.9308V17.8215Z" fill="#169544"/>
<path d="M256.565 16.8047L264.433 30.0358L256.565 26.5539L248.696 30.0358L256.565 16.8047Z" fill="#1D1D1D"/>
</g>
<g clip-path="url(#clip2_4238_4529)">
<path d="M246.106 17.8215C246.106 12.7338 250.852 8.60938 256.706 8.60938C262.56 8.60938 267.306 12.7338 267.306 17.8215V29.9308C267.306 29.9921 267.256 30.0417 267.195 30.0417H264.453C264.437 30.0417 264.422 30.0385 264.408 30.0322L256.548 26.5487C256.519 26.5359 256.487 26.536 256.458 26.549L248.719 30.032C248.705 30.0384 248.689 30.0417 248.674 30.0417H246.217C246.156 30.0417 246.106 29.9921 246.106 29.9308V17.8215Z" fill="#169544"/>
<path d="M256.565 16.8047L264.433 30.0358L256.565 26.5539L248.696 30.0358L256.565 16.8047Z" fill="#1D1D1D"/>
</g>
</g>
<defs>
<clipPath id="clip0_4238_4529">
<rect width="400" height="100" fill="white"/>
</clipPath>
<clipPath id="clip1_4238_4529">
<rect width="21.1994" height="21.4324" fill="white" transform="translate(246.106 8.60938)"/>
</clipPath>
<clipPath id="clip2_4238_4529">
<rect width="21.1994" height="21.4324" fill="white" transform="translate(246.106 8.60938)"/>
</clipPath>
</defs>
</svg>
