<svg width="250" height="150" viewBox="0 0 250 150" fill="none" xmlns="http://www.w3.org/2000/svg">
<g clip-path="url(#clip0_4238_4529)">
<path d="M0.138672 103.452C1.00694 103.289 1.88459 103.29 2.7405 103.096C3.4232 102.94 3.73098 102.098 3.94401 101.219C4.96449 97.0101 5.97375 92.7952 7.01079 88.5943C9.39872 78.9211 11.798 69.2538 14.1974 59.5865C15.7636 53.2764 17.3271 46.9649 18.912 40.6644C20.1846 35.6061 21.4958 30.5677 22.7726 25.5116C23.2341 23.6839 23.6402 21.8278 24.0843 19.9909C24.1577 19.6873 24.2967 19.4163 24.4055 19.1301C24.4791 19.1297 24.5527 19.1293 24.6263 19.1289C25.0023 20.3504 25.3932 21.5631 25.7518 22.795C27.7736 29.7401 29.7902 36.6883 31.8038 43.6383C33.8442 50.681 35.8712 57.7317 37.9186 64.7703C39.8422 71.3835 41.775 77.9914 43.722 84.5906C45.166 89.4853 46.6393 94.3624 48.0996 99.2473C48.1178 99.3081 48.1363 99.3687 48.1547 99.4293C48.9614 102.091 50.2173 103.78 52.4048 103.498C52.8169 103.445 53.2354 103.5 53.6508 103.49C54.0961 103.48 54.352 103.74 54.3575 104.417C54.3631 105.114 54.0408 105.22 53.6633 105.224C51.7468 105.241 49.8303 105.273 47.9138 105.265C43.596 105.246 39.2782 105.208 34.9604 105.174C34.6842 105.172 34.406 105.154 34.1326 105.102C33.7486 105.029 33.5062 104.668 33.6385 104.148C33.7159 103.844 34.0172 103.475 34.2322 103.455C35.4288 103.344 36.6301 103.288 37.8293 103.302C38.5047 103.309 38.7215 102.891 38.5569 102.038C38.4105 101.279 38.2096 100.539 38.003 99.8073C36.1364 93.2007 34.2543 86.6031 32.4022 79.9882C32.1468 79.0757 31.8119 78.6723 31.0883 78.6789C27.2789 78.7139 23.4692 78.6745 19.6596 78.6607C17.0965 78.6515 14.5333 78.6664 11.9706 78.6158C11.303 78.6026 10.964 78.8438 10.7287 79.8447C9.58965 84.6908 8.34334 89.4852 7.19648 94.3278C6.65683 96.6064 6.23966 98.946 5.79735 101.27C5.54184 102.612 5.84465 103.212 6.82966 103.276C8.21271 103.367 9.5996 103.343 10.9818 103.45C11.2238 103.469 11.5943 103.827 11.6572 104.132C11.8333 104.989 11.6213 105.251 10.9201 105.25C7.6875 105.245 4.45492 105.238 1.22235 105.234C0.899417 105.234 0.576479 105.251 0.196109 105.308C0.138672 105.145 0.138672 104.934 0.20102 104.643C1.96509 104.567 3.66695 104.554 5.36847 104.583C6.19733 104.596 7.02518 104.716 7.85416 104.739C8.91565 104.769 9.97789 104.759 11.0396 104.739C11.1413 104.737 11.3028 104.563 11.3238 104.431C11.3429 104.312 11.2197 104.03 11.1395 104.013C10.6886 103.919 10.2325 103.864 9.77695 103.832C8.61543 103.752 7.4357 103.84 6.29862 103.563C5.71299 103.42 5.20281 102.642 4.74278 102.228C4.99095 101.929 5.41261 101.675 5.50146 101.271C5.87554 99.5702 5.92049 97.7531 6.36984 96.0631C6.86659 94.1949 7.31597 92.3007 7.77805 90.4138C8.19423 88.7144 8.59883 87.0091 9.01016 85.3073C9.342 83.9343 9.68077 82.5647 10.008 81.1894C10.2662 80.1043 10.5115 79.0128 10.7596 77.937C10.8387 77.9318 11.0322 77.938 11.2219 77.9021C11.5058 77.8484 11.7877 77.7053 12.0691 77.7127C12.3115 77.719 12.555 77.977 12.7926 77.9608C14.2658 77.8605 15.7477 78.2298 17.2153 77.7927C17.3631 77.7486 17.532 77.8282 17.6886 77.87C18.041 77.964 18.3912 78.0752 18.7434 78.1707C19.9982 78.5111 21.2115 77.779 22.519 78.0776C24.2076 78.4631 25.9719 78.1908 27.7029 78.1505C27.9794 78.1441 28.2528 77.8698 28.5276 77.7193C28.5042 77.5965 28.4808 77.4738 28.4574 77.351C27.6361 77.2963 26.8146 77.1924 25.9936 77.1999C25.0525 77.2084 24.1116 77.3775 23.1712 77.3668C21.361 77.3463 19.5515 77.2337 17.7413 77.1877C16.6103 77.159 15.4785 77.2002 14.3477 77.1661C14.1363 77.1597 13.928 76.9449 13.7793 76.791C19.3361 76.7578 24.832 76.763 30.3279 76.7582C31.1052 76.7575 31.1905 76.5706 30.9112 75.5346C30.5041 74.0247 30.0823 72.5229 29.6657 71.0182C26.9398 61.171 24.2152 51.3231 21.4836 41.4793C21.3067 40.8419 21.0742 40.2361 20.7875 39.3751C20.5735 40.1067 20.4353 40.5212 20.329 40.9519C19.4075 44.6857 18.5049 48.4292 17.5716 52.1569C15.6427 59.8612 13.6923 67.5545 11.7756 75.265C11.6637 75.715 11.7728 76.2775 11.7724 76.8585C11.0861 77.4698 11.1896 76.6044 11.2477 76.2259C11.4037 75.2086 11.6236 74.2047 11.876 73.2261C12.2272 71.8642 12.6531 70.5419 13.0064 69.181C13.3713 67.7755 13.6681 66.3338 14.03 64.9265C14.5487 62.9097 15.1264 60.9235 15.6294 58.899C16.1991 56.6061 16.7043 54.2806 17.2558 51.9782C17.6874 50.1763 18.149 48.3891 18.5928 46.5931C18.8006 45.7522 19.297 45.0133 19.0471 44.0071C19.7574 43.668 19.0759 42.6521 19.4781 42.1494C19.4976 42.1251 19.3924 41.8963 19.3452 41.7628C19.2309 41.8781 19.0596 41.9592 19.0138 42.1156C18.9109 42.4665 18.9185 42.8922 18.7942 43.2199C18.5639 43.827 18.1359 44.3799 19.0235 45.1013C18.1477 45.0065 17.9957 45.624 17.8581 46.3352C17.7383 46.9544 17.4528 47.5212 17.3832 48.1438C17.2559 49.2824 16.3672 50.2358 16.9052 51.2879C16.6151 51.9281 16.3628 52.3917 16.1819 52.9067C15.9149 53.6667 15.917 54.5211 15.6076 55.3344C15.0515 56.7961 14.8084 58.4993 14.4175 60.0931C13.808 62.5787 13.193 65.0616 12.5645 67.5374C11.778 70.6358 10.9366 73.7072 10.2039 76.8312C9.98958 77.7452 9.5882 78.7549 10.0699 79.8448C9.8611 79.8448 9.67427 79.8448 9.4449 79.8448C9.75089 81.0781 8.35228 81.85 9.14425 83.0639C8.9237 83.3222 8.6891 83.4674 8.60934 83.7149C8.38428 84.4133 8.21623 85.1504 8.03752 85.8783C7.58895 87.7051 7.14501 89.5343 6.70269 91.3643C6.08489 93.9202 5.47271 96.479 4.85302 99.034C4.6164 100.01 4.43241 101.028 4.10115 101.935C3.8152 102.717 3.35441 103.369 3.00391 104.017C1.99879 103.504 1.07275 104.036 0.138672 104.167C0.138672 103.955 0.138672 103.743 0.138672 103.452ZM20.2988 39.4988C20.4619 39.1856 20.6251 38.8724 20.8648 38.4122C20.7649 38.0647 20.6031 37.5025 20.4413 36.9403C20.2919 37.3702 20.3437 37.7452 20.2556 38.0321C20.0405 38.733 19.8141 39.4512 19.4937 40.0552C19.0709 40.8524 19.3745 41.1219 19.8706 41.4384C20.0065 40.812 20.1332 40.2281 20.2988 39.4988ZM29.1852 77.7908C29.6758 78.3848 30.5417 78.338 31.0569 77.5762C30.3742 77.3694 29.7699 77.1256 29.1852 77.7908Z" fill="#1D1D1D"/>
<path d="M0.138672 104.232C1.07275 104.035 1.99879 103.503 3.00391 104.016C3.35441 103.368 3.8152 102.716 4.10115 101.934C4.43241 101.027 4.6164 100.008 4.85302 99.0329C5.47271 96.4779 6.08489 93.9192 6.70269 91.3632C7.14501 89.5332 7.58895 87.7041 8.03752 85.8772C8.21623 85.1494 8.38428 84.4123 8.60934 83.7138C8.6891 83.4663 8.9237 83.3211 9.14425 83.0629C8.35228 81.8489 9.75089 81.0771 9.4449 79.8438C9.67427 79.8438 9.8611 79.8438 10.0699 79.8438C9.5882 78.7538 9.98958 77.7441 10.2039 76.8301C10.9366 73.7062 11.778 70.6348 12.5645 67.5364C13.193 65.0605 13.808 62.5776 14.4175 60.0921C14.8084 58.4983 15.0515 56.795 15.6076 55.3333C15.917 54.5201 15.9149 53.6657 16.1819 52.9057C16.3628 52.3907 16.6151 51.9271 16.9052 51.2868C16.3672 50.2347 17.2559 49.2814 17.3832 48.1428C17.4528 47.5201 17.7383 46.9533 17.8581 46.3342C17.9957 45.6229 18.1477 45.0055 19.0235 45.1002C18.1359 44.3788 18.5639 43.826 18.7942 43.2188C18.9185 42.8911 18.9109 42.4655 19.0138 42.1145C19.0596 41.9581 19.2309 41.877 19.3452 41.7617C19.3924 41.8953 19.4976 42.124 19.4781 42.1483C19.0759 42.651 19.7574 43.667 19.0471 44.006C19.297 45.0122 18.8006 45.7511 18.5928 46.5921C18.149 48.3881 17.6874 50.1752 17.2558 51.9771C16.7043 54.2795 16.1991 56.605 15.6294 58.8979C15.1264 60.9224 14.5487 62.9086 14.03 64.9255C13.6681 66.3327 13.3713 67.7744 13.0064 69.18C12.6531 70.5408 12.2272 71.8632 11.876 73.225C11.6236 74.2036 11.4037 75.2075 11.2477 76.2248C11.1896 76.6033 11.0861 77.4688 11.8247 76.836C11.9896 76.766 12.0953 76.7883 12.2211 76.8685C12.4108 76.8886 12.5804 76.8507 12.8076 76.7817C13.1496 76.7755 13.434 76.8004 13.7183 76.8252C13.928 76.9438 14.1363 77.1586 14.3477 77.165C15.4785 77.1991 16.6103 77.1579 17.7413 77.1867C19.5515 77.2327 21.361 77.3452 23.1712 77.3658C24.1116 77.3765 25.0525 77.2073 25.9936 77.1988C26.8146 77.1914 27.6361 77.2953 28.4574 77.35C28.4808 77.4727 28.5042 77.5955 28.5276 77.7182C28.2528 77.8687 27.9794 78.143 27.7029 78.1495C25.9719 78.1898 24.2076 78.4621 22.519 78.0765C21.2115 77.778 19.9982 78.5101 18.7434 78.1697C18.3912 78.0741 18.041 77.9629 17.6886 77.8689C17.532 77.8272 17.3631 77.7476 17.2153 77.7916C15.7477 78.2287 14.2658 77.8594 12.7926 77.9598C12.555 77.9759 12.3115 77.7179 12.0691 77.7116C11.7877 77.7043 11.5058 77.8474 11.2219 77.901C11.0322 77.9369 10.8387 77.9308 10.7596 77.936C10.5115 79.0118 10.2662 80.1032 10.008 81.1884C9.68077 82.5636 9.342 83.9332 9.01016 85.3062C8.59883 87.0081 8.19423 88.7133 7.77805 90.4127C7.31597 92.2996 6.86659 94.1938 6.36984 96.0621C5.92049 97.752 5.87554 99.5692 5.50146 101.27C5.41261 101.674 4.99095 101.928 4.74278 102.227C5.20281 102.641 5.71299 103.419 6.29862 103.562C7.4357 103.839 8.61543 103.751 9.77695 103.831C10.2325 103.863 10.6886 103.918 11.1395 104.012C11.2197 104.029 11.3429 104.311 11.3238 104.43C11.3028 104.562 11.1413 104.736 11.0396 104.738C9.97789 104.758 8.91565 104.768 7.85416 104.738C7.02518 104.715 6.19733 104.595 5.36847 104.581C3.66695 104.553 1.96509 104.566 0.20102 104.562C0.138672 104.474 0.138672 104.386 0.138672 104.232Z" fill="#1D1D1D"/>
<path d="M154.102 105.23C153.225 105.231 152.416 105.236 151.608 105.23C151.211 105.227 150.858 105.142 150.858 104.387C150.859 103.597 151.245 103.626 151.625 103.598C152.5 103.535 153.386 103.564 154.246 103.363C155.698 103.023 156.484 101.756 156.544 99.6535C156.611 97.343 156.59 95.0266 156.588 92.7128C156.577 82.5629 156.578 72.4128 156.524 62.2634C156.516 60.8095 156.362 59.2899 156.029 57.925C155.655 56.3958 154.76 55.5351 153.554 55.5339C152.977 55.5332 152.399 55.5203 151.824 55.4593C151.417 55.4162 150.846 55.6166 150.83 54.6616C150.811 53.5788 151.446 53.8515 151.85 53.8495C155.845 53.8303 159.84 53.8495 163.835 53.8562C165.521 53.859 167.206 53.8544 168.892 53.8612C169.271 53.8627 169.662 53.8649 169.658 54.6536C169.653 55.4606 169.243 55.399 168.875 55.4118C167.813 55.4486 166.751 55.4992 165.689 55.4948C165.17 55.4926 164.952 55.7292 164.954 56.5276C164.981 71.1095 164.993 85.6915 165.01 100.273C165.01 100.637 165.005 101.006 165.044 101.362C165.158 102.387 165.468 103.22 166.274 103.331C167.235 103.465 168.2 103.533 169.164 103.613C169.54 103.644 169.934 103.586 169.94 104.382C169.947 105.223 169.546 105.218 169.133 105.219C164.146 105.221 159.159 105.226 154.102 105.23Z" fill="#1D1D1D"/>
<path d="M70.8437 63.6056C70.1121 66.0694 69.8062 68.5948 69.624 71.1623C69.1527 77.8009 70.0198 84.1088 71.9291 90.1509C72.7295 92.6836 73.6527 95.1059 74.9477 97.2231C76.9802 100.546 80.4071 101.952 83.3339 100.548C85.4074 99.5528 86.4191 97.2 86.9968 94.4038C87.3025 92.924 87.451 91.3746 87.6362 89.8482C87.7225 89.1363 87.8838 88.6724 88.4665 88.7206C89.0292 88.7671 89.0657 89.2888 89.0579 89.8935C88.9624 97.2597 85.6309 104.547 80.1611 105.982C74.1065 107.571 68.8802 105.095 64.748 98.4288C62.2196 94.3496 60.6821 89.5623 60.1204 84.1679C59.5584 78.77 59.6459 73.4335 61.0267 68.2509C63.0454 60.6748 66.6386 55.5499 72.2306 53.6195C75.7888 52.3911 79.3571 52.2854 82.8822 53.9364C85.852 55.3273 87.9573 58.2552 89.6694 61.8623C90.0739 62.7146 90.4695 63.5755 90.8692 64.4325C90.9334 64.4073 90.9977 64.3821 91.0619 64.3569C91.0863 64.0244 91.1307 63.692 91.1321 63.3593C91.1805 52.4823 91.2253 41.6052 91.2691 30.7282C91.2789 28.2814 91.3023 25.8341 91.2789 23.3879C91.2707 22.537 91.1731 21.679 91.0565 20.8413C90.912 19.8029 90.3141 19.035 89.5763 18.8993C88.7068 18.7395 87.8334 18.6214 86.9605 18.5025C86.5815 18.4509 86.2625 18.322 86.2625 17.6595C86.2625 16.9867 86.5272 16.7477 86.9761 16.75C91.0871 16.7712 95.198 16.7885 99.309 16.7857C100.054 16.7852 100.093 17.4509 100.093 18.243C100.096 25.6501 100.108 33.0573 100.11 40.4644C100.114 60.2057 100.113 79.947 100.119 99.6884C100.12 103 100.387 103.379 102.682 103.475C103.236 103.498 103.792 103.526 104.344 103.488C104.833 103.455 105.096 103.704 105.099 104.428C105.103 105.175 104.747 105.264 104.348 105.27C103.909 105.277 103.47 105.267 103.031 105.283C99.4772 105.412 95.9231 105.546 92.3689 105.675C91.2455 105.716 91.2461 105.711 91.246 104.141C91.2457 98.4866 91.2726 92.8316 91.2362 87.1776C91.2022 81.8898 91.1156 76.6024 91.0137 71.3164C90.9982 70.5098 90.8535 69.6639 90.6342 68.9172C89.5044 65.0707 88.0057 61.5537 85.7445 58.8496C83.422 56.0721 80.6921 54.9012 77.6914 55.3183C74.5919 55.7491 72.4749 58.2092 71.2239 62.2491C71.0932 62.671 70.9818 63.1051 70.8437 63.6056ZM91.4887 20.7701C91.5257 21.8749 91.5943 22.9798 91.5948 24.0847C91.6001 36.3164 91.5989 48.5481 91.5867 60.7798C91.5854 62.1151 91.5149 63.4513 91.4492 64.7844C91.4385 65.0019 91.3162 65.2835 91.1873 65.387C91.1034 65.4543 90.8888 65.2959 90.7784 65.1617C90.624 64.9742 90.5157 64.7104 90.3813 64.4873C90.1994 64.1855 90.0114 63.8913 89.698 63.3884C89.3916 61.4014 88.238 59.9272 87.0274 58.2192C87.1759 59.0833 87.1635 59.8498 87.4163 60.3308C88.3386 62.0863 89.3942 63.6995 90.023 65.7469C90.3924 66.9499 90.9667 68.0894 91.1295 69.3425C91.4134 71.5267 91.5608 73.7756 91.5719 75.9993C91.6184 85.3214 91.5925 94.6442 91.5956 103.967C91.5957 104.343 91.6201 104.72 91.635 105.149C92.362 105.149 93.0002 105.18 93.6364 105.143C95.4974 105.035 97.3569 104.862 99.2184 104.785C100.672 104.725 102.127 104.771 103.582 104.768C103.859 104.767 104.139 104.786 104.411 104.734C104.521 104.713 104.615 104.524 104.717 104.412C104.614 104.268 104.526 104.052 104.404 103.998C104.234 103.923 104.038 103.975 103.854 103.962C102.936 103.898 102.015 103.866 101.099 103.752C100.499 103.677 100.037 103.187 99.9365 102.316C99.8278 101.379 99.7911 100.415 99.7947 99.4627C99.8223 92.0967 99.8754 84.7309 99.9003 77.365C99.9057 75.7846 99.7969 74.2037 99.7944 72.6229C99.7825 65.0647 99.806 57.5064 99.7848 49.9483C99.7551 39.377 99.6905 28.8059 99.6634 18.2346C99.6614 17.4231 99.4753 17.2113 98.9456 17.2478C98.1624 17.3018 97.376 17.2615 96.4611 17.2562C94.8248 17.2948 93.1879 17.3108 91.5522 17.3786C89.9613 17.4445 88.3593 16.968 86.7638 17.6067C87.5213 17.9588 88.2878 18.1831 89.0602 18.2371C90.2348 18.3192 91.0833 18.9596 91.4887 20.7701ZM77.3973 53.3568C75.2983 53.185 73.2626 53.7141 71.2607 54.5439C69.6264 55.2213 68.0926 56.2618 66.7465 57.7379C64.0812 60.6604 62.282 64.4855 61.2216 69.0452C60.3837 72.648 60.0949 76.3092 60.2307 80.1149C60.3183 82.569 60.5193 84.9709 60.9661 87.3127C61.6278 90.7809 62.7771 93.8898 64.3131 96.7872C65.3415 98.7272 66.4875 100.438 67.8369 101.803C70.8595 104.861 74.2908 106.203 77.9817 105.912C79.6353 105.782 81.2491 105.246 82.7622 104.121C83.8569 103.307 84.7938 102.293 85.5653 100.937C85.7448 100.622 85.9238 100.306 86.103 99.9898C86.0599 99.9267 86.0168 99.8636 85.9738 99.8005C86.1197 99.7814 86.2656 99.7623 86.4478 99.7384C86.3798 99.4962 86.3321 99.3264 86.3496 99.3888C86.5833 98.9304 86.7696 98.6225 86.91 98.2766C87.1484 97.6894 87.4651 97.2343 87.4387 96.3734C87.4181 95.7012 88.0344 95.0375 88.1655 94.2967C88.4173 92.8741 88.5399 91.4023 88.6757 89.9431C88.6933 89.754 88.4718 89.5192 88.3611 89.3055C88.2611 89.5007 88.1068 89.6778 88.0715 89.8946C87.9714 90.509 87.9254 91.1411 87.8485 91.7639C87.5321 94.324 86.9887 96.7854 85.8141 98.8C84.427 101.179 80.6714 102.397 78.6431 101.297C76.3504 100.054 74.5089 97.9865 73.3098 94.929C72.3932 92.592 71.5525 90.173 70.8524 87.6896C70.2916 85.7005 69.9245 83.5815 69.6014 81.4793C69.3761 80.0139 69.3853 78.4769 69.2639 76.9762C68.9916 73.6081 69.1749 70.2724 69.7321 67.0013C70.0376 65.2083 70.4911 63.4516 70.9889 61.7449C71.7797 59.0338 73.0591 56.8573 74.9978 55.7582C77.3115 54.4465 79.6969 54.356 82.0819 55.4829C82.7156 55.7824 83.3565 56.159 83.9124 55.0829C83.6104 55.1614 83.3085 55.24 82.9382 55.3364C83.0019 55.0507 83.0448 54.8583 83.1082 54.5743C81.231 54.0809 79.4491 53.1439 77.3973 53.3568Z" fill="#1D1D1D"/>
<path d="M213.914 117.397C215.913 117.02 217.497 117.889 218.576 120.263C218.999 121.191 219.447 121.253 220.092 120.875C221.402 120.106 222.212 118.626 222.728 116.869C223.816 113.163 224.8 109.393 225.842 105.659C226.185 104.43 225.802 103.39 225.465 102.354C222.985 94.7248 220.521 87.0859 217.993 79.4896C215.745 72.7305 213.424 66.0203 211.128 59.2936C210.875 58.5525 210.6 57.8205 210.288 57.1279C209.872 56.2025 209.336 55.5615 208.48 55.6043C207.768 55.64 207.053 55.491 206.338 55.4769C205.831 55.4669 205.623 55.1191 205.642 54.4377C205.662 53.6948 206.024 53.6552 206.424 53.6563C210.281 53.6663 214.138 53.6676 217.995 53.6727C220.119 53.6755 222.244 53.6841 224.368 53.6826C224.898 53.6822 225.211 53.9465 225.148 54.7988C225.097 55.501 224.783 55.6274 224.369 55.6265C223.052 55.6236 221.736 55.6296 220.42 55.6482C219.486 55.6615 219.362 55.8886 219.756 57.0904C220.856 60.4377 222 63.7549 223.107 67.0978C225.022 72.8855 226.922 78.6834 228.828 84.4774C229.298 85.9073 229.762 87.3421 230.239 88.7671C230.344 89.0804 230.496 89.3613 230.737 89.9092C231.012 89.1428 231.244 88.6038 231.408 88.0252C233.56 80.4076 235.709 72.7882 237.842 65.16C238.356 63.3209 238.84 61.4613 239.282 59.5845C239.486 58.7179 239.599 57.7943 239.677 56.8832C239.744 56.0982 239.461 55.6633 238.867 55.6458C237.529 55.6062 236.191 55.5385 234.854 55.4525C234.441 55.4259 233.985 55.4019 234.019 54.5044C234.052 53.6223 234.493 53.6588 234.916 53.6607C238.519 53.6768 242.122 53.6986 245.724 53.7163C246.119 53.7183 246.466 53.76 246.5 54.5164C246.537 55.3432 246.163 55.4236 245.745 55.4484C244.893 55.4989 244.038 55.6144 243.188 55.563C242.348 55.5124 241.894 56.1113 241.61 57.1138C241.03 59.1646 240.452 61.2169 239.893 63.2799C239.185 65.8951 238.527 68.5393 237.793 71.1395C236.386 76.1274 234.967 81.1093 233.504 86.0644C231.343 93.3866 229.139 100.684 226.953 107.991C225.964 111.298 225.042 114.653 223.958 117.896C223.163 120.271 221.878 122.095 220.121 123.08C219.635 123.353 219.459 123.771 219.417 124.478C219.243 127.386 217.757 129.763 215.679 130.514C213.999 131.122 211.822 129.83 210.817 127.543C209.206 123.881 210.382 118.383 213.914 117.397ZM224.085 96.5937C224.279 97.2234 224.462 97.8604 224.669 98.4812C225.017 99.5248 225.38 100.558 225.748 101.588C225.748 101.588 225.738 101.599 225.736 101.755C225.784 102.003 225.806 102.27 225.885 102.497C226.287 103.653 226.47 104.812 226.109 106.08C225.005 109.956 223.942 113.856 222.818 117.72C222.407 119.132 221.701 120.249 220.66 121.073C220.231 121.266 219.801 121.459 219.27 121.64C219.075 121.503 218.879 121.366 218.645 121.108C218.291 120.543 217.938 119.978 217.537 119.296C216.568 117.888 215.264 117.718 214.074 117.932C212.455 118.224 211.192 119.53 210.685 122.111C210.622 122.677 210.56 123.242 210.495 123.975C210.582 127.149 212.334 130.231 214.715 130.085C214.881 130.049 215.048 130.012 215.319 129.981C215.424 129.978 215.529 129.975 215.734 129.97C215.931 129.844 216.127 129.718 216.424 129.574C217.203 129.101 217.841 128.415 218.24 127.188C218.392 126.737 218.544 126.287 218.778 125.761C218.835 125.559 218.897 125.36 218.947 125.155C219.138 124.379 219.325 123.601 219.615 122.81C220.137 122.416 220.658 122.022 221.199 121.496C222.557 120.355 223.356 118.523 224.02 116.592C224.65 114.758 225.146 112.829 225.703 110.943C226.506 108.22 227.534 105.004 228.343 102.138C228.346 101.994 228.253 102.367 228.333 102.16C228.445 101.913 228.463 101.607 228.646 101.265C228.874 100.548 229.078 99.8749 229.291 99.1487C230.429 95.2636 231.557 91.3723 232.696 87.4871C233.965 83.1532 235.266 78.8378 236.508 74.4874C237.443 71.2109 238.313 67.8963 239.197 64.5905C239.805 62.3171 240.408 60.0397 240.971 57.7428C241.145 57.0297 241.24 56.2132 240.306 55.9556C240.566 55.4202 240.77 54.6508 240.967 54.6544C241.898 54.6716 241.179 55.7543 241.421 56.5351C241.945 54.5035 243.059 55.0316 244.024 54.9747C244.531 54.9448 245.042 55.0051 245.546 54.9471C245.729 54.9261 245.9 54.6794 246.076 54.5357C245.909 54.4148 245.742 54.1893 245.574 54.1884C241.895 54.1683 238.216 54.173 234.537 54.173C234.5 54.2833 234.517 54.3249 234.479 54.4352C234.627 54.5887 234.726 54.9466 234.866 54.9335C235.092 54.9125 235.309 54.6921 235.57 54.5309C235.545 54.7614 235.529 54.9167 235.502 55.1651C236.745 55.1651 237.938 55.1139 239.126 55.2007C239.428 55.2227 239.951 55.6584 239.966 55.9467C240.022 57.0383 240.013 58.1829 239.835 59.2407C239.629 60.4634 239.232 61.6234 238.893 62.7963C238.268 64.9636 237.61 67.1116 236.994 69.2845C236.495 71.0484 236.037 72.8366 235.562 74.6147C235.01 76.6796 234.471 78.7519 233.904 80.808C233.555 82.0743 233.131 83.2995 232.802 84.5756C232.619 85.283 232.634 86.1003 232.431 86.7902C232.167 87.6857 231.783 88.51 231.435 89.3526C231.246 89.8107 231.028 90.2433 230.747 90.8504C230.498 90.3633 230.312 90.0807 230.193 89.7491C229.933 89.026 229.707 88.2774 229.466 87.5402C228.633 84.996 227.813 82.443 226.959 79.9132C226.642 78.9736 226.25 78.1485 225.887 77.1813C225.887 77.1813 225.938 77.2536 225.833 77.1045C225.717 76.6846 225.678 76.1771 225.543 75.7697C224.124 71.4771 222.691 67.1942 221.281 62.8957C220.582 60.7668 219.904 58.6232 219.257 56.4614C219.017 55.659 219.231 55.2048 219.781 55.1697C221 55.0919 222.219 55.0291 223.439 54.9904C223.733 54.9811 224.033 55.1516 224.323 55.1187C224.48 55.101 224.623 54.8277 224.771 54.6696C224.644 54.5025 224.532 54.289 224.383 54.1836C224.271 54.1045 224.111 54.163 223.972 54.1629C218.223 54.1598 212.474 54.157 206.725 54.1541C206.48 54.154 206.235 54.1541 205.989 54.1541C205.958 54.2811 205.927 54.4082 205.896 54.5352C206.085 54.6812 206.269 54.9308 206.465 54.9533C206.993 55.0137 207.535 54.889 208.054 55.0006C208.757 55.1516 209.579 54.8946 210.088 55.8996C210.464 56.6423 210.851 57.3932 211.134 58.2111C212.826 63.1126 214.485 68.0371 216.164 72.9486C217.14 75.8057 218.137 78.6477 219.111 81.5065C219.824 83.5987 220.509 85.7104 221.215 87.8071C221.742 89.3692 222.283 90.9212 222.828 92.6237C223.054 93.3019 223.281 93.9802 223.529 94.7992C223.71 95.3496 223.892 95.9 224.085 96.5937Z" fill="#1D1D1D"/>
<path d="M203.175 54.1673C203.363 56.2812 202.567 57.8783 201.909 59.4681C198.834 66.9048 195.717 74.3064 192.58 81.6907C189.78 88.2844 186.931 94.8363 184.115 101.417C183.909 101.899 183.803 102.467 183.65 102.995C184.025 103.08 184.4 103.241 184.774 103.237C187.96 103.204 191.148 103.236 194.33 103.06C197.488 102.886 199.212 101.306 200.5 96.5739C201.116 94.3126 201.223 91.7617 201.52 89.332C201.609 88.6053 201.756 88.0742 202.335 88.2507C202.895 88.4213 202.8 89.0389 202.762 89.6721C202.574 92.7951 202.416 95.9219 202.26 99.0485C202.174 100.76 202.076 102.473 202.053 104.187C202.04 105.142 201.735 105.344 201.151 105.339C197.779 105.315 194.408 105.323 191.036 105.32C185.771 105.315 180.506 105.31 175.241 105.304C175.056 105.304 174.87 105.318 174.687 105.289C174.037 105.184 173.864 104.836 174.174 103.993C174.924 101.95 175.706 99.9288 176.515 97.9319C178.389 93.3077 180.269 88.6881 182.179 84.0947C184.644 78.1692 187.143 72.2739 189.621 66.36C190.914 63.2756 192.195 60.1814 193.473 57.0849C193.619 56.7298 193.715 56.3315 193.883 55.796C193.525 55.7486 193.286 55.6891 193.046 55.6894C190.299 55.6935 187.545 55.5435 184.805 55.7549C180.501 56.087 177.751 59.3251 176.909 65.6657C176.806 66.4392 176.705 67.2163 176.649 67.9985C176.609 68.5634 176.506 68.987 176.053 68.9753C175.61 68.9639 175.365 68.6054 175.364 67.9745C175.361 66.6523 175.366 65.3296 175.389 64.0078C175.426 61.9277 175.476 59.848 175.526 57.7684C175.551 56.7124 175.601 55.6574 175.615 54.6013C175.625 53.8485 175.91 53.5349 176.389 53.4828C176.618 53.4578 176.85 53.46 177.081 53.4622C181.605 53.5042 186.128 53.5593 190.652 53.588C194.067 53.6096 197.482 53.602 200.897 53.5961C201.357 53.5954 201.824 53.4463 202.275 53.521C202.581 53.5715 202.864 53.8937 203.175 54.1673ZM189.711 66.97C189.402 67.7407 189.101 68.5196 188.78 69.2807C186.783 74.0198 184.749 78.7288 182.787 83.4978C180.076 90.0858 177.416 96.7159 174.744 103.337C174.602 103.691 174.559 104.127 174.469 104.526C174.745 104.616 175.02 104.785 175.295 104.786C180.86 104.805 186.424 104.805 191.989 104.808C194.921 104.809 197.854 104.779 200.786 104.831C201.439 104.842 201.726 104.522 201.758 103.633C201.766 103.403 201.782 103.173 201.793 102.942C202.002 98.5345 202.216 94.1273 202.407 89.718C202.419 89.4387 202.25 89.1434 202.166 88.8555C202.068 89.1042 201.912 89.3392 201.882 89.6036C201.578 92.2639 201.485 94.982 200.652 97.4825C199.766 100.144 198.594 102.376 196.476 103.085C195.451 103.429 194.384 103.65 193.333 103.68C190.263 103.766 187.191 103.74 184.12 103.722C183.803 103.72 183.486 103.477 183.169 103.346C183.268 102.895 183.309 102.393 183.475 102.001C184.607 99.3241 185.768 96.6719 186.915 94.0086C188.7 89.8678 190.498 85.7385 192.26 81.5784C194.263 76.8498 196.248 72.1052 198.213 67.3438C199.675 63.8 201.101 60.2246 202.52 56.6449C202.682 56.236 202.712 55.7122 202.778 55.2346C202.894 54.3945 202.682 54.0685 202.046 54.0929C200.408 54.1559 198.768 54.1243 197.128 54.1206C193.78 54.113 190.432 54.1129 187.084 54.0834C183.646 54.0532 180.209 53.9873 176.772 53.9489C176.31 53.9437 175.961 54.19 175.93 54.9633C175.917 55.2907 175.853 55.615 175.849 55.9419C175.794 59.7394 175.739 63.5371 175.706 67.3351C175.703 67.7084 175.848 68.0843 175.925 68.459C176.06 68.1325 176.251 67.8277 176.317 67.4749C176.441 66.8091 176.485 66.1134 176.577 65.4343C176.9 63.0646 177.477 60.8263 178.62 59.0266C180.262 56.443 182.427 55.3438 184.8 55.2406C187.729 55.1131 190.664 55.1872 193.596 55.1951C194.316 55.197 194.457 55.5887 194.084 56.4879C192.647 59.9438 191.203 63.3927 189.711 66.97Z" fill="#1D1D1D"/>
<path d="M122.576 65.5384C125.305 73.8609 128.017 82.1124 130.823 90.6499C131.087 89.8982 131.301 89.3802 131.459 88.8291C133.028 83.3347 134.589 77.8357 136.149 72.3361C137.146 68.8219 138.162 65.318 139.121 61.7826C139.543 60.2239 139.908 58.6197 140.181 56.9954C140.363 55.9074 140.143 55.644 139.348 55.6116C138.563 55.5796 137.777 55.5993 136.992 55.5952C136.808 55.5942 136.616 55.632 136.439 55.5769C135.988 55.4365 135.353 55.5225 135.38 54.5305C135.407 53.5176 136.01 53.6673 136.484 53.6662C139.879 53.6587 143.273 53.6589 146.668 53.6572C146.806 53.6571 146.945 53.6738 147.083 53.6643C147.582 53.6302 147.896 53.9158 147.888 54.6773C147.88 55.4737 147.506 55.6304 147.036 55.625C145.905 55.612 144.772 55.6663 143.642 55.6009C142.891 55.5573 142.49 56.0664 142.23 56.987C141.295 60.2903 140.352 63.5886 139.411 66.8881C138.288 70.8261 137.198 74.7846 136.033 78.6967C133.613 86.82 131.154 94.9195 128.707 103.026C128.396 104.056 128.078 105.084 127.724 106.084C127.612 106.399 127.363 106.838 127.191 106.826C126.992 106.811 126.737 106.411 126.63 106.093C125.669 103.242 124.738 100.37 123.794 97.5077C121.995 92.0561 120.194 86.6058 118.392 81.1564C116.679 75.9746 114.979 70.7837 113.241 65.6184C112.353 62.9772 111.4 60.3804 110.468 57.7693C109.917 56.2262 109.072 55.3896 107.815 55.4611C106.962 55.5096 106.106 55.4465 105.252 55.4384C104.817 55.4343 104.447 55.3055 104.461 54.5296C104.476 53.7725 104.832 53.6502 105.274 53.6524C111.232 53.6814 117.19 53.7 123.148 53.7297C123.423 53.7311 123.698 53.8458 123.973 53.8488C124.464 53.8542 124.614 54.214 124.575 54.8636C124.534 55.5563 124.214 55.5991 123.837 55.5987C122.547 55.5973 121.257 55.6096 119.966 55.6287C119.811 55.631 119.656 55.7067 119.342 55.791C120.435 59.0771 121.498 62.2722 122.576 65.5384ZM132.649 85.9217C132.226 87.3078 131.802 88.694 131.334 90.1984C131.181 90.4972 131.028 90.7959 130.814 91.2115C130.46 90.3908 130.172 89.7219 129.866 88.947C129.828 88.8554 129.79 88.7638 129.737 88.5153C129.676 88.2031 129.644 87.8709 129.549 87.582C129.038 86.0382 128.5 84.513 127.993 82.9671C126.528 78.5028 125.073 74.0312 123.613 69.5634C122.786 67.0333 121.97 64.4955 121.121 61.98C120.656 60.5991 120.134 59.2572 119.623 57.7794C119.617 57.6996 119.611 57.6198 119.569 57.4028C119.436 56.719 119.191 56.0745 119.167 55.3302C119.438 55.2849 119.822 55.1644 120.093 55.1611C121.358 55.1457 122.623 55.1631 123.888 55.1343C124.025 55.1312 124.16 54.9062 124.296 54.784C124.176 54.586 124.08 54.3274 123.93 54.2087C123.804 54.1094 123.615 54.1667 123.454 54.1668C121.937 54.1677 120.419 54.1712 118.772 54.1659C115.719 54.1613 112.667 54.1567 109.499 54.145C108.136 54.1266 106.774 54.0865 105.412 54.1127C105.201 54.1168 104.992 54.4243 104.782 54.5915C105.031 54.7734 105.275 55.0974 105.529 55.1131C106.789 55.1909 108.051 55.1874 109.344 55.3344C109.628 55.7348 109.913 56.1353 110.221 56.6502C110.337 56.8176 110.453 56.985 110.592 57.2896C112.19 61.9036 113.805 66.5057 115.38 71.1353C116.623 74.7886 117.818 78.4757 119.046 82.2611C119.087 82.355 119.129 82.4489 119.182 82.6883C120.325 86.0245 121.496 89.3418 122.604 92.7021C123.806 96.3483 124.943 100.038 126.122 103.7C126.355 104.423 126.653 105.104 126.931 105.943C127.013 106.073 127.095 106.202 127.178 106.332C127.291 106.08 127.404 105.828 127.585 105.481C127.741 105.044 127.91 104.615 128.052 104.168C128.575 102.521 129.103 100.876 129.603 99.2148C130.437 96.4412 131.252 93.6552 132.148 90.7891C132.494 89.5628 132.841 88.3365 133.229 86.9874C134.054 84.2544 134.879 81.5213 135.766 78.6851C135.983 77.8879 136.189 77.0848 136.417 76.2944C137.559 72.3372 138.707 68.3841 139.851 64.4278C140.616 61.7792 141.38 59.1299 142.137 56.4763C142.419 55.4885 142.92 55.1134 143.656 55.1439C144.809 55.1918 145.965 55.1466 147.119 55.161C147.545 55.1663 147.695 54.8512 147.513 54.3696C147.446 54.1906 147.108 54.1646 146.893 54.1638C143.383 54.1511 139.873 54.1466 136.363 54.1689C136.137 54.1703 135.912 54.4057 135.687 54.5323C135.915 54.737 136.132 54.98 136.377 55.1314C136.513 55.2159 136.695 55.1483 136.857 55.1487C137.758 55.1511 138.659 55.1256 139.559 55.1645C140.279 55.1957 140.609 55.6549 140.506 56.6612C140.4 57.6919 140.202 58.7243 139.939 59.697C138.765 64.028 137.547 68.335 136.356 72.6566C135.834 74.5518 135.337 76.4615 134.761 78.4669C134.439 79.6407 134.114 80.8135 133.793 81.9886C133.44 83.2819 133.091 84.5772 132.649 85.9217Z" fill="#1D1D1D"/>
<path d="M20.279 39.5687C20.1329 40.2254 20.0062 40.8093 19.8704 41.4357C19.3742 41.1191 19.0706 40.8496 19.4934 40.0525C19.8138 39.4484 20.0402 38.7302 20.2553 38.0294C20.3434 37.7424 20.2916 37.3675 20.441 36.9375C20.6028 37.4997 20.7646 38.062 20.8646 38.4094C20.6248 38.8697 20.4616 39.1828 20.279 39.5687Z" fill="#1D1D1D"/>
<path d="M29.1699 77.7122C29.7702 77.1237 30.3745 77.3676 31.0571 77.5744C30.542 78.3361 29.6761 78.3829 29.1699 77.7122Z" fill="#1D1D1D"/>
<path d="M12.2207 76.8679C12.3608 76.7847 12.5209 76.7593 12.7153 76.7731C12.58 76.8501 12.4104 76.888 12.2207 76.8679Z" fill="#1D1D1D"/>
<path d="M96.591 17.2596C97.376 17.2598 98.1624 17.3 98.9456 17.2461C99.4753 17.2096 99.6614 17.4214 99.6634 18.2328C99.6905 28.8042 99.7551 39.3753 99.7848 49.9466C99.8061 57.5047 99.7825 65.063 99.7945 72.6211C99.797 74.2019 99.9057 75.7828 99.9003 77.3632C99.8754 84.7292 99.8223 92.095 99.7947 99.4609C99.7912 100.413 99.8278 101.377 99.9365 102.314C100.037 103.185 100.499 103.676 101.099 103.75C102.015 103.864 102.936 103.896 103.854 103.96C104.038 103.973 104.234 103.921 104.404 103.996C104.526 104.051 104.614 104.266 104.717 104.41C104.615 104.522 104.521 104.711 104.411 104.732C104.139 104.784 103.859 104.765 103.582 104.766C102.127 104.769 100.672 104.724 99.2184 104.784C97.3569 104.861 95.4974 105.033 93.6364 105.141C93.0002 105.179 92.362 105.147 91.635 105.147C91.6201 104.718 91.5957 104.342 91.5956 103.965C91.5925 94.6425 91.6184 85.3197 91.5719 75.9976C91.5608 73.7738 91.4134 71.525 91.1296 69.3407C90.9667 68.0876 90.3924 66.9481 90.023 65.7452C89.3942 63.6977 88.3386 62.0845 87.4163 60.329C87.1635 59.848 83.5417 56.2237 82.9168 55.3289C82.5 55.1797 81.7709 51.7495 88.3334 59.6539C88.6467 60.1568 90.1994 64.1838 90.3813 64.4856C90.5158 64.7087 90.624 64.9724 90.7784 65.16C90.8888 65.2942 91.1034 65.4526 91.1873 65.3852C91.3162 65.2817 91.4385 65.0002 91.4492 64.7826C91.5149 63.4496 91.5854 62.1133 91.5867 60.778C91.5989 48.5463 91.6001 36.3146 91.5948 24.0829C91.5943 22.978 91.5257 21.8732 91.5187 20.6948C92.2669 20.1991 91.6044 19.7827 91.5323 19.4323C91.6886 19.1508 91.791 18.877 91.9475 18.7028C92.2838 18.3284 92.6251 17.7917 93.0057 17.7084C93.6671 17.5638 94.3667 17.8069 95.0373 17.7071C95.5549 17.6301 96.168 18.0453 96.591 17.2596ZM90.8334 66.2161C90.8975 66.2059 90.6651 66.0772 90.7292 66.067C90.7146 65.9835 90.5209 65.7687 90.7292 65.9178C90.6745 65.9743 90.9375 66.2161 90.8334 66.2161ZM88.125 60.778C88.0756 60.777 88.9465 62.0629 88.8971 62.0619C88.8968 62.0912 88.8951 62.1461 88.8965 62.1463C88.9457 62.1519 88.0749 60.8656 88.125 60.778Z" fill="#1D1D1D"/>
<path d="M77.4661 53.3566C79.4487 53.1437 81.2307 54.0807 83.1078 54.5741C83.0444 54.8581 83.0015 55.0505 82.9378 55.3362C83.3081 55.2398 83.6101 55.1612 83.912 55.0827C83.3561 56.1588 82.7153 55.7822 82.0815 55.4827C79.6966 54.3558 77.3112 54.4463 74.9974 55.758C73.0587 56.8571 71.7794 59.0336 70.9885 61.7447C70.4907 63.4514 70.0372 65.2081 69.7317 67.0011C69.1745 70.2722 68.9912 73.6079 69.2635 76.976C69.3849 78.4767 69.3757 80.0137 69.601 81.4791C69.9241 83.5813 70.2912 85.7003 70.852 87.6894C71.5521 90.1728 72.3928 92.5918 73.3094 94.9288C74.5085 97.9863 76.35 100.054 78.6427 101.297C80.6711 102.397 84.4266 101.179 85.8138 98.7998C86.9884 96.7852 87.5317 94.3238 87.8481 91.7637C87.9251 91.1409 87.971 90.5088 88.0711 89.8944C88.1064 89.6776 88.2608 89.5005 88.3607 89.3053C88.4715 89.519 88.6929 89.7538 88.6753 89.9429C88.5395 91.4021 88.4169 92.8739 88.1651 94.2965C88.0341 95.0373 87.4177 95.701 87.4384 96.3732C87.4648 97.2341 87.148 97.6892 86.9096 98.2764C86.7692 98.6223 86.5829 98.9301 86.3492 99.3886C86.3317 99.3262 86.3794 99.496 86.4474 99.7382C86.2652 99.7621 86.1193 99.7812 85.9734 99.8003C86.0164 99.8634 86.0595 99.9265 86.1026 99.9896C85.9234 100.305 85.7445 100.622 85.5649 100.937C84.7934 102.293 83.8566 103.306 82.7619 104.12C81.2487 105.246 79.635 105.782 77.9813 105.912C74.2904 106.203 70.8591 104.86 67.8365 101.803C66.4871 100.438 65.3412 98.727 64.3127 96.787C62.7767 93.8896 61.6274 90.7807 60.9657 87.3125C60.5189 84.9707 60.3179 82.5688 60.2303 80.1147C60.0945 76.309 60.3833 72.6478 61.2212 69.045C62.2816 64.4853 64.0809 60.6602 66.7461 57.7377C68.0922 56.2616 69.626 55.2211 71.2603 54.5437C73.2622 53.7139 75.2979 53.1848 77.4661 53.3566ZM72.73 57.0333C72.7293 57.1039 72.7286 57.1744 72.728 57.2449C72.7484 57.2453 72.7867 57.2477 72.7868 57.2457C72.7907 57.1756 72.7911 57.105 72.73 57.0333Z" fill="#1D1D1D"/>
<path d="M96.5259 17.2578C96.1678 18.046 95.5548 17.6309 95.0371 17.7079C94.3666 17.8076 93.667 17.5645 93.0056 17.7092C92.625 17.7924 92.2836 18.3292 91.9473 18.7036C91.7909 18.8778 91.6885 19.1516 91.5322 19.4331C91.6043 19.7834 92.2667 20.1998 91.4973 20.6315C91.0832 18.9587 90.2346 18.3182 89.0601 18.2361C88.2877 18.1821 87.5212 17.9578 86.7637 17.6057C88.3592 16.967 89.9612 17.4435 91.5521 17.3776C93.1878 17.3098 94.8247 17.2939 96.5259 17.2578Z" fill="#1D1D1D"/>
<path d="M225.885 77.1776C226.246 78.0873 226.642 78.9721 226.959 79.9117C227.813 82.4415 228.633 84.9945 229.466 87.5387C229.707 88.2758 229.932 89.0245 230.193 89.7476C230.312 90.0792 230.498 90.3618 230.746 90.8488C231.027 90.2417 231.246 89.8092 231.435 89.3511C231.782 88.5084 232.167 87.6842 232.431 86.7886C232.634 86.0988 232.619 85.2815 232.801 84.574C233.131 83.298 233.554 82.0727 233.904 80.8064C234.471 78.7504 235.009 76.678 235.561 74.6132C236.036 72.8351 236.494 71.0469 236.994 69.2829C237.609 67.11 238.267 64.962 238.893 62.7947C239.231 61.6218 239.628 60.4619 239.834 59.2392C240.013 58.1814 240.021 57.0368 239.966 55.9451C239.951 55.6569 239.428 55.2212 239.126 55.1991C237.938 55.1124 236.745 55.1636 235.502 55.1636C235.208 55.1788 234.455 55.1625 234.479 54.932C234.375 53.24 235.091 54.9109 234.866 54.932C234.725 54.945 234.627 54.5866 234.479 54.4331C234.517 54.3228 234.499 54.2817 234.537 54.1715C238.216 54.1715 241.895 54.1667 245.574 54.1869C245.741 54.1878 246.042 54.1348 246.146 54.5822C245.937 55.0296 245.729 54.9245 245.546 54.9456C245.041 55.0035 244.531 54.9432 244.023 54.9731C243.058 55.0301 241.548 55.4723 241.023 57.5039C240.781 56.723 241.348 57.4331 240.417 57.4159C240.22 57.4123 240.208 55.6262 240.306 55.9541C241.24 56.2116 241.145 57.0281 240.97 57.7412C240.407 60.0382 239.805 62.3155 239.197 64.589C238.312 67.8947 237.442 71.2094 236.507 74.4859C235.266 78.8362 233.965 83.1516 232.695 87.4855C231.557 91.3707 230.429 95.262 229.291 99.1472C229.078 99.8733 228.751 101.098 228.437 101.86C228.287 101.903 227.884 102.234 227.812 102.158C227.829 101.615 228.209 100.267 228.312 99.8382C228.751 98.0086 229.398 96.2587 229.254 94.2243C229.247 94.1285 229.42 94.0068 229.543 93.8548C229.61 94.2265 229.658 94.4949 229.712 94.7945C230.493 93.8977 230.708 93.0862 230.408 92.0295C230.243 92.5458 230.104 92.9777 229.966 93.4096C229.884 93.368 229.801 93.3264 229.719 93.2848C229.809 92.7704 229.901 92.2567 229.988 91.7411C230.025 91.518 227.47 99.3725 227.501 99.1472C227.343 99.1574 229.766 91.0911 229.608 91.0951C229.403 91.1002 227.476 100.07 227.27 100.07C227.541 99.5776 227.445 100.729 227.023 100.294C227.188 100.533 226.75 100.012 227.023 100.294C226.447 99.9101 227.602 100.499 226.958 100.07C227.06 100.418 227.033 99.9321 227.148 100.21C227.273 100.512 227.474 98.8432 227.501 99.1472C227.641 100.696 227.324 98.5291 226.958 100.07C226.829 100.615 227.222 100.084 226.958 100.517C226.647 101.03 227.377 100.632 227.148 100.21C227.034 100.001 226.738 100.139 226.657 99.8382C227.056 100.146 226.704 97.9351 226.958 98.1312C227.01 98.0139 226.907 100.187 226.958 100.07C226.82 99.8944 226.503 98.7879 226.343 98.7277C225.775 98.5133 226.805 101.323 226.753 100.517C226.722 100.029 226.843 99.5631 226.58 99.1524C226.356 98.8029 226.913 99.4867 226.599 99.1472C226.351 99.2735 225.157 97.1193 224.926 97.2363C224.75 97.7435 222.95 92.2152 222.812 92.613C222.278 91.0564 221.741 89.3677 221.215 87.8055C220.509 85.7088 219.824 83.5971 219.111 81.5049C218.137 78.6462 217.139 75.8042 216.163 72.947C214.485 68.0355 212.826 63.1111 211.133 58.2096C210.851 57.3917 210.464 56.6407 210.088 55.898C209.578 54.893 208.757 55.15 208.054 54.9991C207.535 54.8875 206.992 55.0122 206.464 54.9517C206.268 54.9293 206.085 54.6797 205.896 54.5336C205.927 54.4066 205.958 54.2796 205.989 54.1526C206.234 54.1526 206.48 54.1525 206.725 54.1526C212.474 54.1554 218.223 54.1583 223.972 54.1614C224.111 54.1615 224.27 54.103 224.382 54.182C224.531 54.2874 224.643 54.501 224.771 54.6681C224.622 54.8261 224.48 55.0995 224.323 55.1172C224.032 55.15 223.733 54.9795 223.438 54.9889C222.219 55.0275 221 55.0903 219.781 55.1681C219.231 55.2033 219.016 55.6575 219.256 56.4598C219.903 58.6216 220.582 60.7652 221.28 62.8941C222.691 67.1926 224.124 71.4755 225.543 75.7682C225.678 76.1755 225.778 76.6063 225.854 77.1147C225.771 77.2587 225.728 77.314 225.685 77.3694C225.711 77.4022 225.738 77.4351 225.765 77.4679C225.805 77.3711 225.845 77.2743 225.885 77.1776ZM240.537 57.3212C240.482 57.1461 240.427 56.9709 240.371 56.7958C240.313 56.8737 240.254 56.9517 240.195 57.0297C240.29 57.161 240.385 57.2924 240.537 57.3212Z" fill="#1D1D1D"/>
<path d="M214.655 130C212.334 130.233 210.581 127.151 210.547 123.886C211.357 123.303 211.395 122.878 210.761 122.013C211.191 119.533 212.454 118.226 214.073 117.935C215.263 117.72 216.567 117.89 217.556 119.439C217.614 120.89 217.983 121.44 218.683 121.23C218.879 121.368 219.074 121.505 219.328 121.721C219.428 122.141 219.471 122.484 219.513 122.826C219.325 123.603 219.137 124.381 218.947 125.157C218.896 125.362 218.834 125.561 218.727 125.735C218.637 125.635 218.597 125.565 218.557 125.494C218.319 126.023 217.854 126.442 218.144 127.229C217.84 128.418 217.202 129.103 216.374 129.505C216.301 128.751 216.152 128.233 215.58 128.282C215.557 128.284 215.538 128.387 215.496 128.503C215.613 128.651 215.737 128.807 215.839 128.935C215.765 129.305 215.699 129.64 215.633 129.974C215.528 129.977 215.423 129.98 215.266 129.904C215.159 128.883 214.699 128.751 214.13 128.542C214.352 129.157 214.503 129.578 214.655 130Z" fill="#1D1D1D"/>
<path d="M222.812 92.6139C222.945 92.1432 223.093 91.6812 223.269 91.174C223.499 91.057 223.836 90.8856 224.085 90.7593C224.399 91.0989 224.703 91.3427 224.927 91.6921C225.19 92.1029 225.539 92.5847 225.571 93.0727C225.623 93.8786 225.767 94.375 226.335 94.5894C226.495 94.6496 226.615 94.9231 226.753 95.0987C226.702 95.216 226.651 95.3333 226.599 95.4505C226.345 95.2544 226.091 95.0583 225.692 94.7504C225.773 95.0513 225.805 95.3499 225.918 95.5587C226.147 95.9806 226.474 96.3019 226.786 95.7896C227.049 95.3557 225.789 92.7202 225.918 92.1751C226.284 90.6342 224.849 87.7496 224.709 86.2003C224.681 85.8964 227.083 89.0614 226.958 88.7589C226.844 88.481 226.777 88.1626 226.675 87.8147C227.319 88.2433 227.829 88.583 228.405 88.967C228.569 89.2062 228.782 89.6099 229.056 89.8923C229.477 90.3272 230.271 90.1825 230 90.6749C230.206 90.6749 230.262 91.0711 230.468 91.066C230.626 91.062 229.924 91.0763 230.082 91.066C230.051 91.2913 230.558 91.1975 230.521 91.4206C230.434 91.9362 230.715 91.2044 230.625 91.7188C230.707 91.7604 229.884 93.3685 229.966 93.4101C230.104 92.9782 230.243 92.5463 230.408 92.03C230.709 93.0867 230.885 94.6997 230.104 95.5965C230.05 95.2969 229.963 96.2665 229.896 95.8948C229.773 96.0467 229.785 96.0973 229.792 96.1931C229.935 98.2275 228.981 98.3903 228.542 100.22C228.439 100.648 228.254 100.768 228.196 101.337C227.833 101.662 228.042 101.568 228.437 101.861C228.435 102.004 228.184 102.69 228.125 102.905C227.883 102.791 227.635 102.402 227.543 102.311C227.227 102.503 226.97 102.66 226.713 102.817C226.68 102.732 226.647 102.648 226.614 102.564C226.742 102.331 226.871 102.097 227.146 101.597C226.558 101.597 226.139 101.711 225.729 101.711C225.729 101.711 225.748 101.587 225.765 101.528C225.917 101.209 226.037 100.927 226.191 100.692C226.584 100.093 226.542 99.7701 226.016 99.3413C225.787 99.1546 225.578 98.9171 225.335 98.6778C225.476 98.3884 225.595 98.1469 225.631 98.0721C225.284 97.4548 225.004 96.9387 224.709 96.4404C224.613 96.2793 224.485 96.2564 224.375 96.0442C224.481 95.3992 224.574 94.7396 224.716 93.9279C224.178 94.2529 223.831 94.5482 223.496 94.7504C223.269 94.0722 223.044 93.3651 222.812 92.6139ZM223.917 93.4532C223.888 93.2865 223.859 93.1199 223.83 92.9532C223.746 93.0298 223.663 93.1063 223.579 93.1828C223.673 93.3062 223.766 93.4297 223.917 93.4532ZM228.405 92.4645C228.404 92.5427 229.184 92.0969 229.183 92.1751C229.206 92.1754 229.248 92.1778 229.248 92.1757C229.252 92.0979 228.473 92.5436 228.405 92.4645Z" fill="#1D1D1D"/>
<path d="M225.625 101.415C226.036 101.337 226.808 101.564 227.396 101.564C227.121 102.064 226.743 102.332 226.614 102.566C226.647 102.65 226.738 102.673 226.771 102.757C227.028 102.6 227.289 102.353 227.604 102.16C227.697 102.252 227.99 102.422 228.229 102.608C227.479 105.332 226.506 108.221 225.703 110.943C225.146 112.83 224.65 114.758 224.02 116.593C223.357 118.524 222.604 120.356 221.141 121.555C220.972 121.412 220.861 121.21 220.75 121.009C221.563 120.206 222.408 119.133 222.818 117.721C223.942 113.857 225.005 109.957 226.109 106.081C226.47 104.813 226.287 103.654 225.885 102.497C225.806 102.271 225.673 101.741 225.625 101.415Z" fill="#1D1D1D"/>
<path d="M224.362 96.0312C224.479 96.1669 224.613 96.2811 224.708 96.4422C225.003 96.9405 225.382 97.3674 225.729 97.9846C225.692 98.0595 225.558 98.2917 225.416 98.5812C225.66 98.8204 226.021 98.9906 226.25 99.1772C226.776 99.606 226.584 100.094 226.191 100.694C226.036 100.929 225.887 101.39 225.729 101.713C225.35 100.738 225.017 99.5255 224.669 98.4819C224.462 97.8611 224.139 96.9516 223.958 96.195C224.055 95.9649 224.278 96.1343 224.362 96.0312Z" fill="#1D1D1D"/>
<path d="M220.833 120.953C220.989 121.122 221.194 121.192 221.354 121.401C220.937 121.848 220.051 122.64 219.479 123.041C219.386 122.706 219.32 121.965 219.271 121.55C219.693 121.284 220.359 121.178 220.833 120.953Z" fill="#1D1D1D"/>
<path d="M224.452 95.9793C224.361 96.1589 224.271 96.344 224.063 96.4931C223.863 95.998 223.667 95.2939 223.475 94.6731C223.799 94.4005 224.33 94.0671 224.868 93.7422C224.726 94.5539 224.558 95.3344 224.452 95.9793Z" fill="#1D1D1D"/>
<path d="M215.683 129.971C215.699 129.638 215.766 129.303 215.839 128.933C215.738 128.805 215.614 128.649 215.496 128.501C215.539 128.385 215.557 128.283 215.58 128.281C216.152 128.231 216.301 128.749 216.324 129.513C216.127 129.719 215.93 129.844 215.683 129.971Z" fill="#1D1D1D"/>
<path d="M210.723 122.062C211.396 122.878 211.357 123.303 210.549 123.802C210.56 123.243 210.622 122.678 210.723 122.062Z" fill="#1D1D1D"/>
<path d="M218.664 121.169C217.984 121.438 217.614 120.888 217.58 119.496C217.938 119.979 218.291 120.544 218.664 121.169Z" fill="#1D1D1D"/>
<path d="M214.686 130.04C214.504 129.575 214.352 129.154 214.131 128.539C214.7 128.748 215.16 128.88 215.215 129.899C215.048 130.012 214.882 130.048 214.686 130.04Z" fill="#1D1D1D"/>
<path d="M218.192 127.207C217.855 126.44 218.319 126.021 218.558 125.492C218.598 125.563 218.637 125.633 218.687 125.77C218.544 126.287 218.392 126.737 218.192 127.207Z" fill="#1D1D1D"/>
<path d="M228.165 102.169C227.73 101.908 227.833 101.662 228.202 101.412C228.308 101.388 228.373 101.389 228.488 101.393C228.427 101.643 228.315 101.89 228.165 102.169Z" fill="#1D1D1D"/>
<path d="M189.736 66.9075C191.202 63.3931 192.647 59.9443 194.083 56.4883C194.457 55.5891 194.315 55.1974 193.595 55.1955C190.663 55.1876 187.729 55.1135 184.799 55.241C182.426 55.3442 180.261 56.4434 178.619 59.027C177.476 60.8267 176.899 63.065 176.577 65.4348C176.484 66.1138 176.44 66.8096 176.316 67.4753C176.25 67.8281 176.059 68.1329 175.924 68.4594C175.848 68.0847 175.702 67.7088 175.705 67.3355C175.738 63.5375 175.793 59.7398 175.848 55.9423C175.853 55.6154 175.917 55.2911 175.929 54.9637C175.96 54.1904 176.309 53.9441 176.771 53.9493C180.208 53.9877 183.646 54.0536 187.083 54.0838C190.431 54.1133 193.779 54.1134 197.127 54.121C198.767 54.1247 200.407 54.1563 202.045 54.0933C202.681 54.0689 202.893 54.3949 202.777 55.235C202.712 55.7126 202.682 56.2364 202.52 56.6453C201.1 60.225 199.675 63.8004 198.212 67.3442C196.247 72.1056 194.262 76.8502 192.259 81.5788C190.497 85.7389 188.699 89.8682 186.915 94.009C185.767 96.6723 184.607 99.3245 183.474 102.001C183.308 102.394 183.268 102.895 183.169 103.346C183.486 103.477 183.802 103.72 184.119 103.722C187.19 103.74 190.262 103.767 193.332 103.68C194.383 103.65 195.45 103.429 196.475 103.086C198.593 102.376 199.765 100.145 200.651 97.4829C201.484 94.9824 201.577 92.2643 201.881 89.604C201.912 89.3396 202.068 89.1046 202.165 88.8559C202.25 89.1438 202.418 89.4391 202.406 89.7184C202.215 94.1277 202.001 98.5349 201.792 102.943C201.781 103.173 201.765 103.403 201.757 103.634C201.725 104.522 201.438 104.842 200.785 104.831C197.853 104.78 194.921 104.81 191.988 104.808C186.424 104.806 180.859 104.805 175.294 104.786C175.019 104.786 174.744 104.617 174.469 104.526C174.558 104.128 174.601 103.691 174.744 103.337C177.415 96.7163 180.076 90.0862 182.786 83.4982C184.749 78.7292 186.782 74.0202 188.78 69.2811C189.101 68.52 189.401 67.7411 189.736 66.9075Z" fill="#1D1D1D"/>
<path d="M130 89.0348C130.289 89.7036 130.46 90.3898 130.814 91.2106C131.027 90.795 131.181 90.4962 131.406 90.1385C131.676 90.3442 131.989 90.5598 132.188 90.8244C131.365 93.6052 130.437 96.4402 129.603 99.2138C129.103 100.875 128.575 102.52 128.052 104.167C127.91 104.614 127.642 105.409 127.396 105.888C127.145 106.009 127.037 105.807 126.875 105.888C126.608 105.187 126.355 104.422 126.122 103.699C124.943 100.038 123.806 96.3474 122.604 92.7011C121.496 89.3408 120.284 86.0648 119.167 82.6217C118.917 82.0471 119.026 82.2832 118.959 82.1743C117.742 78.5022 116.623 74.7876 115.38 71.1343C113.805 66.5047 112.092 61.8432 110.521 57.1187C110.707 56.2996 110.41 56.7602 110.209 56.6713C109.924 56.2709 109.456 55.5659 109.167 55.0308C109.256 54.5918 109.491 54.4403 109.584 54.1359C112.636 54.1405 115.835 54.0563 118.959 54.1359C119.115 54.5561 119.082 54.9839 119.167 55.3291C119.3 56.0128 119.518 56.8094 119.637 57.5917C119.655 57.7895 119.656 57.7651 119.688 57.8644C120.184 59.2239 120.656 60.5981 121.121 61.979C121.969 64.4945 122.785 67.0323 123.612 69.5624C125.073 74.0302 126.527 78.5018 127.993 82.9662C128.5 84.512 129.038 86.0372 129.549 87.581C129.644 87.8699 129.72 88.1851 129.792 88.5873C129.831 88.8033 130 88.8683 130 89.0348Z" fill="#1D1D1D"/>
<path d="M134.688 78.7442C135.196 76.8411 135.834 74.551 136.356 72.6558C137.547 68.3341 138.764 64.0271 139.938 59.6962C140.202 58.7235 140.4 57.691 140.506 56.6603C140.609 55.654 140.278 55.1949 139.558 55.1637C138.658 55.1247 137.757 55.1503 136.857 55.1479C136.695 55.1474 136.513 55.215 136.376 55.1306C136.132 54.9791 135.915 54.7361 135.686 54.5314C135.912 54.4049 136.137 54.1695 136.362 54.168C139.872 54.1457 143.382 54.1502 146.892 54.163C147.107 54.1638 147.445 54.1898 147.513 54.3688C147.694 54.8503 147.544 55.1655 147.119 55.1601C145.964 55.1457 144.809 55.191 143.655 55.1431C142.919 55.1125 142.418 55.4876 142.137 56.4755C141.38 59.129 140.616 61.7784 139.85 64.427C138.707 68.3833 137.558 72.3363 136.417 76.2936C136.189 77.084 135.921 78.2272 135.625 79.0424C135.286 78.9416 134.947 78.863 134.688 78.7442Z" fill="#1D1D1D"/>
<path d="M135 77.6992C135.293 77.7669 135.525 78.2612 135.833 78.4136C135.056 81.1802 133.607 86.101 132.708 88.8847C132.52 88.5297 132.509 87.2025 132.396 86.7968C132.746 85.5023 133.44 83.28 133.793 81.9867C134.113 80.8117 134.643 78.9242 135 77.6992Z" fill="#1D1D1D"/>
<path d="M119.167 55.3287C119.027 55.0138 118.947 54.5519 118.854 54.1358C120.366 54.0621 121.936 54.1662 123.454 54.1653C123.615 54.1652 123.804 54.108 123.929 54.2072C124.08 54.3259 124.176 54.5846 124.296 54.7826C124.16 54.9047 124.025 55.1298 123.887 55.1329C122.623 55.1616 121.358 55.1443 120.093 55.1596C119.792 55.1796 119.479 55.3287 119.167 55.3287Z" fill="#1D1D1D"/>
<path d="M109.688 54.1365C109.652 54.4444 109.688 54.951 109.583 55.3292C108.311 55.3778 106.788 55.1902 105.529 55.1123C105.275 55.0967 105.031 54.7726 104.782 54.5908C104.992 54.4236 105.2 54.1161 105.411 54.112C106.773 54.0858 108.267 54.1146 109.688 54.1365Z" fill="#1D1D1D"/>
<path d="M132.708 85.7539C132.867 86.1346 132.966 86.6825 133.133 87.0989C132.916 88.4384 132.258 90.5997 131.875 91.8687C131.639 91.6467 131.394 90.9404 131.146 90.6755C131.52 89.2892 132.239 87.1651 132.708 85.7539Z" fill="#1D1D1D"/>
<path d="M126.875 105.888C127.032 105.738 127.283 105.664 127.5 105.59C127.442 105.848 127.29 106.08 127.177 106.332C127.095 106.202 126.962 106.087 126.875 105.888Z" fill="#1D1D1D"/>
<path d="M110 56.375C110.19 56.4066 111.042 56.5241 110.625 57.2698C110.47 57.1443 110.127 56.5996 110 56.375Z" fill="#1D1D1D"/>
<path d="M129.874 88.9992C129.814 88.9464 129.745 88.8406 129.714 88.7031C129.79 88.763 129.827 88.8546 129.874 88.9992Z" fill="#1D1D1D"/>
<path d="M119.63 57.839C119.605 57.7988 119.573 57.6995 119.573 57.5703C119.611 57.6203 119.617 57.7001 119.63 57.839Z" fill="#1D1D1D"/>
<path d="M72.7615 57.0352C72.7916 57.1062 72.7913 57.1768 72.7873 57.247C72.7872 57.2489 72.749 57.2465 72.7285 57.2461C72.7292 57.1756 72.7299 57.1051 72.7615 57.0352Z" fill="#1D1D1D"/>
<path d="M240.625 57.5667C240.379 57.4424 240.19 57.2386 240 57.0347C240.117 56.9138 240.234 56.7928 240.352 56.6719C240.462 56.9436 240.571 57.2154 240.625 57.5667Z" fill="#1D1D1D"/>
<path d="M225.886 77.1814C225.846 77.2771 225.873 77.456 225.833 77.5528C225.806 77.52 225.652 77.4365 225.625 77.4037C225.668 77.3483 225.753 77.1716 225.833 77.1054C225.833 76.9566 225.887 77.1825 225.886 77.1814Z" fill="#1D1D1D"/>
<path d="M223.958 93.5083C223.854 93.6575 223.673 93.3061 223.579 93.1827C223.663 93.1062 223.746 93.0296 223.83 92.9531C223.859 93.1198 224.062 93.5083 223.958 93.5083Z" fill="#1D1D1D"/>
<path d="M229.167 91.7188C229.2 91.7974 229.375 92.017 229.248 92.1753C229.375 92.1662 229.085 92.3156 229.062 92.3153C229.063 92.2371 229.132 91.7965 229.167 91.7188Z" fill="#1D1D1D"/>
<circle cx="214" cy="124" r="7" fill="#1D1D1D"/>
<g clip-path="url(#clip1_4238_4529)">
<path d="M151.277 39.4357C151.277 35.3744 155.066 32.082 159.739 32.082C164.412 32.082 168.2 35.3744 168.2 39.4357V49.102C168.2 49.1509 168.16 49.1905 168.111 49.1905H165.922C165.91 49.1905 165.898 49.1879 165.886 49.1829L159.613 46.4022C159.59 46.392 159.563 46.3921 159.54 46.4024L153.363 49.1827C153.352 49.1879 153.339 49.1905 153.327 49.1905H151.366C151.317 49.1905 151.277 49.1509 151.277 49.102V39.4357Z" fill="#169544"/>
<path d="M159.627 38.625L165.907 49.1868L159.627 46.4074L153.346 49.1868L159.627 38.625Z" fill="#1D1D1D"/>
</g>
<g clip-path="url(#clip2_4238_4529)">
<path d="M151.277 39.4357C151.277 35.3744 155.066 32.082 159.739 32.082C164.412 32.082 168.2 35.3744 168.2 39.4357V49.102C168.2 49.1509 168.16 49.1905 168.111 49.1905H165.922C165.91 49.1905 165.898 49.1879 165.886 49.1829L159.613 46.4022C159.59 46.392 159.563 46.3921 159.54 46.4024L153.363 49.1827C153.352 49.1879 153.339 49.1905 153.327 49.1905H151.366C151.317 49.1905 151.277 49.1509 151.277 49.102V39.4357Z" fill="#169544"/>
<path d="M159.627 38.625L165.907 49.1868L159.627 46.4074L153.346 49.1868L159.627 38.625Z" fill="#1D1D1D"/>
</g>
</g>
<defs>
<clipPath id="clip0_4238_4529">
<rect width="250" height="150" fill="white"/>
</clipPath>
<clipPath id="clip1_4238_4529">
<rect width="16.9225" height="17.1085" fill="white" transform="translate(151.277 32.082)"/>
</clipPath>
<clipPath id="clip2_4238_4529">
<rect width="16.9225" height="17.1085" fill="white" transform="translate(151.277 32.082)"/>
</clipPath>
</defs>
</svg>
