<svg width="106" height="45" viewBox="0 0 106 45" fill="none" xmlns="http://www.w3.org/2000/svg">
<g clip-path="url(#clip0_4241_1945)">
<path d="M0.561523 30.7895C0.926177 30.7418 1.29477 30.742 1.65424 30.6849C1.94096 30.6393 2.07022 30.3923 2.15969 30.1346C2.58827 28.8998 3.01213 27.6635 3.44767 26.4312C4.45055 23.5937 5.45821 20.758 6.46591 17.9222C7.12365 16.0713 7.78029 14.2199 8.44594 12.3718C8.98037 10.888 9.53108 9.41008 10.0673 7.92693C10.2611 7.39083 10.4317 6.84636 10.6182 6.30755C10.649 6.21849 10.7074 6.13898 10.7531 6.05505C10.784 6.05493 10.8149 6.05481 10.8458 6.05469C11.0037 6.413 11.1679 6.76871 11.3185 7.13006C12.1676 9.16729 13.0146 11.2054 13.8602 13.2441C14.7171 15.31 15.5684 17.3782 16.4283 19.4428C17.2362 21.3827 18.0479 23.321 18.8656 25.2568C19.4721 26.6926 20.0908 28.1232 20.7041 29.5561C20.7117 29.5739 20.7195 29.5917 20.7272 29.6095C21.066 30.3903 21.5935 30.8856 22.5122 30.803C22.6853 30.7875 22.861 30.8035 23.0355 30.8007C23.2225 30.7977 23.33 30.874 23.3323 31.0726C23.3346 31.2769 23.1993 31.3082 23.0407 31.3092C22.2358 31.3142 21.4309 31.3236 20.6261 31.3212C18.8127 31.3158 16.9993 31.3047 15.1859 31.2945C15.0699 31.2939 14.9531 31.2888 14.8383 31.2736C14.677 31.2522 14.5752 31.1463 14.6308 30.9938C14.6632 30.9046 14.7898 30.7962 14.8801 30.7904C15.3826 30.7578 15.8871 30.7412 16.3908 30.7453C16.6744 30.7476 16.7655 30.6249 16.6964 30.3748C16.6349 30.1522 16.5505 29.9349 16.4637 29.7204C15.6798 27.7824 14.8894 25.8471 14.1115 23.9067C14.0042 23.6391 13.8636 23.5207 13.5597 23.5227C11.9598 23.5329 10.3598 23.5214 8.75988 23.5174C7.68347 23.5146 6.60695 23.519 5.5307 23.5042C5.2503 23.5003 5.10794 23.5711 5.00913 23.8646C4.53073 25.2862 4.00731 26.6925 3.52565 28.113C3.29901 28.7814 3.12381 29.4677 2.93805 30.1493C2.83074 30.5431 2.95791 30.7189 3.3716 30.7379C3.95245 30.7645 4.53491 30.7576 5.1154 30.7888C5.21704 30.7943 5.37265 30.8993 5.39908 30.9891C5.47303 31.2402 5.38397 31.317 5.08948 31.3167C3.73187 31.3154 2.37426 31.3132 1.01664 31.3121C0.88102 31.312 0.745393 31.3171 0.585646 31.334C0.561523 31.2862 0.561523 31.2241 0.587708 31.1387C1.32858 31.1166 2.04333 31.1127 2.75793 31.1211C3.10603 31.1252 3.45371 31.1601 3.80186 31.167C4.24767 31.1758 4.69379 31.1729 5.13966 31.167C5.18239 31.1665 5.25022 31.1152 5.25906 31.0767C5.26708 31.0417 5.21531 30.9589 5.18164 30.954C4.99229 30.9265 4.80073 30.9102 4.60939 30.901C4.12158 30.8776 3.62612 30.9032 3.14857 30.8219C2.90262 30.7801 2.68836 30.552 2.49515 30.4303C2.59938 30.3428 2.77647 30.2683 2.81378 30.1498C2.97089 29.6508 2.98977 29.1178 3.17848 28.6221C3.38711 28.074 3.57583 27.5184 3.7699 26.9649C3.94469 26.4664 4.11461 25.9662 4.28736 25.467C4.42672 25.0643 4.569 24.6625 4.70643 24.2591C4.81487 23.9408 4.91789 23.6206 5.02207 23.3051C5.05531 23.3035 5.13659 23.3053 5.21625 23.2948C5.33548 23.2791 5.45388 23.2371 5.57204 23.2393C5.67384 23.2411 5.77612 23.3168 5.87592 23.3121C6.49462 23.2826 7.11698 23.3909 7.73335 23.2627C7.79543 23.2498 7.86636 23.2732 7.93211 23.2854C8.08012 23.313 8.22718 23.3456 8.3751 23.3736C8.90209 23.4735 9.41165 23.2587 9.9608 23.3463C10.67 23.4594 11.4109 23.3795 12.1379 23.3677C12.254 23.3658 12.3689 23.2853 12.4843 23.2412C12.4744 23.2052 12.4646 23.1692 12.4548 23.1332C12.1099 23.1171 11.7649 23.0867 11.42 23.0888C11.0248 23.0913 10.6296 23.1409 10.2347 23.1378C9.47447 23.1318 8.71448 23.0988 7.95424 23.0853C7.47928 23.0768 7.00394 23.0889 6.52903 23.0789C6.44025 23.0771 6.35275 23.014 6.29028 22.9689C8.62405 22.9592 10.9322 22.9607 13.2403 22.9593C13.5668 22.9591 13.6026 22.9043 13.4853 22.6004C13.3143 22.1575 13.1372 21.7169 12.9623 21.2755C11.8174 18.387 10.6732 15.4983 9.52592 12.6108C9.45164 12.4238 9.354 12.2461 9.23359 11.9936C9.14373 12.2082 9.08567 12.3298 9.04103 12.4561C8.65402 13.5514 8.27495 14.6494 7.88298 15.7429C7.07287 18.0028 6.25375 20.2595 5.44877 22.5213C5.4018 22.6533 5.44763 22.8183 5.44744 22.9887C5.1592 23.168 5.2027 22.9142 5.22707 22.8031C5.29259 22.5047 5.38496 22.2103 5.49096 21.9232C5.63847 21.5237 5.81731 21.1358 5.9657 20.7366C6.11896 20.3244 6.24358 19.9015 6.39558 19.4887C6.61342 18.8971 6.85606 18.3144 7.0673 17.7206C7.30655 17.048 7.51874 16.3658 7.75035 15.6905C7.93161 15.1619 8.1255 14.6377 8.31187 14.1109C8.39914 13.8642 8.6076 13.6474 8.50268 13.3523C8.80097 13.2528 8.51476 12.9548 8.68369 12.8074C8.69185 12.8002 8.64767 12.7331 8.62786 12.694C8.57984 12.7278 8.50791 12.7516 8.48866 12.7975C8.44548 12.9004 8.44865 13.0253 8.39645 13.1214C8.29972 13.2995 8.11996 13.4616 8.49277 13.6732C8.12495 13.6455 8.06109 13.8266 8.00331 14.0352C7.953 14.2168 7.83311 14.3831 7.80386 14.5657C7.75039 14.8997 7.37718 15.1794 7.60309 15.488C7.4813 15.6758 7.37532 15.8118 7.29933 15.9629C7.18721 16.1858 7.18809 16.4364 7.05816 16.675C6.82461 17.1037 6.72249 17.6033 6.55835 18.0709C6.30236 18.7999 6.04407 19.5283 5.78012 20.2545C5.44979 21.1634 5.09643 22.0643 4.78872 22.9807C4.6987 23.2488 4.53012 23.545 4.73243 23.8647C4.64474 23.8647 4.56627 23.8647 4.46994 23.8647C4.59845 24.2265 4.01107 24.4529 4.34367 24.809C4.25105 24.8847 4.15252 24.9273 4.11903 24.9999C4.0245 25.2048 3.95393 25.421 3.87887 25.6345C3.69048 26.1704 3.50404 26.7069 3.31827 27.2437C3.05881 27.9935 2.80171 28.744 2.54145 29.4935C2.44208 29.7797 2.3648 30.0784 2.22568 30.3444C2.10559 30.5739 1.91206 30.7651 1.76486 30.9553C1.34273 30.8049 0.953817 30.9609 0.561523 30.9991C0.561523 30.937 0.561523 30.8749 0.561523 30.7895ZM9.02834 12.0298C9.09686 11.938 9.16537 11.8461 9.26607 11.7111C9.22408 11.6092 9.15614 11.4443 9.0882 11.2794C9.02544 11.4055 9.04719 11.5155 9.0102 11.5996C8.91986 11.8052 8.82479 12.0159 8.69023 12.1931C8.51265 12.4269 8.64016 12.506 8.84854 12.5988C8.9056 12.4151 8.95879 12.2438 9.02834 12.0298ZM12.7604 23.2622C12.9665 23.4364 13.3302 23.4227 13.5465 23.1992C13.2598 23.1386 13.006 23.067 12.7604 23.2622Z" fill="#1D1D1D"/>
<path d="M0.561523 31.0159C0.953817 30.9583 1.34273 30.8023 1.76486 30.9528C1.91206 30.7625 2.10559 30.5714 2.22568 30.3418C2.3648 30.0759 2.44208 29.7771 2.54145 29.491C2.80171 28.7415 3.05881 27.9909 3.31827 27.2412C3.50404 26.7044 3.69048 26.1678 3.87887 25.6319C3.95392 25.4185 4.0245 25.2022 4.11903 24.9974C4.15252 24.9248 4.25105 24.8822 4.34367 24.8064C4.01107 24.4503 4.59845 24.2239 4.46994 23.8621C4.56627 23.8621 4.64474 23.8621 4.73242 23.8621C4.53012 23.5424 4.69869 23.2462 4.78872 22.9781C5.09643 22.0618 5.44979 21.1608 5.78012 20.252C6.04407 19.5257 6.30236 18.7974 6.55835 18.0683C6.72249 17.6008 6.82461 17.1012 7.05815 16.6724C7.18809 16.4339 7.18721 16.1832 7.29933 15.9603C7.37532 15.8092 7.48129 15.6732 7.60309 15.4854C7.37717 15.1768 7.75039 14.8972 7.80386 14.5632C7.83311 14.3805 7.953 14.2143 8.00331 14.0327C8.06109 13.824 8.12495 13.6429 8.49277 13.6707C8.11996 13.4591 8.29971 13.2969 8.39644 13.1188C8.44865 13.0227 8.44548 12.8978 8.48866 12.7949C8.50791 12.749 8.57984 12.7252 8.62786 12.6914C8.64767 12.7306 8.69185 12.7977 8.68369 12.8048C8.51476 12.9523 8.80097 13.2503 8.50268 13.3497C8.6076 13.6449 8.39913 13.8616 8.31187 14.1083C8.12549 14.6351 7.93161 15.1594 7.75035 15.6879C7.51874 16.3633 7.30655 17.0454 7.0673 17.718C6.85606 18.3119 6.61342 18.8945 6.39558 19.4861C6.24358 19.8989 6.11896 20.3218 5.9657 20.7341C5.81731 21.1333 5.63847 21.5212 5.49096 21.9206C5.38496 22.2077 5.29259 22.5022 5.22707 22.8006C5.20269 22.9116 5.1592 23.1655 5.46943 22.9799C5.53864 22.9593 5.58304 22.9659 5.63587 22.9894C5.71554 22.9953 5.78677 22.9842 5.88222 22.9639C6.02585 22.9621 6.14526 22.9694 6.26466 22.9767C6.35275 23.0115 6.44025 23.0745 6.52903 23.0764C7.00393 23.0864 7.47928 23.0743 7.95424 23.0827C8.71448 23.0962 9.47447 23.1292 10.2347 23.1353C10.6296 23.1384 11.0248 23.0888 11.42 23.0863C11.7649 23.0841 12.1099 23.1146 12.4548 23.1306C12.4646 23.1666 12.4744 23.2026 12.4843 23.2386C12.3689 23.2828 12.254 23.3633 12.1379 23.3651C11.4109 23.377 10.67 23.4568 9.9608 23.3437C9.41165 23.2562 8.90209 23.4709 8.3751 23.3711C8.22718 23.343 8.08012 23.3104 7.93211 23.2829C7.86636 23.2706 7.79543 23.2473 7.73335 23.2602C7.11698 23.3884 6.49462 23.2801 5.87592 23.3095C5.77612 23.3142 5.67384 23.2386 5.57204 23.2367C5.45388 23.2346 5.33548 23.2765 5.21624 23.2923C5.13659 23.3028 5.05531 23.301 5.02207 23.3025C4.91789 23.6181 4.81487 23.9382 4.70643 24.2566C4.569 24.66 4.42672 25.0617 4.28736 25.4645C4.11461 25.9637 3.94469 26.4639 3.7699 26.9624C3.57583 27.5159 3.38711 28.0715 3.17848 28.6195C2.98977 29.1152 2.97089 29.6483 2.81378 30.1472C2.77647 30.2657 2.59938 30.3402 2.49515 30.4278C2.68835 30.5494 2.90262 30.7775 3.14857 30.8194C3.62612 30.9006 4.12158 30.875 4.60939 30.8985C4.80073 30.9077 4.99229 30.9239 5.18164 30.9515C5.21531 30.9564 5.26708 31.0391 5.25906 31.0741C5.25022 31.1127 5.18239 31.1639 5.13966 31.1645C4.69379 31.1704 4.24767 31.1733 3.80186 31.1645C3.45371 31.1576 3.10603 31.1226 2.75793 31.1185C2.04333 31.1101 1.32858 31.1141 0.587708 31.1129C0.561523 31.087 0.561523 31.0612 0.561523 31.0159Z" fill="#1D1D1D"/>
<path d="M65.2223 31.3108C64.8537 31.3109 64.5143 31.3123 64.1748 31.3106C64.0082 31.3098 63.8597 31.2847 63.86 31.0635C63.8602 30.8318 64.0224 30.8401 64.182 30.8321C64.5494 30.8136 64.9216 30.8221 65.2826 30.763C65.8923 30.6631 66.2224 30.2917 66.2479 29.6749C66.2759 28.9971 66.2671 28.3176 66.2661 27.6389C66.2617 24.6616 66.2623 21.6843 66.2393 18.7071C66.236 18.2806 66.1716 17.8349 66.0313 17.4345C65.8742 16.986 65.4985 16.7335 64.9922 16.7331C64.7498 16.7329 64.5069 16.7291 64.2654 16.7112C64.0948 16.6986 63.8547 16.7574 63.8478 16.4772C63.84 16.1596 64.1069 16.2396 64.2764 16.239C65.9543 16.2334 67.6322 16.239 69.31 16.241C70.0179 16.2418 70.7258 16.2405 71.4336 16.2425C71.593 16.2429 71.7569 16.2435 71.7552 16.4749C71.7535 16.7116 71.5812 16.6936 71.4266 16.6973C70.9807 16.7081 70.5346 16.723 70.0887 16.7216C69.8707 16.721 69.779 16.7904 69.7796 17.0246C69.7912 21.302 69.7962 25.5793 69.8032 29.8567C69.8034 29.9633 69.8011 30.0715 69.8178 30.1761C69.8656 30.4768 69.9958 30.7209 70.3341 30.7537C70.7376 30.7928 71.1431 30.8128 71.548 30.8364C71.706 30.8456 71.8711 30.8283 71.8738 31.062C71.8767 31.3085 71.7085 31.3072 71.535 31.3073C69.4404 31.3081 67.3459 31.3095 65.2223 31.3108Z" fill="#1D1D1D"/>
<path d="M30.2551 19.0998C29.9478 19.8225 29.8194 20.5633 29.7428 21.3164C29.5449 23.2637 29.909 25.1141 30.7109 26.8864C31.0471 27.6293 31.4348 28.3399 31.9787 28.9609C32.8323 29.9356 34.2715 30.3479 35.5007 29.9361C36.3715 29.6443 36.7964 28.9541 37.039 28.1339C37.1674 27.6998 37.2298 27.2454 37.3076 26.7976C37.3438 26.5888 37.4116 26.4527 37.6563 26.4668C37.8926 26.4805 37.9079 26.6335 37.9047 26.8109C37.8645 28.9717 36.4654 31.1093 34.1682 31.5303C31.6254 31.9964 29.4305 31.2701 27.695 29.3146C26.6331 28.118 25.9874 26.7137 25.7515 25.1314C25.5155 23.548 25.5522 21.9826 26.1322 20.4624C26.9799 18.2401 28.489 16.7368 30.8375 16.1705C32.3319 15.8102 33.8305 15.7792 35.311 16.2635C36.5582 16.6715 37.4424 17.5303 38.1615 18.5884C38.3314 18.8384 38.4975 19.091 38.6654 19.3423C38.6923 19.3349 38.7193 19.3275 38.7463 19.3202C38.7565 19.2226 38.7752 19.1251 38.7758 19.0275C38.7961 15.8369 38.8149 12.6463 38.8333 9.45574C38.8374 8.73801 38.8473 8.02015 38.8374 7.30259C38.834 7.05298 38.793 6.8013 38.744 6.55558C38.6833 6.25099 38.4322 6.02574 38.1224 5.98594C37.7572 5.93905 37.3904 5.90441 37.0238 5.86954C36.8646 5.8544 36.7306 5.81658 36.7306 5.62227C36.7306 5.4249 36.8418 5.35479 37.0303 5.35547C38.7569 5.3617 40.4834 5.36677 42.2099 5.36595C42.5229 5.36581 42.5392 5.56108 42.5393 5.79342C42.5403 7.96618 42.5455 10.1389 42.5462 12.3117C42.5481 18.1025 42.5474 23.8933 42.55 29.6841C42.5504 30.6554 42.6624 30.7667 43.6267 30.7947C43.8593 30.8014 44.0926 30.8096 44.3247 30.7986C44.53 30.7889 44.6402 30.8619 44.6417 31.0742C44.6432 31.2934 44.4936 31.3196 44.3261 31.3214C44.1418 31.3235 43.9574 31.3205 43.7732 31.3252C42.2805 31.3629 40.7879 31.4022 39.2952 31.4401C38.8234 31.452 38.8237 31.4507 38.8236 30.9902C38.8235 29.3315 38.8348 27.6727 38.8195 26.0142C38.8052 24.4632 38.7689 22.9122 38.7261 21.3616C38.7195 21.125 38.6588 20.8769 38.5667 20.6578C38.0922 19.5295 37.4628 18.4979 36.5131 17.7047C35.5377 16.89 34.3912 16.5465 33.131 16.6688C31.8292 16.7952 30.9401 17.5168 30.4147 18.7019C30.3599 18.8256 30.3131 18.953 30.2551 19.0998ZM38.9255 6.53468C38.9411 6.85878 38.9699 7.18286 38.9701 7.50697C38.9723 11.0949 38.9718 14.6829 38.9667 18.2709C38.9662 18.6626 38.9365 19.0545 38.909 19.4456C38.9045 19.5094 38.8531 19.5919 38.799 19.6223C38.7637 19.6421 38.6736 19.5956 38.6272 19.5562C38.5624 19.5012 38.5169 19.4239 38.4604 19.3584C38.3841 19.2699 38.3051 19.1836 38.1735 19.0361C38.0448 18.4532 37.5603 18.0208 37.0519 17.5198C37.1143 17.7732 37.1091 17.9981 37.2152 18.1392C37.6026 18.6541 38.0459 19.1273 38.31 19.7279C38.4651 20.0808 38.7063 20.415 38.7747 20.7826C38.8939 21.4233 38.9558 22.083 38.9605 22.7353C38.98 25.4697 38.9691 28.2044 38.9704 30.9391C38.9705 31.0496 38.9807 31.16 38.987 31.2859C39.2923 31.2859 39.5603 31.295 39.8275 31.2841C40.6091 31.2523 41.3901 31.2018 42.1719 31.1792C42.7823 31.1615 43.3936 31.175 44.0045 31.174C44.1208 31.1738 44.2383 31.1794 44.3528 31.1641C44.3989 31.1579 44.4385 31.1025 44.481 31.0696C44.4378 31.0274 44.4011 30.9641 44.3497 30.9482C44.2785 30.9262 44.1962 30.9414 44.1187 30.9377C43.733 30.9189 43.3464 30.9094 42.9619 30.8761C42.7096 30.8542 42.5158 30.7103 42.4734 30.4549C42.4278 30.18 42.4124 29.8971 42.4139 29.6179C42.4255 27.4572 42.4478 25.2965 42.4582 23.1359C42.4605 22.6723 42.4148 22.2086 42.4138 21.7448C42.4087 19.5278 42.4186 17.3107 42.4097 15.0936C42.3973 11.9927 42.3701 8.89187 42.3588 5.79094C42.3579 5.55292 42.2797 5.4908 42.0573 5.5015C41.7283 5.51732 41.3981 5.50551 41.0139 5.50396C40.3266 5.51529 39.6392 5.51996 38.9522 5.53984C38.2841 5.55919 37.6113 5.41942 36.9412 5.60676C37.2593 5.71006 37.5812 5.77584 37.9056 5.79167C38.3989 5.81576 38.7553 6.00363 38.9255 6.53468ZM33.0075 16.0935C32.1259 16.0431 31.271 16.1983 30.4302 16.4417C29.7438 16.6404 29.0997 16.9456 28.5343 17.3786C27.415 18.2358 26.6593 19.3579 26.214 20.6954C25.8621 21.7522 25.7408 22.8262 25.7978 23.9425C25.8346 24.6624 25.919 25.3669 26.1067 26.0539C26.3846 27.0712 26.8673 27.9831 27.5124 28.8331C27.9443 29.4021 28.4256 29.904 28.9923 30.3044C30.2617 31.2013 31.7028 31.595 33.2529 31.5098C33.9474 31.4716 34.6251 31.3143 35.2606 30.9842C35.7204 30.7454 36.1138 30.4481 36.4378 30.0504C36.5132 29.9579 36.5884 29.8651 36.6636 29.7725C36.6456 29.754 36.6275 29.7355 36.6094 29.7169C36.6707 29.7113 36.732 29.7057 36.8085 29.6987C36.7799 29.6277 36.7599 29.5779 36.7672 29.5962C36.8654 29.4617 36.9436 29.3714 37.0026 29.2699C37.1027 29.0977 37.2357 28.9642 37.2246 28.7117C37.216 28.5145 37.4748 28.3198 37.5299 28.1025C37.6356 27.6852 37.6871 27.2535 37.7441 26.8255C37.7515 26.77 37.6585 26.7011 37.612 26.6384C37.57 26.6957 37.5052 26.7476 37.4904 26.8112C37.4484 26.9915 37.429 27.1769 37.3967 27.3595C37.2639 28.1105 37.0356 28.8325 36.5423 29.4235C35.9598 30.1214 34.3825 30.4785 33.5307 30.156C32.5678 29.7914 31.7944 29.1848 31.2908 28.288C30.9058 27.6025 30.5527 26.8929 30.2587 26.1644C30.0232 25.581 29.869 24.9594 29.7333 24.3427C29.6387 23.9129 29.6426 23.462 29.5916 23.0218C29.4772 22.0339 29.5542 21.0554 29.7882 20.0958C29.9165 19.5699 30.107 19.0546 30.3161 18.554C30.6482 17.7587 31.1855 17.1203 31.9997 16.7979C32.9714 16.4131 33.9732 16.3866 34.9749 16.7171C35.241 16.805 35.5102 16.9154 35.7436 16.5998C35.6168 16.6228 35.49 16.6459 35.3345 16.6741C35.3613 16.5903 35.3793 16.5339 35.4059 16.4506C34.6175 16.3059 33.8692 16.031 33.0075 16.0935Z" fill="#1D1D1D"/>
<path d="M90.342 34.8809C91.1814 34.7703 91.8465 35.0252 92.2998 35.7214C92.4772 35.9939 92.6655 36.012 92.9363 35.901C93.4865 35.6755 93.827 35.2412 94.0435 34.7261C94.5006 33.6388 94.9138 32.5332 95.3515 31.4376C95.4954 31.0772 95.3345 30.7721 95.193 30.4681C94.1517 28.2304 93.1165 25.9896 92.0551 23.7614C91.1106 21.7787 90.136 19.8104 89.1716 17.8372C89.0653 17.6198 88.9501 17.4051 88.8191 17.2019C88.6442 16.9305 88.4192 16.7425 88.0598 16.755C87.7607 16.7655 87.4602 16.7218 87.1601 16.7177C86.9471 16.7147 86.8599 16.6127 86.8677 16.4128C86.8761 16.1949 87.0282 16.1833 87.1961 16.1836C88.8159 16.1866 90.4358 16.1869 92.0556 16.1884C92.9479 16.1892 93.8402 16.1918 94.7325 16.1913C94.9549 16.1912 95.0863 16.2687 95.06 16.5188C95.0383 16.7247 94.9067 16.7618 94.7327 16.7615C94.1798 16.7607 93.6269 16.7624 93.0741 16.7679C92.6822 16.7718 92.6297 16.8384 92.7955 17.191C93.2573 18.1728 93.7379 19.1459 94.2025 20.1264C95.0069 21.8242 95.8049 23.5249 96.6054 25.2245C96.8029 25.6439 96.9974 26.0648 97.198 26.4828C97.2421 26.5747 97.3059 26.6571 97.4073 26.8178C97.5228 26.593 97.6201 26.4349 97.6888 26.2652C98.5926 24.0307 99.4951 21.7956 100.391 19.558C100.607 19.0185 100.81 18.4731 100.996 17.9226C101.082 17.6683 101.129 17.3974 101.162 17.1302C101.19 16.8999 101.071 16.7723 100.822 16.7672C100.26 16.7556 99.6977 16.7357 99.1362 16.7105C98.9625 16.7027 98.7712 16.6957 98.7854 16.4324C98.7994 16.1736 98.9848 16.1843 99.1621 16.1849C100.675 16.1896 102.188 16.196 103.702 16.2012C103.867 16.2018 104.013 16.214 104.027 16.4359C104.043 16.6784 103.886 16.702 103.71 16.7093C103.352 16.7241 102.993 16.758 102.636 16.7429C102.284 16.7281 102.093 16.9037 101.974 17.1978C101.73 17.7994 101.487 18.4014 101.252 19.0065C100.955 19.7737 100.679 20.5493 100.371 21.312C99.7796 22.7751 99.1836 24.2365 98.5693 25.69C97.6615 27.8378 96.7362 29.9783 95.818 32.1217C95.4024 33.092 95.0155 34.076 94.56 35.0271C94.2263 35.724 93.6866 36.2589 92.9488 36.548C92.7445 36.6281 92.6707 36.7505 92.653 36.958C92.58 37.8111 91.9556 38.5082 91.0829 38.7286C90.3777 38.9068 89.4634 38.5278 89.0411 37.8571C88.3646 36.7828 88.8585 35.17 90.342 34.8809ZM94.6134 28.7786C94.6949 28.9633 94.772 29.1501 94.8589 29.3322C95.005 29.6384 95.1575 29.9415 95.312 30.2435C95.312 30.2435 95.3077 30.2467 95.307 30.2925C95.3271 30.3653 95.3363 30.4437 95.3694 30.5101C95.5383 30.8493 95.615 31.1893 95.4634 31.5613C94.9999 32.6983 94.5535 33.8423 94.0814 34.9757C93.9089 35.3899 93.6121 35.7176 93.1752 35.9592C92.9948 36.0158 92.8144 36.0724 92.5914 36.1255C92.5093 36.0853 92.4272 36.045 92.3286 35.9695C92.1801 35.8037 92.0316 35.6379 91.8632 35.4379C91.4565 35.0248 90.9088 34.9751 90.4091 35.0379C89.7289 35.1235 89.1985 35.5067 88.9857 36.2637C88.9594 36.4295 88.9332 36.5954 88.9058 36.8104C88.9423 37.7415 89.6784 38.6454 90.6781 38.6027C90.7481 38.5921 90.8181 38.5814 90.932 38.5721C90.976 38.5713 91.02 38.5704 91.1061 38.5688C91.1887 38.532 91.2713 38.4952 91.396 38.4528C91.7231 38.3139 91.9911 38.113 92.1587 37.7528C92.2226 37.6207 92.2864 37.4886 92.3845 37.3344C92.4084 37.2751 92.4345 37.2167 92.4557 37.1565C92.5358 36.9289 92.6144 36.7008 92.7362 36.4687C92.9553 36.3531 93.1743 36.2375 93.4013 36.0831C93.9719 35.7487 94.3075 35.2113 94.5862 34.6447C94.8508 34.1067 95.0592 33.541 95.2928 32.9877C95.63 32.1889 96.0619 31.2456 96.4018 30.4048C96.4029 30.3627 96.3637 30.472 96.3977 30.4114C96.4444 30.3389 96.4521 30.2491 96.529 30.1489C96.6246 29.9385 96.7105 29.7411 96.7999 29.528C97.278 28.3884 97.7517 27.247 98.2297 26.1073C98.7629 24.836 99.3093 23.5702 99.8307 22.2941C100.223 21.333 100.589 20.3607 100.96 19.391C101.216 18.7241 101.469 18.0561 101.705 17.3823C101.778 17.1731 101.818 16.9336 101.426 16.8581C101.535 16.701 101.621 16.4753 101.704 16.4764C102.095 16.4814 101.792 16.799 101.894 17.0281C102.114 16.4321 102.582 16.587 102.987 16.5703C103.2 16.5616 103.415 16.5792 103.627 16.5622C103.704 16.5561 103.775 16.4837 103.849 16.4416C103.779 16.4061 103.709 16.34 103.639 16.3397C102.093 16.3338 100.548 16.3352 99.0032 16.3352C98.9874 16.3675 98.9947 16.3797 98.9788 16.4121C99.0409 16.4571 99.0823 16.5621 99.1412 16.5583C99.2361 16.5521 99.3272 16.4874 99.4369 16.4401C99.4266 16.5078 99.4196 16.5533 99.4085 16.6262C99.9304 16.6262 100.431 16.6112 100.93 16.6366C101.057 16.6431 101.277 16.7709 101.283 16.8555C101.307 17.1757 101.303 17.5114 101.228 17.8217C101.141 18.1804 100.975 18.5206 100.833 18.8647C100.57 19.5004 100.294 20.1305 100.035 20.7679C99.8252 21.2853 99.6329 21.8098 99.4333 22.3314C99.2016 22.9371 98.9755 23.545 98.7373 24.1481C98.5905 24.5195 98.4126 24.879 98.2743 25.2533C98.1976 25.4608 98.2039 25.7005 98.1186 25.9029C98.0078 26.1656 97.8462 26.4074 97.7004 26.6545C97.6211 26.7889 97.5291 26.9158 97.4112 27.0939C97.3068 26.951 97.2288 26.8681 97.1786 26.7708C97.0694 26.5587 96.9746 26.3391 96.8733 26.1229C96.5235 25.3766 96.1791 24.6277 95.8206 23.8856C95.6874 23.61 95.5228 23.368 95.3703 23.0843C95.3703 23.0843 95.3915 23.1055 95.3478 23.0617C95.299 22.9386 95.2825 22.7897 95.2259 22.6702C94.6299 21.411 94.0279 20.1547 93.4356 18.8938C93.1423 18.2693 92.8574 17.6406 92.5856 17.0064C92.4848 16.7711 92.575 16.6378 92.806 16.6275C93.3178 16.6047 93.8298 16.5863 94.342 16.575C94.4656 16.5722 94.5915 16.6222 94.7136 16.6126C94.7794 16.6074 94.8392 16.5272 94.9017 16.4809C94.848 16.4318 94.8011 16.3692 94.7385 16.3383C94.6915 16.3151 94.6243 16.3322 94.5661 16.3322C92.1517 16.3313 89.7372 16.3305 87.3228 16.3296C87.2197 16.3296 87.1166 16.3296 87.0135 16.3296C87.0005 16.3669 86.9874 16.4042 86.9744 16.4414C87.0539 16.4842 87.1309 16.5575 87.2133 16.5641C87.435 16.5818 87.6628 16.5452 87.881 16.5779C88.1761 16.6222 88.5211 16.5468 88.735 16.8416C88.8931 17.0595 89.0556 17.2798 89.1742 17.5197C89.8849 18.9575 90.5818 20.402 91.2866 21.8427C91.6966 22.6808 92.1156 23.5144 92.5246 24.353C92.8239 24.9667 93.1116 25.5861 93.4083 26.2012C93.6293 26.6594 93.8566 27.1147 94.0853 27.614C94.1804 27.813 94.2756 28.0119 94.3801 28.2522C94.4561 28.4136 94.5322 28.5751 94.6134 28.7786Z" fill="#1D1D1D"/>
<path d="M85.8313 16.3283C85.9105 16.9484 85.576 17.4169 85.2999 17.8832C84.0083 20.0646 82.6992 22.2357 81.3819 24.4018C80.2057 26.336 79.0092 28.2579 77.8268 30.1883C77.7404 30.3295 77.6955 30.4962 77.6313 30.651C77.7887 30.6759 77.9463 30.7233 78.1036 30.7222C79.4414 30.7125 80.7802 30.7218 82.1166 30.6702C83.4429 30.619 84.1673 30.1558 84.7083 28.7676C84.9668 28.1042 85.0115 27.356 85.1365 26.6433C85.1739 26.4301 85.2355 26.2743 85.4787 26.3261C85.7137 26.3761 85.6739 26.5573 85.658 26.743C85.5793 27.6591 85.5128 28.5763 85.447 29.4934C85.411 29.9954 85.37 30.4978 85.3604 31.0006C85.355 31.2808 85.2266 31.34 84.9813 31.3388C83.5653 31.3317 82.1494 31.3341 80.7334 31.3331C78.5222 31.3316 76.311 31.3301 74.0998 31.3284C74.0222 31.3284 73.9439 31.3325 73.8672 31.3239C73.5942 31.2933 73.5215 31.191 73.6515 30.9439C73.9668 30.3446 74.2951 29.7517 74.635 29.1659C75.422 27.8095 76.2114 26.4544 77.0137 25.107C78.0487 23.3688 79.0985 21.6396 80.1392 19.9048C80.6819 19.0001 81.2199 18.0924 81.7567 17.1841C81.8183 17.08 81.8584 16.9631 81.9292 16.8061C81.7788 16.7921 81.6783 16.7747 81.5777 16.7748C80.4237 16.776 79.2672 16.732 78.1163 16.794C76.309 16.8914 75.1539 17.8413 74.8001 19.7012C74.757 19.9281 74.7145 20.156 74.6912 20.3854C74.6744 20.5512 74.631 20.6754 74.4409 20.672C74.2547 20.6686 74.152 20.5635 74.1514 20.3784C74.1503 19.9906 74.1525 19.6026 74.1621 19.2149C74.1773 18.6047 74.1986 17.9946 74.2195 17.3846C74.2301 17.0749 74.2511 16.7654 74.2568 16.4556C74.2609 16.2348 74.3809 16.1428 74.5818 16.1275C74.6783 16.1202 74.7756 16.1208 74.8726 16.1214C76.7724 16.1338 78.6722 16.1499 80.572 16.1584C82.0063 16.1647 83.4406 16.1625 84.8749 16.1608C85.0682 16.1605 85.2642 16.1168 85.4537 16.1387C85.5819 16.1535 85.7008 16.248 85.8313 16.3283ZM80.1771 20.0838C80.0469 20.3098 79.9208 20.5383 79.7861 20.7616C78.9471 22.1517 78.0931 23.533 77.269 24.9319C76.1306 26.8644 75.0131 28.8092 73.8912 30.7514C73.8312 30.8552 73.8133 30.9833 73.7758 31.1001C73.8914 31.1267 74.0069 31.1762 74.1226 31.1765C76.4596 31.182 78.7966 31.1821 81.1336 31.1829C82.3651 31.1833 83.5968 31.1745 84.8282 31.1895C85.1025 31.1929 85.223 31.099 85.2363 30.8383C85.2397 30.7707 85.2465 30.7032 85.251 30.6356C85.3388 29.3427 85.4287 28.0499 85.5089 26.7565C85.514 26.6746 85.4432 26.5879 85.4076 26.5035C85.3667 26.5764 85.3012 26.6454 85.2885 26.723C85.1607 27.5033 85.1216 28.3006 84.772 29.0341C84.3998 29.8148 83.9074 30.4694 83.018 30.6775C82.5874 30.7783 82.1394 30.8432 81.6979 30.8519C80.4086 30.8773 79.1186 30.8696 77.8289 30.8643C77.6956 30.8637 77.5627 30.7924 77.4296 30.7539C77.4711 30.6216 77.4883 30.4746 77.558 30.3595C78.0335 29.5743 78.5208 28.7963 79.0028 28.0151C79.7522 26.8004 80.5072 25.5892 81.2473 24.3689C82.0886 22.9818 82.9223 21.5901 83.7476 20.1934C84.3618 19.1539 84.9604 18.1051 85.5565 17.055C85.6246 16.9351 85.6372 16.7815 85.6648 16.6414C85.7135 16.3949 85.6244 16.2993 85.3573 16.3065C84.6693 16.3249 83.9805 16.3157 83.2919 16.3146C81.8858 16.3124 80.4797 16.3123 79.0736 16.3037C77.6299 16.2948 76.1863 16.2755 74.7427 16.2642C74.5486 16.2627 74.4021 16.3349 74.3893 16.5618C74.3838 16.6578 74.357 16.753 74.355 16.8488C74.3319 17.9628 74.3088 19.0768 74.2952 20.1909C74.2938 20.3004 74.3549 20.4106 74.387 20.5205C74.4436 20.4248 74.5239 20.3353 74.5516 20.2318C74.6039 20.0366 74.6222 19.8325 74.661 19.6333C74.7964 18.9382 75.0387 18.2816 75.519 17.7537C76.2085 16.9958 77.1178 16.6734 78.1142 16.6431C79.3447 16.6057 80.577 16.6275 81.8085 16.6298C82.1109 16.6304 82.1703 16.7452 82.0134 17.009C81.4101 18.0227 80.8034 19.0344 80.1771 20.0838Z" fill="#1D1D1D"/>
<path d="M51.9822 19.6663C53.128 22.1075 54.267 24.528 55.4455 27.0323C55.5566 26.8118 55.6465 26.6599 55.7126 26.4982C56.3715 24.8865 57.0271 23.2735 57.6823 21.6603C58.101 20.6294 58.5276 19.6016 58.9303 18.5646C59.1079 18.1073 59.2611 17.6368 59.3756 17.1603C59.4523 16.8412 59.3595 16.7639 59.0257 16.7544C58.6962 16.745 58.3663 16.7508 58.0365 16.7496C57.9589 16.7493 57.8786 16.7604 57.8043 16.7442C57.6148 16.703 57.3481 16.7283 57.3593 16.4373C57.3708 16.1402 57.6239 16.1841 57.8231 16.1838C59.2488 16.1816 60.6744 16.1816 62.1 16.1811C62.1582 16.1811 62.2165 16.186 62.2745 16.1832C62.4841 16.1732 62.6159 16.257 62.6125 16.4803C62.609 16.714 62.4522 16.7599 62.2548 16.7583C61.7796 16.7545 61.3038 16.7705 60.8293 16.7512C60.5137 16.7385 60.3456 16.8878 60.2362 17.1579C59.8437 18.1268 59.4476 19.0943 59.0524 20.0622C58.5807 21.2173 58.1231 22.3785 57.6336 23.526C56.6172 25.9089 55.5845 28.2847 54.5567 30.6626C54.4261 30.9648 54.2926 31.2663 54.1438 31.5596C54.097 31.6519 53.9925 31.7808 53.9202 31.7772C53.8367 31.773 53.7294 31.6555 53.6844 31.5622C53.281 30.7259 52.8901 29.8835 52.4935 29.0439C51.7381 27.4448 50.9817 25.846 50.225 24.2475C49.5053 22.7276 48.7913 21.2049 48.0616 19.6897C47.6885 18.915 47.2881 18.1532 46.8967 17.3873C46.6654 16.9347 46.3107 16.6893 45.7825 16.7103C45.4243 16.7245 45.0649 16.706 44.7061 16.7036C44.5236 16.7024 44.3681 16.6646 44.3742 16.437C44.3802 16.2149 44.5299 16.1791 44.7156 16.1797C47.2178 16.1882 49.72 16.1937 52.2222 16.2024C52.3377 16.2028 52.453 16.2364 52.5685 16.2373C52.775 16.2389 52.838 16.3445 52.8216 16.535C52.8041 16.7382 52.6699 16.7507 52.5117 16.7506C51.9698 16.7502 51.4278 16.7538 50.8859 16.7594C50.8206 16.7601 50.7556 16.7823 50.6238 16.807C51.0828 17.771 51.5291 18.7082 51.9822 19.6663ZM56.2125 25.6454C56.0346 26.052 55.8566 26.4586 55.6602 26.8999C55.5958 26.9875 55.5314 27.0751 55.4418 27.1971C55.2932 26.9563 55.172 26.7601 55.0435 26.5328C55.0277 26.5059 55.0118 26.4791 54.9894 26.4062C54.9638 26.3146 54.9505 26.2171 54.9104 26.1324C54.696 25.6795 54.4701 25.2321 54.257 24.7787C53.6415 23.4692 53.0306 22.1575 52.4173 20.8469C52.07 20.1048 51.7273 19.3603 51.3711 18.6225C51.1755 18.2174 50.9563 17.8238 50.7416 17.3903C50.7392 17.3669 50.7368 17.3435 50.719 17.2798C50.6632 17.0792 50.5602 16.8902 50.5503 16.6719C50.6642 16.6586 50.8253 16.6232 50.9392 16.6222C51.4704 16.6177 52.0017 16.6228 52.5328 16.6144C52.5905 16.6135 52.6471 16.5475 52.7042 16.5117C52.654 16.4536 52.6135 16.3777 52.5504 16.3429C52.4977 16.3138 52.4184 16.3306 52.3508 16.3306C51.7134 16.3309 51.076 16.3319 50.3842 16.3303C49.1022 16.329 47.8203 16.3276 46.4898 16.3242C45.9176 16.3188 45.3453 16.307 44.7733 16.3147C44.6846 16.3159 44.5971 16.4061 44.5091 16.4552C44.6135 16.5085 44.7161 16.6036 44.8227 16.6082C45.3516 16.631 45.8817 16.63 46.4246 16.6731C46.5443 16.7906 46.6639 16.908 46.7932 17.0591C46.8418 17.1082 46.8904 17.1573 46.9491 17.2466C47.6201 18.6001 48.2983 19.95 48.9599 21.308C49.482 22.3797 49.9837 23.4612 50.4994 24.5716C50.5168 24.5991 50.5342 24.6267 50.5565 24.6969C51.0367 25.6755 51.5286 26.6486 51.9938 27.6343C52.4985 28.7038 52.976 29.7863 53.4714 30.8604C53.5692 31.0725 53.6941 31.2722 53.8111 31.5183C53.8456 31.5563 53.8801 31.5944 53.9145 31.6324C53.9621 31.5585 54.0097 31.4845 54.0855 31.3829C54.1513 31.2546 54.2223 31.1287 54.2819 30.9975C54.5015 30.5144 54.7232 30.032 54.9331 29.5447C55.2835 28.7311 55.6255 27.9139 56.0018 27.0731C56.1474 26.7134 56.293 26.3537 56.456 25.958C56.8024 25.1563 57.1488 24.3546 57.5216 23.5226C57.6125 23.2888 57.6992 23.0532 57.795 22.8214C58.2744 21.6606 58.7568 20.501 59.2369 19.3405C59.5584 18.5636 59.8793 17.7864 60.1972 17.0081C60.3155 16.7183 60.5259 16.6083 60.8349 16.6172C61.3194 16.6313 61.8047 16.618 62.2895 16.6222C62.4683 16.6238 62.5312 16.5313 62.4551 16.3901C62.4268 16.3376 62.2847 16.33 62.1945 16.3297C60.7203 16.326 59.2462 16.3247 57.7721 16.3312C57.6773 16.3316 57.5828 16.4007 57.4882 16.4378C57.5841 16.4979 57.6752 16.5691 57.7779 16.6135C57.8352 16.6383 57.9118 16.6185 57.9796 16.6186C58.3579 16.6193 58.7364 16.6118 59.1143 16.6233C59.4167 16.6324 59.5555 16.7671 59.5122 17.0623C59.4678 17.3646 59.3847 17.6675 59.2739 17.9528C58.7808 19.2232 58.2696 20.4866 57.7694 21.7543C57.55 22.3102 57.3413 22.8704 57.0996 23.4586C56.964 23.8029 56.8277 24.147 56.693 24.4916C56.5448 24.871 56.3981 25.251 56.2125 25.6454Z" fill="#1D1D1D"/>
<path d="M9.01959 12.0453C8.95822 12.2379 8.90503 12.4092 8.84797 12.5929C8.63959 12.5 8.51208 12.421 8.68966 12.1872C8.82422 12.01 8.9193 11.7993 9.00963 11.5937C9.04662 11.5095 9.02487 11.3996 9.08763 11.2734C9.15557 11.4384 9.22351 11.6033 9.26551 11.7052C9.16481 11.8402 9.09629 11.9321 9.01959 12.0453Z" fill="#1D1D1D"/>
<path d="M12.7529 23.237C13.005 23.0644 13.2588 23.1359 13.5455 23.1966C13.3292 23.42 12.9655 23.4337 12.7529 23.237Z" fill="#1D1D1D"/>
<path d="M5.63477 22.9897C5.69335 22.9654 5.76033 22.958 5.84166 22.962C5.78506 22.9845 5.71411 22.9955 5.63477 22.9897Z" fill="#1D1D1D"/>
<path d="M41.0694 5.50121C41.3991 5.50125 41.7294 5.51305 42.0583 5.49723C42.2807 5.48654 42.3589 5.54865 42.3598 5.78668C42.3711 8.8876 42.3983 11.9885 42.4107 15.0894C42.4197 17.3064 42.4098 19.5235 42.4148 21.7406C42.4158 22.2043 42.4615 22.668 42.4593 23.1316C42.4488 25.2923 42.4265 27.4529 42.4149 29.6136C42.4134 29.8928 42.4288 30.1757 42.4744 30.4506C42.5168 30.7061 42.7106 30.8499 42.9629 30.8718C43.3474 30.9051 43.734 30.9146 44.1198 30.9334C44.1972 30.9372 44.2795 30.9219 44.3507 30.944C44.4021 30.9599 44.4388 31.0232 44.482 31.0653C44.4395 31.0983 44.3999 31.1536 44.3538 31.1598C44.2393 31.1752 44.1218 31.1695 44.0055 31.1697C43.3946 31.1708 42.7833 31.1573 42.1729 31.1749C41.3911 31.1975 40.6101 31.248 39.8285 31.2799C39.5613 31.2908 39.2933 31.2816 38.988 31.2816C38.9817 31.1558 38.9715 31.0453 38.9714 30.9348C38.9702 28.2002 38.981 25.4655 38.9615 22.731C38.9569 22.0787 38.8949 21.419 38.7757 20.7783C38.7073 20.4108 38.4661 20.0765 38.311 19.7236C38.0469 19.1231 37.6036 18.6499 37.2162 18.1349C37.1101 17.9938 35.589 16.9307 35.3265 16.6682C35.1515 16.6244 34.8453 15.6182 37.6014 17.9369C37.733 18.0844 38.3851 19.2656 38.4615 19.3541C38.5179 19.4196 38.5634 19.497 38.6282 19.552C38.6746 19.5913 38.7647 19.6378 38.8 19.618C38.8541 19.5877 38.9055 19.5051 38.91 19.4413C38.9376 19.0503 38.9672 18.6583 38.9677 18.2666C38.9728 14.6786 38.9733 11.0907 38.9711 7.50271C38.9709 7.1786 38.9421 6.85452 38.9391 6.50885C39.2534 6.36344 38.9752 6.24131 38.9449 6.13853C39.0105 6.05595 39.0535 5.97565 39.1192 5.92455C39.2605 5.81471 39.4038 5.65728 39.5637 5.63286C39.8414 5.59042 40.1353 5.66173 40.4169 5.63248C40.6343 5.60989 40.8917 5.73167 41.0694 5.50121ZM38.6513 19.8618C38.6783 19.8588 38.5807 19.821 38.6076 19.818C38.6014 19.7936 38.5201 19.7305 38.6076 19.7743C38.5846 19.7909 38.6951 19.8618 38.6513 19.8618ZM37.5139 18.2666C37.4931 18.2663 37.8589 18.6435 37.8381 18.6432C37.838 18.6518 37.8373 18.6679 37.8379 18.668C37.8586 18.6696 37.4928 18.2923 37.5139 18.2666Z" fill="#1D1D1D"/>
<path d="M33.0373 16.0915C33.87 16.0291 34.6183 16.3039 35.4067 16.4486C35.3801 16.532 35.3621 16.5884 35.3353 16.6722C35.4908 16.6439 35.6176 16.6209 35.7444 16.5978C35.511 16.9135 35.2418 16.803 34.9757 16.7152C33.974 16.3846 32.9722 16.4112 32.0005 16.7959C31.1863 17.1183 30.649 17.7568 30.3169 18.552C30.1078 19.0527 29.9173 19.568 29.789 20.0939C29.555 21.0534 29.478 22.0319 29.5924 23.0199C29.6434 23.4601 29.6395 23.911 29.7341 24.3408C29.8698 24.9575 30.024 25.579 30.2595 26.1625C30.5535 26.8909 30.9066 27.6005 31.2916 28.286C31.7952 29.1829 32.5686 29.7895 33.5314 30.1541C34.3833 30.4766 35.9605 30.1194 36.5431 29.4215C37.0364 28.8306 37.2646 28.1086 37.3975 27.3576C37.4298 27.1749 37.4491 26.9895 37.4912 26.8093C37.506 26.7457 37.5708 26.6937 37.6128 26.6365C37.6593 26.6992 37.7523 26.768 37.7449 26.8235C37.6879 27.2515 37.6364 27.6833 37.5307 28.1006C37.4756 28.3179 37.2168 28.5126 37.2254 28.7097C37.2365 28.9623 37.1035 29.0957 37.0034 29.268C36.9444 29.3695 36.8662 29.4598 36.768 29.5942C36.7607 29.5759 36.7807 29.6257 36.8092 29.6968C36.7327 29.7038 36.6715 29.7094 36.6102 29.715C36.6283 29.7335 36.6463 29.752 36.6644 29.7705C36.5892 29.8632 36.514 29.956 36.4386 30.0485C36.1146 30.4461 35.7211 30.7435 35.2614 30.9823C34.6259 31.3123 33.9482 31.4696 33.2537 31.5078C31.7036 31.5931 30.2625 31.1993 28.9931 30.3024C28.4263 29.902 27.9451 29.4002 27.5131 28.8311C26.868 27.9812 26.3854 27.0693 26.1075 26.0519C25.9198 25.365 25.8354 24.6604 25.7986 23.9406C25.7416 22.8242 25.8629 21.7503 26.2148 20.6935C26.6601 19.3559 27.4158 18.2339 28.5351 17.3766C29.1005 16.9437 29.7446 16.6385 30.431 16.4397C31.2718 16.1963 32.1267 16.0411 33.0373 16.0915ZM31.0482 17.17C31.0479 17.1907 31.0477 17.2114 31.0474 17.2321C31.056 17.2322 31.072 17.2329 31.0721 17.2323C31.0737 17.2118 31.0739 17.1911 31.0482 17.17Z" fill="#1D1D1D"/>
<path d="M41.0414 5.50391C40.891 5.73512 40.6335 5.61334 40.4161 5.63593C40.1345 5.66518 39.8407 5.59388 39.5629 5.63631C39.403 5.66073 39.2597 5.81817 39.1184 5.928C39.0527 5.9791 39.0097 6.0594 38.9441 6.14198C38.9744 6.24476 39.2526 6.3669 38.9294 6.49352C38.7555 6.00282 38.3991 5.81495 37.9058 5.79087C37.5815 5.77503 37.2596 5.70925 36.9414 5.60596C37.6115 5.41861 38.2843 5.55838 38.9524 5.53904C39.6394 5.51915 40.3268 5.51448 41.0414 5.50391Z" fill="#1D1D1D"/>
<path d="M95.3699 23.0778C95.5212 23.3447 95.6877 23.6042 95.8208 23.8798C96.1793 24.6219 96.5237 25.3708 96.8735 26.1171C96.9749 26.3333 97.0696 26.5529 97.1789 26.765C97.229 26.8623 97.307 26.9452 97.4115 27.088C97.5294 26.91 97.6213 26.7831 97.7006 26.6487C97.8464 26.4015 98.0081 26.1598 98.1188 25.8971C98.2041 25.6947 98.1978 25.455 98.2745 25.2474C98.4128 24.8731 98.5908 24.5137 98.7375 24.1423C98.9757 23.5392 99.2018 22.9313 99.4336 22.3256C99.6331 21.804 99.8254 21.2795 100.035 20.7621C100.294 20.1247 100.57 19.4946 100.833 18.8588C100.975 18.5148 101.142 18.1745 101.228 17.8159C101.303 17.5056 101.307 17.1698 101.283 16.8496C101.277 16.7651 101.057 16.6373 100.931 16.6308C100.432 16.6054 99.9306 16.6204 99.4087 16.6204C99.2853 16.6248 98.9688 16.6201 98.9791 16.5524C98.9354 16.0561 99.2363 16.5463 99.1414 16.5524C99.0825 16.5563 99.0412 16.4511 98.9791 16.4061C98.995 16.3738 98.9876 16.3617 99.0035 16.3294C100.549 16.3294 102.094 16.328 103.639 16.3339C103.709 16.3341 103.835 16.3186 103.879 16.4498C103.791 16.5811 103.704 16.5503 103.627 16.5564C103.415 16.5734 103.201 16.5557 102.988 16.5645C102.582 16.5812 101.948 16.7109 101.728 17.3069C101.626 17.0778 101.864 17.2861 101.473 17.2811C101.39 17.28 101.385 16.7561 101.426 16.8523C101.819 16.9278 101.779 17.1673 101.705 17.3765C101.469 18.0503 101.216 18.7183 100.96 19.3852C100.589 20.3548 100.224 21.3271 99.8309 22.2883C99.3096 23.5644 98.7632 24.8302 98.2299 26.1015C97.7519 27.2411 97.2782 28.3826 96.8001 29.5222C96.7108 29.7352 96.5732 30.0945 96.4417 30.3179C96.3784 30.3306 96.2092 30.4278 96.1792 30.4054C96.1864 30.2461 96.3456 29.8506 96.3889 29.7249C96.5735 29.1882 96.8451 28.6749 96.7847 28.0782C96.7818 28.0501 96.8543 28.0144 96.9061 27.9698C96.9342 28.0788 96.9544 28.1576 96.9771 28.2454C97.305 27.9824 97.3955 27.7444 97.2693 27.4344C97.1998 27.5858 97.1417 27.7125 97.0836 27.8392C97.0491 27.827 97.0146 27.8148 96.9801 27.8026C97.0178 27.6517 97.0566 27.501 97.0929 27.3498C97.1087 27.2844 96.0355 29.5883 96.0485 29.5222C95.9823 29.5252 96.9998 27.1591 96.9335 27.1603C96.8472 27.1618 96.0379 29.7929 95.9514 29.7929C96.0654 29.6485 96.025 29.9862 95.8479 29.8586C95.9169 29.9288 95.733 29.7758 95.8479 29.8586C95.6058 29.746 96.0907 29.9187 95.8205 29.7929C95.8632 29.895 95.8519 29.7525 95.9001 29.834C95.9525 29.9227 96.037 29.4331 96.0485 29.5222C96.1073 29.9767 95.9742 29.3409 95.8205 29.7929C95.7661 29.9528 95.9312 29.7969 95.8205 29.9242C95.6898 30.0744 95.9962 29.9578 95.9001 29.834C95.8525 29.7728 95.7279 29.8132 95.6941 29.7249C95.8616 29.8152 95.7138 29.1667 95.8205 29.2242C95.8421 29.1898 95.7989 29.8273 95.8205 29.7929C95.7624 29.7414 95.6293 29.4169 95.5623 29.3992C95.3236 29.3363 95.7561 30.1606 95.7344 29.9242C95.7212 29.781 95.7719 29.6442 95.6615 29.5238C95.5675 29.4212 95.8015 29.6218 95.6697 29.5222C95.5654 29.5593 95.0638 28.9274 94.9672 28.9617C94.8933 29.1105 94.1373 27.4889 94.0794 27.6055C93.8549 27.149 93.6296 26.6536 93.4085 26.1953C93.1118 25.5803 92.8242 24.9609 92.5248 24.3472C92.1158 23.5086 91.6968 22.675 91.2868 21.8369C90.5821 20.3962 89.8851 18.9516 89.1744 17.5139C89.0558 17.274 88.8933 17.0537 88.7352 16.8358C88.5213 16.541 88.1763 16.6164 87.8812 16.5721C87.663 16.5394 87.4352 16.576 87.2135 16.5582C87.1312 16.5516 87.0541 16.4784 86.9746 16.4356C86.9877 16.3983 87.0007 16.3611 87.0137 16.3238C87.1168 16.3238 87.2199 16.3238 87.323 16.3238C89.7375 16.3247 92.1519 16.3255 94.5664 16.3264C94.6245 16.3264 94.6917 16.3093 94.7387 16.3325C94.8013 16.3634 94.8483 16.426 94.9019 16.475C94.8394 16.5214 94.7796 16.6016 94.7138 16.6068C94.5917 16.6164 94.4659 16.5664 94.3422 16.5691C93.8301 16.5805 93.318 16.5989 92.8063 16.6217C92.5752 16.632 92.485 16.7653 92.5859 17.0006C92.8576 17.6347 93.1425 18.2635 93.4358 18.888C94.0282 20.1489 94.6302 21.4052 95.2261 22.6644C95.2827 22.7839 95.3247 22.9102 95.3569 23.0594C95.322 23.1016 95.3038 23.1178 95.2856 23.1341C95.2969 23.1437 95.3082 23.1533 95.3195 23.163C95.3363 23.1346 95.3531 23.1062 95.3699 23.0778ZM101.523 17.2533C101.5 17.2019 101.477 17.1505 101.454 17.0992C101.429 17.122 101.404 17.1449 101.38 17.1678C101.42 17.2063 101.46 17.2448 101.523 17.2533Z" fill="#1D1D1D"/>
<path d="M90.6541 38.5729C89.6791 38.6412 88.943 37.7373 88.9287 36.7797C89.2689 36.6086 89.285 36.4839 89.0186 36.2302C89.1992 35.5025 89.7297 35.1193 90.4098 35.0338C90.9095 34.9709 91.4572 35.0206 91.8723 35.4751C91.8966 35.9006 92.0517 36.062 92.3457 36.0006C92.4279 36.0408 92.51 36.0811 92.6166 36.1444C92.6588 36.2678 92.6765 36.3682 92.6943 36.4687C92.6151 36.6966 92.5365 36.9247 92.4564 37.1523C92.4352 37.2125 92.4091 37.2709 92.3641 37.3218C92.3263 37.2927 92.3096 37.272 92.293 37.2513C92.1926 37.4064 91.9975 37.5292 92.1192 37.7602C91.9918 38.1088 91.7238 38.3097 91.3758 38.4278C91.3453 38.2067 91.2827 38.0546 91.0425 38.0691C91.0329 38.0697 91.0251 38.0998 91.0071 38.1338C91.0565 38.1772 91.1086 38.2229 91.1512 38.2604C91.1204 38.3692 91.0925 38.4672 91.0647 38.5653C91.0207 38.5662 90.9767 38.5671 90.9107 38.5448C90.8658 38.2453 90.6726 38.2066 90.4335 38.1453C90.5266 38.3257 90.5904 38.4493 90.6541 38.5729Z" fill="#169344"/>
<path d="M94.0791 27.61C94.135 27.472 94.197 27.3364 94.271 27.1876C94.3676 27.1533 94.5091 27.1031 94.6134 27.066C94.7453 27.1656 94.8731 27.2371 94.967 27.3396C95.0775 27.4601 95.2244 27.6015 95.2375 27.7446C95.2593 27.981 95.3198 28.1266 95.5585 28.1895C95.6255 28.2072 95.6761 28.2874 95.7342 28.3389C95.7126 28.3733 95.6911 28.4077 95.6695 28.4421C95.5628 28.3846 95.4561 28.3271 95.2885 28.2367C95.3223 28.325 95.336 28.4126 95.3835 28.4738C95.4797 28.5976 95.617 28.6918 95.7477 28.5416C95.8584 28.4143 95.3292 27.6412 95.3835 27.4813C95.5372 27.0293 94.9342 26.1832 94.8754 25.7287C94.8639 25.6395 95.8727 26.5679 95.8203 26.4792C95.7721 26.3977 95.7441 26.3043 95.7014 26.2022C95.9716 26.328 96.1858 26.4276 96.4278 26.5403C96.4969 26.6104 96.5862 26.7288 96.7011 26.8117C96.8781 26.9393 97.2116 26.8968 97.0977 27.0412C97.1841 27.0412 97.2078 27.1575 97.2942 27.156C97.3605 27.1548 97.0659 27.159 97.1321 27.156C97.1192 27.2221 97.3322 27.1945 97.3164 27.26C97.2801 27.4112 97.398 27.1966 97.3602 27.3475C97.3947 27.3597 97.0489 27.8314 97.0834 27.8436C97.1415 27.7169 97.1996 27.5902 97.2691 27.4388C97.3953 27.7487 97.4694 28.2219 97.1414 28.4849C97.1188 28.397 97.082 28.6814 97.054 28.5724C97.0022 28.617 97.0074 28.6318 97.0102 28.6599C97.0706 29.2567 96.6699 29.3044 96.4852 29.8411C96.442 29.9667 96.3644 30.002 96.3401 30.1687C96.1878 30.2641 96.2752 30.2366 96.4415 30.3224C96.4404 30.3645 96.3348 30.5658 96.3102 30.6286C96.2086 30.5952 96.1043 30.4813 96.0656 30.4545C95.9331 30.5109 95.8251 30.5568 95.7172 30.6028C95.7033 30.5781 95.6895 30.5534 95.6757 30.5287C95.7296 30.4603 95.7835 30.3919 95.8991 30.2452C95.6521 30.2452 95.4763 30.2787 95.304 30.2787C95.304 30.2787 95.312 30.242 95.3189 30.2248C95.3828 30.1311 95.4332 30.0487 95.498 29.9797C95.6631 29.8038 95.6455 29.7092 95.4244 29.5834C95.3282 29.5286 95.2405 29.459 95.1383 29.3888C95.1979 29.3039 95.2476 29.233 95.2629 29.2111C95.1172 29.03 94.9994 28.8786 94.8754 28.7325C94.8353 28.6852 94.7816 28.6785 94.7353 28.6162C94.7798 28.4271 94.819 28.2336 94.8787 27.9955C94.6524 28.0908 94.5069 28.1774 94.3661 28.2367C94.2709 28.0378 94.1764 27.8304 94.0791 27.61ZM94.5429 27.8562C94.5308 27.8073 94.5186 27.7584 94.5065 27.7096C94.4713 27.732 94.4362 27.7545 94.4011 27.7769C94.4404 27.8131 94.4797 27.8493 94.5429 27.8562ZM96.4278 27.5662C96.4276 27.5891 96.7549 27.4584 96.7547 27.4813C96.7642 27.4814 96.7819 27.4821 96.782 27.4815C96.7837 27.4587 96.4563 27.5894 96.4278 27.5662Z" fill="#1D1D1D"/>
<path d="M95.2604 30.1884C95.433 30.1655 95.7572 30.2321 96.0041 30.2321C95.8886 30.3788 95.7297 30.4575 95.6758 30.526C95.6896 30.5507 95.7278 30.5574 95.7416 30.5821C95.8496 30.5361 95.9591 30.4635 96.0916 30.4071C96.1303 30.434 96.2537 30.4839 96.3541 30.5384C96.0389 31.3373 95.6301 32.1847 95.2929 32.9835C95.0593 33.5368 94.851 34.1025 94.5863 34.6405C94.3076 35.2071 93.9917 35.7443 93.3772 36.0961C93.3062 36.0542 93.2596 35.9951 93.2129 35.936C93.5542 35.7006 93.909 35.3857 94.0816 34.9715C94.5536 33.8381 95 32.6941 95.4635 31.5571C95.6151 31.1851 95.5385 30.8451 95.3695 30.5059C95.3364 30.4395 95.2803 30.2842 95.2604 30.1884Z" fill="#1D1D1D"/>
<path d="M94.7303 28.6094C94.7792 28.6492 94.8355 28.6827 94.8756 28.7299C94.9996 28.8761 95.1585 29.0013 95.3043 29.1824C95.2889 29.2043 95.2326 29.2724 95.173 29.3574C95.2752 29.4275 95.4268 29.4774 95.523 29.5322C95.7441 29.658 95.6633 29.8012 95.4982 29.9771C95.4334 30.0461 95.3705 30.1812 95.3043 30.2761C95.1452 29.9902 95.0053 29.6344 94.8591 29.3282C94.7722 29.1461 94.6367 28.8794 94.5605 28.6574C94.6012 28.5899 94.695 28.6396 94.7303 28.6094Z" fill="#1D1D1D"/>
<path d="M93.249 35.918C93.3144 35.9675 93.4008 35.9879 93.4677 36.0492C93.2927 36.1805 92.9206 36.4128 92.6803 36.5304C92.6412 36.4321 92.6137 36.2147 92.5928 36.093C92.77 36.0151 93.0498 35.9841 93.249 35.918Z" fill="#1D1D1D"/>
<path d="M94.7668 28.5976C94.7289 28.6503 94.691 28.7046 94.6036 28.7483C94.5196 28.6031 94.4372 28.3966 94.3564 28.2145C94.4926 28.1345 94.7155 28.0367 94.9418 27.9414C94.8821 28.1795 94.8113 28.4084 94.7668 28.5976Z" fill="#1D1D1D"/>
<path d="M91.0855 38.5671C91.0922 38.4694 91.1201 38.3713 91.1509 38.2626C91.1083 38.2251 91.0562 38.1793 91.0068 38.1359C91.0248 38.102 91.0326 38.0718 91.0422 38.0713C91.2823 38.0568 91.345 38.2088 91.3545 38.4327C91.2717 38.4931 91.1891 38.5299 91.0855 38.5671Z" fill="#1D1D1D"/>
<path d="M89.0019 36.2461C89.2844 36.4852 89.2683 36.6098 88.9287 36.7563C88.9333 36.5924 88.9596 36.4266 89.0019 36.2461Z" fill="#1D1D1D"/>
<path d="M92.3371 35.9868C92.0513 36.0659 91.8962 35.9045 91.8818 35.4961C92.032 35.6376 92.1804 35.8034 92.3371 35.9868Z" fill="#1D1D1D"/>
<path d="M90.6656 38.5888C90.5895 38.4524 90.5257 38.3288 90.4326 38.1484C90.6717 38.2097 90.8649 38.2485 90.8878 38.5473C90.8179 38.5804 90.7479 38.591 90.6656 38.5888Z" fill="#1D1D1D"/>
<path d="M92.1388 37.757C91.997 37.5318 92.1921 37.409 92.2925 37.2539C92.3091 37.2746 92.3258 37.2953 92.3465 37.3354C92.2866 37.487 92.2228 37.6191 92.1388 37.757Z" fill="#1D1D1D"/>
<path d="M96.3279 30.4079C96.1452 30.3314 96.1884 30.2593 96.3432 30.186C96.3878 30.1789 96.4153 30.1792 96.4635 30.1803C96.4376 30.2536 96.391 30.3261 96.3279 30.4079Z" fill="#1D1D1D"/>
<path d="M80.1881 20.0706C80.804 19.0397 81.4107 18.0281 82.0139 17.0143C82.1709 16.7506 82.1115 16.6357 81.8091 16.6351C80.5776 16.6328 79.3452 16.6111 78.1148 16.6485C77.1184 16.6787 76.2091 17.0012 75.5196 17.759C75.0393 18.2869 74.797 18.9435 74.6616 19.6386C74.6228 19.8378 74.6044 20.0419 74.5522 20.2372C74.5245 20.3407 74.4442 20.4301 74.3876 20.5259C74.3555 20.416 74.2944 20.3057 74.2958 20.1962C74.3094 19.0821 74.3325 17.9681 74.3556 16.8542C74.3575 16.7583 74.3844 16.6631 74.3898 16.5671C74.4027 16.3403 74.5492 16.268 74.7433 16.2696C76.1869 16.2808 77.6305 16.3002 79.0742 16.309C80.4803 16.3177 81.8864 16.3177 83.2925 16.3199C83.981 16.321 84.6699 16.3303 85.3579 16.3118C85.625 16.3046 85.7141 16.4003 85.6654 16.6467C85.6378 16.7868 85.6252 16.9404 85.5571 17.0604C84.961 18.1104 84.3623 19.1592 83.7481 20.1987C82.9229 21.5954 82.0892 22.9871 81.2479 24.3742C80.5078 25.5945 79.7528 26.8058 79.0034 28.0204C78.5214 28.8016 78.0341 29.5796 77.5586 30.3648C77.4888 30.48 77.4717 30.627 77.4302 30.7592C77.5633 30.7977 77.6962 30.869 77.8295 30.8696C79.1191 30.8749 80.4092 30.8826 81.6985 30.8573C82.14 30.8486 82.588 30.7836 83.0186 30.6829C83.908 30.4747 84.4004 29.8202 84.7726 29.0394C85.1222 28.3059 85.1612 27.5086 85.2891 26.7283C85.3018 26.6507 85.3673 26.5818 85.4082 26.5088C85.4437 26.5933 85.5146 26.6799 85.5095 26.7618C85.4293 28.0552 85.3394 29.348 85.2516 30.6409C85.247 30.7085 85.2403 30.776 85.2369 30.8436C85.2236 31.1043 85.103 31.1982 84.8288 31.1949C83.5974 31.1798 82.3657 31.1886 81.1341 31.1882C78.7971 31.1874 76.4601 31.1873 74.1231 31.1818C74.0075 31.1815 73.892 31.132 73.7764 31.1054C73.8139 30.9886 73.8318 30.8605 73.8918 30.7567C75.0137 28.8145 76.1312 26.8697 77.2696 24.9372C78.0937 23.5383 78.9477 22.157 79.7867 20.7669C79.9214 20.5436 80.0475 20.3151 80.1881 20.0706Z" fill="#1D1D1D"/>
<path d="M55.0992 26.5596C55.2203 26.7558 55.2923 26.9571 55.4409 27.1978C55.5305 27.0759 55.5949 26.9883 55.6894 26.8833C55.8031 26.9437 55.9343 27.0069 56.0179 27.0845C55.6723 27.9002 55.2826 28.7318 54.9322 29.5454C54.7223 30.0328 54.5006 30.5151 54.281 30.9983C54.2214 31.1294 54.1087 31.3628 54.0055 31.5031C53.9 31.5386 53.8547 31.4795 53.7867 31.5031C53.6743 31.2977 53.5683 31.0733 53.4705 30.8611C52.9751 29.787 52.4976 28.7046 51.9929 27.635C51.5277 26.6494 51.0185 25.6884 50.5494 24.6784C50.4442 24.5099 50.49 24.5791 50.4619 24.5472C49.9511 23.47 49.4811 22.3804 48.959 21.3088C48.2974 19.9508 47.5779 18.5834 46.9183 17.1975C46.9962 16.9572 46.8715 17.0924 46.7871 17.0663C46.6674 16.9488 46.471 16.7421 46.3496 16.5851C46.3869 16.4563 46.4855 16.4118 46.5246 16.3226C47.8066 16.3239 49.15 16.2992 50.4619 16.3226C50.5277 16.4458 50.5136 16.5713 50.5494 16.6726C50.6052 16.8731 50.6968 17.1068 50.7468 17.3363C50.7544 17.3943 50.7547 17.3871 50.7681 17.4163C50.9767 17.8151 51.1746 18.2181 51.3702 18.6232C51.7264 19.3611 52.0691 20.1055 52.4164 20.8477C53.0297 22.1582 53.6406 23.4699 54.2561 24.7795C54.4692 25.2329 54.6951 25.6803 54.9095 26.1331C54.9496 26.2179 54.9814 26.3103 55.0117 26.4283C55.0279 26.4917 55.0992 26.5107 55.0992 26.5596Z" fill="#1D1D1D"/>
<path d="M57.0684 23.5378C57.2819 22.9796 57.5497 22.3078 57.769 21.7519C58.2692 20.4842 58.7805 19.2208 59.2736 17.9504C59.3844 17.6651 59.4674 17.3622 59.5118 17.0599C59.5552 16.7647 59.4164 16.63 59.1139 16.6209C58.736 16.6095 58.3575 16.617 57.9793 16.6162C57.9114 16.6161 57.8348 16.6359 57.7776 16.6112C57.6749 16.5667 57.5838 16.4955 57.4879 16.4354C57.5825 16.3983 57.677 16.3292 57.7718 16.3288C59.2459 16.3223 60.72 16.3236 62.1941 16.3273C62.2844 16.3276 62.4264 16.3352 62.4548 16.3877C62.5309 16.529 62.468 16.6214 62.2892 16.6198C61.8043 16.6156 61.3191 16.6289 60.8346 16.6148C60.5256 16.6059 60.3152 16.7159 60.1968 17.0057C59.8789 17.784 59.558 18.5612 59.2366 19.3381C58.7565 20.4986 58.2741 21.6582 57.7946 22.819C57.6989 23.0508 57.5864 23.3862 57.4621 23.6253C57.3197 23.5957 57.1774 23.5727 57.0684 23.5378Z" fill="#1D1D1D"/>
<path d="M57.2001 23.2344C57.3232 23.2542 57.4209 23.3992 57.5501 23.4439C57.2239 24.2555 56.6153 25.6989 56.2377 26.5155C56.1589 26.4113 56.1541 26.022 56.1064 25.903C56.2538 25.5233 56.545 24.8714 56.6932 24.492C56.8279 24.1474 57.0504 23.5937 57.2001 23.2344Z" fill="#1D1D1D"/>
<path d="M50.5502 16.6702C50.4914 16.5778 50.4576 16.4423 50.4189 16.3202C51.0536 16.2986 51.7133 16.3292 52.3507 16.3289C52.4183 16.3289 52.4975 16.3121 52.5503 16.3412C52.6134 16.376 52.6539 16.4519 52.7041 16.51C52.647 16.5458 52.5904 16.6118 52.5327 16.6127C52.0016 16.6212 51.4703 16.6161 50.9391 16.6206C50.8127 16.6264 50.6814 16.6702 50.5502 16.6702Z" fill="#1D1D1D"/>
<path d="M46.5699 16.3228C46.5551 16.4131 46.5702 16.5617 46.5262 16.6726C45.9916 16.6869 45.3524 16.6318 44.8234 16.609C44.7168 16.6044 44.6142 16.5094 44.5098 16.456C44.5978 16.407 44.6853 16.3168 44.774 16.3156C45.3461 16.3079 45.9735 16.3163 46.5699 16.3228Z" fill="#1D1D1D"/>
<path d="M56.2373 25.5938C56.304 25.7054 56.3457 25.8661 56.4159 25.9883C56.3248 26.3812 56.0483 27.0152 55.8873 27.3874C55.7884 27.3223 55.6855 27.1151 55.5811 27.0374C55.7381 26.6308 56.0402 26.0077 56.2373 25.5938Z" fill="#1D1D1D"/>
<path d="M53.7871 31.5016C53.8528 31.4576 53.9583 31.4358 54.0496 31.4141C54.0253 31.4898 53.9616 31.5578 53.914 31.6317C53.8796 31.5937 53.8238 31.56 53.7871 31.5016Z" fill="#1D1D1D"/>
<path d="M46.7012 16.9766C46.7808 16.9858 47.1386 17.0203 46.9637 17.239C46.8985 17.2022 46.7546 17.0425 46.7012 16.9766Z" fill="#1D1D1D"/>
<path d="M55.0474 26.5474C55.0222 26.532 54.9934 26.5011 54.9805 26.4609C55.0122 26.4784 55.028 26.5052 55.0474 26.5474Z" fill="#1D1D1D"/>
<path d="M50.7443 17.4066C50.734 17.3949 50.7206 17.3659 50.7207 17.3281C50.7365 17.3427 50.7389 17.366 50.7443 17.4066Z" fill="#1D1D1D"/>
<path d="M31.0607 17.1719C31.0733 17.1926 31.0731 17.2133 31.0715 17.2338C31.0714 17.2343 31.0554 17.2336 31.0469 17.2335C31.0472 17.2129 31.0474 17.1923 31.0607 17.1719Z" fill="#1D1D1D"/>
<path d="M101.56 17.325C101.457 17.2885 101.377 17.2287 101.298 17.1689C101.347 17.1335 101.396 17.098 101.446 17.0625C101.492 17.1422 101.538 17.2219 101.56 17.325Z" fill="#1D1D1D"/>
<path d="M95.3691 23.08C95.352 23.1079 95.3637 23.1602 95.3469 23.1885C95.3357 23.1789 95.271 23.1545 95.2598 23.1449C95.2779 23.1287 95.3134 23.0771 95.3469 23.0578C95.3469 23.0143 95.3694 23.0803 95.3691 23.08Z" fill="#1D1D1D"/>
<path d="M94.559 27.8692C94.5154 27.9128 94.4396 27.8102 94.4004 27.7741C94.4354 27.7517 94.4703 27.7294 94.5053 27.707C94.5174 27.7557 94.6026 27.8692 94.559 27.8692Z" fill="#1D1D1D"/>
<path d="M96.7467 27.3438C96.7607 27.3667 96.8338 27.4309 96.7808 27.4771C96.8338 27.4745 96.7126 27.5181 96.7031 27.518C96.7034 27.4952 96.7321 27.3665 96.7467 27.3438Z" fill="#1D1D1D"/>
<circle cx="90.7106" cy="36.7507" r="2.0124" fill="#1D1D1D"/>
<g clip-path="url(#clip1_4241_1945)">
<path d="M64.3506 10.0024C64.3506 8.29678 65.9416 6.91406 67.9041 6.91406C69.8667 6.91406 71.4577 8.29677 71.4577 10.0024V14.0621C71.4577 14.0826 71.441 14.0993 71.4205 14.0993H70.5011C70.4959 14.0993 70.4908 14.0982 70.4861 14.0961L67.8512 12.9282C67.8415 12.9239 67.8305 12.924 67.8209 12.9283L65.2265 14.096C65.2217 14.0982 65.2165 14.0993 65.2112 14.0993H64.3878C64.3672 14.0993 64.3506 14.0826 64.3506 14.0621V10.0024Z" fill="#169544"/>
<path d="M67.8576 9.66406L70.4954 14.0998L67.8576 12.9325L65.2197 14.0998L67.8576 9.66406Z" fill="#1D1D1D"/>
</g>
<g clip-path="url(#clip2_4241_1945)">
<path d="M64.3506 10.0024C64.3506 8.29678 65.9416 6.91406 67.9041 6.91406C69.8667 6.91406 71.4577 8.29677 71.4577 10.0024V14.0621C71.4577 14.0826 71.441 14.0993 71.4205 14.0993H70.5011C70.4959 14.0993 70.4908 14.0982 70.4861 14.0961L67.8512 12.9282C67.8415 12.9239 67.8305 12.924 67.8209 12.9283L65.2265 14.096C65.2217 14.0982 65.2165 14.0993 65.2112 14.0993H64.3878C64.3672 14.0993 64.3506 14.0826 64.3506 14.0621V10.0024Z" fill="#169544"/>
<path d="M67.8576 9.66406L70.4954 14.0998L67.8576 12.9325L65.2197 14.0998L67.8576 9.66406Z" fill="#1D1D1D"/>
</g>
</g>
<defs>
<clipPath id="clip0_4241_1945">
<rect width="104.995" height="44" fill="white" transform="translate(0.50293 0.441406)"/>
</clipPath>
<clipPath id="clip1_4241_1945">
<rect width="7.10711" height="7.18521" fill="white" transform="translate(64.3506 6.91406)"/>
</clipPath>
<clipPath id="clip2_4241_1945">
<rect width="7.10711" height="7.18521" fill="white" transform="translate(64.3506 6.91406)"/>
</clipPath>
</defs>
</svg>
