<svg xmlns:xlink="http://www.w3.org/1999/xlink"  xmlns="http://www.w3.org/2000/svg" width="20" height="20" viewBox="0 0 20 20" fill="none">
<path fill-rule="evenodd" clip-rule="evenodd" d="M7.59175 1.20058C7.43392 1.34223 7.26869 1.47542 7.09675 1.59958C6.79875 1.79958 6.46375 1.93758 6.11175 2.00758C5.95875 2.03758 5.79875 2.05058 5.47975 2.07558C4.67875 2.13958 4.27775 2.17158 3.94375 2.28958C3.56174 2.42423 3.21478 2.64279 2.92837 2.9292C2.64196 3.21561 2.4234 3.56257 2.28875 3.94458C2.17075 4.27858 2.13875 4.67958 2.07475 5.48058C2.06327 5.6923 2.04057 5.90326 2.00675 6.11258C1.93675 6.46458 1.79875 6.79958 1.59875 7.09758C1.51175 7.22758 1.40775 7.34958 1.19975 7.59258C0.67875 8.20458 0.41775 8.51058 0.26475 8.83058C-0.08825 9.57058 -0.08825 10.4306 0.26475 11.1706C0.41775 11.4906 0.67875 11.7966 1.19975 12.4086C1.40775 12.6516 1.51175 12.7736 1.59875 12.9036C1.79875 13.2016 1.93675 13.5366 2.00675 13.8886C2.03675 14.0416 2.04975 14.2016 2.07475 14.5206C2.13875 15.3216 2.17075 15.7226 2.28875 16.0566C2.4234 16.4386 2.64196 16.7856 2.92837 17.072C3.21478 17.3584 3.56174 17.5769 3.94375 17.7116C4.27775 17.8296 4.67875 17.8616 5.47975 17.9256C5.79875 17.9506 5.95875 17.9636 6.11175 17.9936C6.46375 18.0636 6.79875 18.2026 7.09675 18.4016C7.22675 18.4886 7.34875 18.5926 7.59175 18.8006C8.20375 19.3216 8.50975 19.5826 8.82975 19.7356C9.56975 20.0886 10.4298 20.0886 11.1698 19.7356C11.4898 19.5826 11.7958 19.3216 12.4078 18.8006C12.6508 18.5926 12.7728 18.4886 12.9028 18.4016C13.2008 18.2016 13.5357 18.0636 13.8877 17.9936C14.0407 17.9636 14.2008 17.9506 14.5198 17.9256C15.3208 17.8616 15.7217 17.8296 16.0557 17.7116C16.4378 17.5769 16.7847 17.3584 17.0711 17.072C17.3575 16.7856 17.5761 16.4386 17.7108 16.0566C17.8288 15.7226 17.8607 15.3216 17.9247 14.5206C17.9497 14.2016 17.9628 14.0416 17.9928 13.8886C18.0628 13.5366 18.2017 13.2016 18.4007 12.9036C18.4877 12.7736 18.5917 12.6516 18.7997 12.4086C19.3207 11.7966 19.5818 11.4906 19.7348 11.1706C20.0878 10.4306 20.0878 9.57058 19.7348 8.83058C19.5818 8.51058 19.3207 8.20458 18.7997 7.59258C18.6581 7.43475 18.5249 7.26951 18.4007 7.09758C18.2006 6.79963 18.0619 6.46477 17.9928 6.11258C17.9589 5.90326 17.9362 5.6923 17.9247 5.48058C17.8607 4.67958 17.8288 4.27858 17.7108 3.94458C17.5761 3.56257 17.3575 3.21561 17.0711 2.9292C16.7847 2.64279 16.4378 2.42423 16.0557 2.28958C15.7217 2.17158 15.3208 2.13958 14.5198 2.07558C14.308 2.06409 14.0971 2.0414 13.8877 2.00758C13.5356 1.9384 13.2007 1.7997 12.9028 1.59958C12.7308 1.47542 12.5656 1.34223 12.4078 1.20058C11.7958 0.679578 11.4898 0.418578 11.1698 0.265578C10.8045 0.0907498 10.4047 0 9.99975 0C9.59481 0 9.19501 0.0907498 8.82975 0.265578C8.50975 0.418578 8.20375 0.679578 7.59175 1.20058ZM14.3727 7.86358C14.5141 7.70889 14.5903 7.50565 14.5856 7.29617C14.5809 7.08669 14.4956 6.8871 14.3474 6.73894C14.1992 6.59077 13.9996 6.50545 13.7902 6.50073C13.5807 6.496 13.3774 6.57224 13.2227 6.71358L8.37275 11.5636L6.77675 9.96858C6.62206 9.82724 6.41882 9.751 6.20934 9.75573C5.99986 9.76045 5.80027 9.84577 5.65211 9.99394C5.50394 10.1421 5.41862 10.3417 5.4139 10.5512C5.40918 10.7607 5.48541 10.9639 5.62675 11.1186L7.79675 13.2886C7.94936 13.4409 8.15615 13.5264 8.37175 13.5264C8.58735 13.5264 8.79414 13.4409 8.94675 13.2886L14.3727 7.86358Z" fill="#407BFF"></path>
</svg>